/* XPM */
static char *_dfdde9027554d93ef10efed546e1edcmIU5DgX4FkITK11R[] = {
/* columns rows colors chars-per-pixel */
"40 40 204 2 ",
"   c None",
".  c #311D1C",
"X  c #2C231F",
"o  c #2C241F",
"O  c #31201E",
"+  c #33211F",
"@  c #36211E",
"#  c #36211F",
"$  c #35231F",
"%  c #1F2F24",
"&  c #1F3124",
"*  c #272720",
"=  c #212A21",
"-  c #212B23",
";  c #202E23",
":  c #272C23",
">  c #2F2A22",
",  c #332420",
"<  c #322621",
"1  c #3A2320",
"2  c #3B2320",
"3  c #3F2521",
"4  c #3B2822",
"5  c #203025",
"6  c #223124",
"7  c #223226",
"8  c #223327",
"9  c #233427",
"0  c #233626",
"q  c #223727",
"w  c #243627",
"e  c #283025",
"r  c #2D3627",
"t  c #243629",
"y  c #25372A",
"u  c #263929",
"i  c #243A29",
"p  c #253A29",
"a  c #283E2B",
"s  c #363929",
"d  c #402521",
"f  c #432722",
"g  c #472A24",
"h  c #482923",
"j  c #4B2B24",
"k  c #4E2C25",
"l  c #4F322A",
"z  c #4A372A",
"x  c #52332A",
"c  c #583329",
"v  c #583B2F",
"b  c #5A3E32",
"n  c #60392C",
"m  c #673A2D",
"M  c #6B3E2F",
"N  c #28412C",
"B  c #28422E",
"V  c #2B422E",
"C  c #29452D",
"Z  c #33432D",
"A  c #2C4730",
"S  c #2C4830",
"D  c #2D4C31",
"F  c #2F4E32",
"G  c #2F4E34",
"H  c #3E4730",
"J  c #2E5034",
"K  c #305134",
"L  c #325337",
"P  c #315435",
"I  c #325636",
"U  c #3F5034",
"Y  c #335439",
"T  c #345A38",
"R  c #34583B",
"E  c #365B3B",
"W  c #365C3A",
"Q  c #365D3B",
"!  c #37613B",
"~  c #3A623F",
"^  c #3A653D",
"/  c #3A643E",
"(  c #3B653F",
")  c #3D693F",
"_  c #52422F",
"`  c #4D4930",
"'  c #555033",
"]  c #5F5A39",
"[  c #614033",
"{  c #604336",
"}  c #614537",
"|  c #694637",
" . c #624F39",
".. c #6C4E3D",
"X. c #714332",
"o. c #74503D",
"O. c #42683D",
"+. c #456C3F",
"@. c #50603C",
"#. c #52683F",
"$. c #4C703C",
"%. c #59793C",
"&. c #3E6744",
"*. c #3F6F42",
"=. c #715842",
"-. c #426C46",
";. c #496D46",
":. c #516140",
">. c #55674C",
",. c #427142",
"<. c #427045",
"1. c #447345",
"2. c #457746",
"3. c #467249",
"4. c #477748",
"5. c #467C48",
"6. c #497C49",
"7. c #5E7342",
"8. c #6C6F45",
"9. c #6D7557",
"0. c #76785B",
"q. c #7C7F64",
"w. c #945C41",
"e. c #57833D",
"r. c #59813B",
"t. c #58803F",
"y. c #5A853D",
"u. c #5F8A3C",
"i. c #5F8C3E",
"p. c #5E8D3E",
"a. c #5F8C3F",
"s. c #618F3D",
"d. c #4C834C",
"f. c #4F854E",
"g. c #4E884D",
"h. c #578E4F",
"j. c #4D8350",
"k. c #528A51",
"l. c #538E52",
"z. c #569052",
"x. c #569152",
"c. c #589052",
"v. c #599354",
"b. c #599758",
"n. c #5B9759",
"m. c #5C9B58",
"M. c #5E9D59",
"N. c #5E9D5C",
"B. c #638F41",
"V. c #629340",
"C. c #619042",
"Z. c #629542",
"A. c #639C4A",
"S. c #6DA341",
"D. c #6CA042",
"F. c #68A34A",
"G. c #72A945",
"H. c #71AA44",
"J. c #73AA4A",
"K. c #76B24F",
"L. c #7BB74B",
"P. c #60A35E",
"I. c #62A35E",
"U. c #60A45D",
"Y. c #63A55E",
"T. c #71AF58",
"R. c #65A760",
"E. c #66A761",
"W. c #67AD62",
"Q. c #6AAB64",
"!. c #69AE64",
"~. c #68B064",
"^. c #6BB264",
"/. c #6CB566",
"(. c #74B66A",
"). c #70B869",
"_. c #73BE6B",
"`. c #74BB6D",
"'. c #75B96F",
"]. c #79BE72",
"[. c #7EC04D",
"{. c #76C36F",
"}. c #7CC273",
"|. c #7CC872",
" X c #7EC974",
".X c #84C258",
"XX c #80CD76",
"oX c #82D079",
"OX c #85D57B",
"+X c #86D27D",
"@X c #8AD97E",
"#X c #8CDC81",
"$X c #8FDB86",
"%X c #8EDC84",
"&X c #90E085",
"*X c #91E087",
"=X c #92E386",
"-X c #94E787",
";X c #95E38B",
":X c #98E18F",
">X c #99E68D",
",X c #98E98C",
"<X c #9AEC8F",
"1X c #9EF191",
/* pixels */
"                                                                                ",
"                                                                                ",
"                                                                                ",
"                                  $X>X  :X;X&X                                  ",
"                                &X,X1X%X=X,X#XOX+X                              ",
"                              '.XX=X$X|. X|.W.m.@X`.E.                          ",
"                            N.U.E.|.{.M.@XOXx.l.&XoXM.( -.                      ",
"                            n.!.|.{.).|.OX X).Q.n.f./ Q j.U.j.                  ",
"                      ;X+X+X  T.&X1X<X<X}.,X@X).) ) 1.J 1.l.) !                 ",
"                    ].@X,XY.M.!. X@X,X,X-X%XY.2.J d.m.) ! 5.) I                 ",
"                  3.R./.Y.5.! ) g.1.Y.&X{.m.6.K I ) -.T I I C                   ",
"                  *.6.l.g.2.I K P p T b.1.+.Q K Q ! T p u u y                   ",
"                  / T ! ) / I C 0 ; p ^ ^ ) F N I T C 0 6 0 T j.                ",
"                  V F b.Q.f.C 6 % o $ r p r o : 0 : 6 6 6 K -.1.&.              ",
"                  '.}.<X1X@Xc.Z e $ f 4 o $ @ % & o o % 0 ! Q F / F             ",
"                ].-X-X&X&XoX_.^.v.s $ f f f d < $ $ o ; C I P P C u             ",
"               X^.|.OXXX/.}.E.Y.v.C o $ d h f $ $ > N 1.x.6.c.2.T N             ",
"             XoX{.Y.m.v.).-X/.,.J F U f k m h o p Q 1.!./.U.#X{.W.-.            ",
"          I.)./.|.XX{.x.f.^.).6.D ) ).@.n w.c $ C *.) U.b.c.^.W.d.I             ",
"          4.~./.^.Y.m.^.Y.Q.m.2.C ^ @X@X7.o.m $ 0 C F h.M./.W.v.) I Y           ",
"        R ! 2.x.g.*.) U.b.m.2.N F *.(.oX2.H k $ ; ; e A M.{._.!.6.! F           ",
"          G I f.m.l.^ I P &.D 6 p P I Q ! Z f k < : < 6 2.b.d.) J F q           ",
"            C T T T F N 0 0 * * $ < * > s 4 c X.h d 1 * V C 0 8 7 y 7           ",
"            & q 0 0 u       < 2 4 $ $ 2 f c X.v 2 o o % & &                     ",
"                  y 7         - % X $ d h c c $ O 7 7 7                         ",
"                                  1 @ h h d .                                   ",
"                                  , 2 k c 3 1                                   ",
"                                  3 k m M 3 2                                   ",
"                                  3 m n m k 1                                   ",
"                                  x M X.n k 3                                   ",
"                                l c [ | n h h         n.                        ",
"                        9.>.  b [ x | | | k h c     0.;.                        ",
"                      3.;.:.} v { b o.b o.o.x k z @.;./ -.                      ",
"                h.h.A.l.:. ._ ......o.` ..| z ' ' :.6.O.+.                      ",
"              T.F.F.K.Z.%.%.]  .' 8.' $.7.=.` %.:.' $.Z.s.s.C.                  ",
"                D.H.H.J..XH.s.Z.H.Z.p.Z.u.8.7.e.u.u.s.p.u.r.f.                  ",
"                        S.D.s.p.Z.A.K..XL.S.p.                                  ",
"                                      B.Z.                                      ",
"                                                                                ",
"                                                                                "
};
