/* XPM */
static char *b376823d14464481ab858c703192b459xUAsZT8XZCbRFqMT[] = {
/* columns rows colors chars-per-pixel */
"60 60 246 2 ",
"   c #1C1732",
".  c #2A122C",
"X  c #3D1226",
"o  c #36142A",
"O  c #281932",
"+  c #35152B",
"@  c #2C253B",
"#  c #2C283B",
"$  c #352A3B",
"%  c #342F36",
"&  c #6D121F",
"*  c #490F24",
"=  c #580F23",
"-  c #441225",
";  c #4C1124",
":  c #471829",
">  c #541224",
",  c #5C1223",
"<  c #561B29",
"1  c #631223",
"2  c #6C1223",
"3  c #6A1A24",
"4  c #741322",
"5  c #7C1322",
"6  c #791B25",
"7  c #6A0F23",
"8  c #5B272C",
"9  c #572B33",
"0  c #493835",
"q  c #5A3935",
"w  c #4D2A30",
"e  c #69252B",
"r  c #772729",
"t  c #7A332D",
"y  c #663837",
"u  c #7A3836",
"i  c #6C322E",
"p  c #5E111F",
"a  c #5C4E38",
"s  c #6A4935",
"d  c #764936",
"f  c #705739",
"g  c #5B643E",
"h  c #63683D",
"j  c #75763E",
"k  c #352D40",
"l  c #3B3746",
"z  c #2A2E40",
"x  c #463946",
"c  c #543C42",
"v  c #4C5445",
"b  c #535649",
"n  c #474852",
"m  c #4B575B",
"M  c #514C51",
"N  c #664C4A",
"B  c #795247",
"V  c #714E4D",
"C  c #596947",
"Z  c #5D7156",
"A  c #677946",
"S  c #7A7944",
"D  c #627858",
"F  c #716B4F",
"G  c #4D5D63",
"H  c #545C64",
"J  c #586769",
"K  c #566D73",
"L  c #647A77",
"P  c #716965",
"I  c #9A171F",
"U  c #801D1F",
"Y  c #B11C1F",
"T  c #B32D1E",
"R  c #831322",
"E  c #8C1422",
"W  c #8B1B23",
"Q  c #831B25",
"!  c #931422",
"~  c #941B23",
"^  c #9C1B22",
"/  c #9C1521",
"(  c #A51B21",
")  c #AD1D23",
"_  c #A31622",
"`  c #B31C21",
"'  c #B91D22",
"]  c #892826",
"[  c #942224",
"{  c #9A2827",
"}  c #87372A",
"|  c #98372A",
" . c #8A3737",
".. c #A52424",
"X. c #AA2925",
"o. c #BB2423",
"O. c #B62925",
"+. c #A8362A",
"@. c #B93828",
"#. c #C32422",
"$. c #CA2624",
"%. c #C32A25",
"&. c #CC2B25",
"*. c #D32C25",
"=. c #DC2E25",
"-. c #D22722",
";. c #C83829",
":. c #D43326",
">. c #DD3226",
",. c #D43B29",
"<. c #DB3B2A",
"1. c #D83827",
"2. c #E23C28",
"3. c #984733",
"4. c #904C34",
"5. c #B7462B",
"6. c #A75837",
"7. c #B04D31",
"8. c #99673C",
"9. c #8A753F",
"0. c #8E6E3D",
"q. c #B06E3C",
"w. c #B7481E",
"e. c #C6491F",
"r. c #C5452A",
"t. c #DD432B",
"y. c #D8482B",
"u. c #C65628",
"i. c #DB502D",
"p. c #D94D32",
"a. c #C85535",
"s. c #DA5734",
"d. c #C24932",
"f. c #E4442A",
"g. c #E34C2C",
"h. c #EA4D2B",
"j. c #E44728",
"k. c #EB532E",
"l. c #E7562E",
"z. c #E45432",
"x. c #EC5C32",
"c. c #E75933",
"v. c #F25D31",
"b. c #F05533",
"n. c #EC562F",
"m. c #D66D2D",
"M. c #DA7737",
"N. c #CF6D35",
"B. c #EB6434",
"V. c #E96738",
"C. c #F46332",
"Z. c #F46B34",
"A. c #F76835",
"S. c #E87938",
"D. c #FB7C39",
"F. c #F5773B",
"G. c #EF752C",
"H. c #865844",
"J. c #935544",
"K. c #897944",
"L. c #967945",
"P. c #8F6D50",
"I. c #A46949",
"U. c #B86848",
"Y. c #A77755",
"T. c #B2794E",
"R. c #9F6F5C",
"E. c #C9734B",
"W. c #ED7743",
"Q. c #6A8B3E",
"!. c #6C8D3F",
"~. c #6D8D42",
"^. c #6A8748",
"/. c #778947",
"(. c #6E9343",
"). c #719344",
"_. c #739B46",
"`. c #74944A",
"'. c #759C49",
"]. c #7B9D4C",
"[. c #7B944A",
"{. c #6A8755",
"}. c #7C9651",
"|. c #7F8853",
" X c #7CA44D",
".X c #7EA94E",
"XX c #77A14A",
"oX c #7FA550",
"OX c #7EA951",
"+X c #68847D",
"@X c #6E896E",
"#X c #DA8638",
"$X c #E78735",
"%X c #FA843C",
"&X c #EA963B",
"*X c #F6963A",
"=X c #FC862E",
"-X c #F9A63E",
";X c #848949",
":X c #978A47",
">X c #85994B",
",X c #899C52",
"<X c #929051",
"1X c #AF8B54",
"2X c #82A54E",
"3X c #82AC4F",
"4X c #83A551",
"5X c #83AD51",
"6X c #8AAD53",
"7X c #8DA558",
"8X c #8CB254",
"9X c #88B256",
"0X c #92B656",
"qX c #95B957",
"wX c #92B659",
"eX c #95B959",
"rX c #99BC5A",
"tX c #95AB5F",
"yX c #AF9266",
"uX c #99A864",
"iX c #B3AC6D",
"pX c #A3A15E",
"aX c #D18B52",
"sX c #F58647",
"dX c #EF9350",
"fX c #FBA944",
"gX c #FDB649",
"hX c #F0A851",
"jX c #C79868",
"kX c #D49D6A",
"lX c #CAA36D",
"zX c #D4A573",
"xX c #EEAF6D",
"cX c #EF9B60",
"vX c #FCC65A",
"bX c #FDD464",
"nX c #667D85",
"mX c #698687",
"MX c #759898",
"NX c #708C86",
"BX c #77A4A7",
"VX c #80B0AF",
"CX c #D1B484",
"ZX c #E5BF8D",
"AX c #EDCA8E",
"SX c #F4DAA1",
/* pixels */
"5X5X5X5X5X5X5X9X(.5X5X5X5X5X5X5X5X5X5X5X5X5X5X9X5X9X].'.OX5XOX5X5X5X5X5X5X5X5X5X5X5X9X5X6X6X).5X5X4X<XOX5XOX5X5X5X5X5X9X",
"5X5X5X5X9X5X5X5X~.5X5X5X5X5X5XOX5X5XOX9X5X5X5X}.}.9X'.'.5X5X5X5X5XOX5X5X5X5X5X9X9XOXOX9X5X8X(.3X4X1XS /.^.`.5X5X5X5X5X5X",
"5X5X9X5X9X5X5X9X).5X5X5X5X5XOX;X}.5X9XOX5XoX;X|.5X9X'.'.5X5X5X5X5X5X5X5X5X5X5X5X9X5X5X9X5X0X).].P.zX4./.oX5X5X5X5X5X5X5X",
"5X5X5X5XOX5XOX7X(.5X5X5X5X7XyX/.5X5XOX9XtXjXF 5X5X9X`.XX5X5X5XOX5X5X5X5X5X5X5X5XOX9X5XOX6X6X0.| , t A 4X5X5X5X5X3X5X5X9X",
"5X5X5X9X9XOX5X9X).5X5X5X7X<XK.5X5X5X5X4XzXL.OX5X5X5X_.XX5X5X5X5X5X5X5X5X5X6X5X5X5X9X4X3X<XU.3 4 o.=.K.5X5X5X5X5X5X5X5X5X",
"5X5X5X5XOXOX5X5X).5X5XoXiX1X4X5X5X5X5XlXY.>X5X5X5X8XXXXX5X.X5X5X5X5X5X5X5X5X5X3X5XOXpXU.} , ..=.>.=.q.5X4X5X5X5X5X5X5X5X",
"5X5X5X5XXX5X5X5X(.5X.XiXkX}.5X5X5X5XiXzXP.5X5X5X5X8XXXXX5X5X.X5X5X3X5X5X5X5X3X6X7XL.d.3 R &.>.>.>.>.u.2X5X5X5X5X5X5X5X.X",
"5X9X6XXX2X3X3X X(.5X5XR.P.5X5X5X5X}.jXT.>X5X5X9X5X5X.XXX3X5X.X5X3X5X3X5X5X5X3X4XU.( 1 ~ >.2.>.=.>.2.B.>X3X3X5X5X5X5X5XXX",
"5X5XXX'.3X3X2X!.).5XiXzX;X5X5X4X{.pX1XR..X.X5X5X5X5X X).3X3X3X3X3X3X3X3X5X5X3XT.O.p I =.=.=.=.2.x.D.D.1X3X3X3X3X3X3XXX.X",
".X].(.oX X2X!.!.!.>XzX1X`.'.}.P 0 zXaXI.6.d./.4X3X X/.~._. X X X X_._.XX XXXyX;.1 5 =.>.=.=.2.Z.%X%X=XN.XX X3X2X.XXX).3X",
"].(.oX4X2X6X6X/.~.|.1XP.,X<XyXw N kXaXu +.;X>X[.9.9.Q.~.>X2X5X6X6X3X6X2X,XaXp.3 , I >.2.>.>.Z.%XfXD.%XV.>X2XXX.X].XX)._.",
"eXeXrXrX0X0X0X6X;X4.H.yX<XaXH.y kXI.P.: d :XK.i.C.s.L.).qXqXqXqX0X0XqXiXdXZ.V.3 , Q =.=.=.k.%X%XD.D.%X%X:XrXrXrXrXeXqXrX",
"5X8X8X5X3X3X2X8XP.@.s.s.W.E.6 R.kXJ.T.> ( <.,.O.|  X X].5X3X3X5X9X5XOXaXC.v.<.&.1.{ ] o.>.V.D.sXD.D.D.%X1X3X3X3X3X6X9X3X",
"5X5X5X5X5X3X,X7X6.B.s.g.h.h.( 8 4.H.y 4 #.2.f.v.h.6.j ;X2X5X5X5X5X5X4XkX%Xn.$.' g.x.f.@.{ O.i.Z.D.D.D.%XaX3X3X8X3X.X.X5X",
"5X5X5X5X5X5X7XE.d.s.i.B.k.,.;.u jXB * E ' $.h.h.f.2.^ l.S.:X5X3X5X5X7X7XdXz.( , 6 ] +.s.W.x.@.{ ;.F.*XD.-X2X6X3X3X.X.X5X",
"5X5X5X5X8X5X9.Z.B.B.Z.D.k.r.^ t J.o : e r R &.2.h.>...3.q.7.2X5X5X5X5X4XpXs.E > ;...2 3 ] } 5.M.+.@.r.F.fX1X3X3X5X5X5X5X",
"5X5X5X5X8X:XS.W.g.F.F.cXr.2 O.,.r J.jXR.y R ` $.f.f.,.0..X2X3X3X5X5X5X5X<Xy.> . > O.@.I X./ E 5 4 @.u.| N.M.>X3X5X.X5X5X",
"5X4X5X5X2XT.V.i.x.Z.%X+.1 ] >.E < u  . .% a X.' ,.t.l.t.4.:X3X3X5X5X5X5X<Xi.1 ; 1 > { r.:.>.f.>.$.o.E 4 ] ..| }.5X5X5X5X",
"5X}.5X5X,Xa.i.Z.Z.B.d.u < r.c.! W | r +.R.P.a @.,.<.o.<.~ Z.T.3X5X5X5X5X,Xl.& 1 , I 6 | i.*.k.Z.k.f.f.&.^ 2 , Y.>X5X5X5X",
"5XuX4X5X].3.s.c.Z.i.i CX} V.@.( < < 6 +.W.T.iX:X%.*.l.l.3.q.i.K.5X5X5X5XtXB.& 4 , ( >...{ i.%.i.A.D.A.k.2.:.] K.7.0.4X5X",
"5XiXOX5X4XL.W.y.a.+.& X.,.B.%.5 9 r ] | e.fXAX/.5.>.x.2.4. X>X;X5X5X5X5X7Xc.2 ^ E 5 >.2.O.{ ;.,.p.W.%XD.%XC.L.3XOX/.[.5X",
"9XCXiX5X}.aXsXV.^ I ;.h.h.l.) 4 7.I.P.e q.-XkXF q.$.>.<.W 6.2X3X.X5X5X5XtXV., ^ o.1 %.k.h.g.X.%.k.p.F.%XdXS.].3XOX5X4X5X",
"2XpXxXiXI.W.c.&.t.F.B.g.x.g.I 8 4X5XA e.M.&XhXyXt ` l.:.Q r.q.3X5X5X3X3XuXW.2 > &.E 4 g.A.C.A.t...;.,.B.D.S.].5XOX5X5X5X",
"4X[.U.kXE.V.y.2.V.x.X.] g.1.] s OX5Xq ] e.#XT.P.3.' &.) j !.0.3X3X.X3X3XuXF.r ; { o.1 @.A.A.A.A.l...X.;.z.Z.:X5XOXOX.X5X",
"XXQ.+.M.s.} i.k.<.X.8 , 3 i Q.`.XXXXr U u.&XcXCX6 ` $.[ ~.'.`._._.).(.(.<XZ.[ ; > &.I 6 v.A.v.A.b.k.#.~ X.@.3.!.(.~.(.XX",
"2Xf @.k.5.3.z.<.[ 9 6 W y }.2X3X3X!.p e.$XdXaXP.1 a.;.~ | [.6X6X6X6X5X3X:Xg.X.; ; 3 &.6 O.n.v.h.h.2.2.1.X.{ X.j '.'.'.oX",
"rX;XO.j.:.z.r. .w 1 ] ;X8XqXqXqXqXq.r w.#XhXjXH., d.) 6 r.:X0X8XqXqX8XY.s.<...; p , X.&.4 =.>.>.f.h.v.A.A.l.] ] S  X3X6X",
"5X3Xy r e y 9 9 < e ].3X3X3X5X5X3Xt } 4.#X&XZXH.E p.E h ;X9.3X3X3X6XL.s.g.Q - 1 5 4 3 ,.~ O.l.C.A.C.V.q.:X>X;Xg B >X5X5X",
"9XOX}.P.c 1 R < R A 3X5X3X3X3X3XK.r -X-XvXxXjX9 Y ;.& | 3X5X3X4X1Xa.i.y.1 X > 5 5 E 5 | &.U C.Z.N.2X3X3X3X3X3X3X].f 3X5X",
"OXOXOXA 9 6 V W t 2X3X3X3X3X3X.Xi 3.$X&X$XaXCX8 -.#.: d 3X>X;XE.i.y.g.3 . ; = R I &.&.I { [ X.q.3X3X3X3X3X3X5X5X.XXX].5X",
"9XOX5X}.c u ^ { Q.2X3X5X3X3X3X:X} -X-X-XfXZXCXr $.Y q h ;X7.@.g.&.l.^ X * ; 1 I I ) *.>...;.r XX3X3X5X3X3X5X5X5X.X9X9X.X",
"5X5X5X5XK.0.F 7X_.3X3X3X3X8X3X3.8.-XgXvXgX1X8.3.&.-.r | %.g.W.%.1.*.> - ; > 2 ] K.9.8.;.>.W { XX5X3X3X5X5X5X3X5X9X.X.X9X",
"9X9X.X9X.X9X9X9XXXOX.X5X5X.X4X} 6.m.&X#X&X&X1Xr $.*.:.<.f.>.%.%.:.3 1 - > ; , [.3X3X3XXX6.T ..9.5X3X.X5X5X.X5X5X5X.X.X9X",
".XOXOX.X9X.X.X9XXX.XOX9X.X9X;X] -X-XvX-XgXxXZXq _ =.:.g.h.f.g.f.f.1 1 X ; > g XX!.XX3X3X3X9.r 3..X5X5X5X5X5X.X5X.X9X9X.X",
"9X.X9X.X.X9X9XeX_..X.X.X3X3X4.| -XgXbXbXvXaX8.I.2 $.>.:.:.g.v.z.&.> 1 * - ; ^.).XX.X3X3X3X3XQ.i [.3X.X5X5XOX5X5X.X.X.X9X",
".X9X.X9X9X.X9XeX_.XX.XOX3X X| } M.*X-XhXm.M.jXY.; ` ' B.<.x.b.B.O.> 7 R [ ; C _..X3X3X3X3X3XXX!.a .X5X5X5X5X5X5X9X9X.X.X",
"OX9X.X9X.X9X.X9X). X3X3X3X2X .u.$XG.$X&X-XhXSXyX> #.~ p.k.C.A.x.;.+.E ' t.o.[ 6.0.Q.0.;X>X3XXX X^.^..XOXOX5X5X5X.XOX.X.X",
"9X.X9X.X9X.X9X9X(. X3X3X3X:X[ m.gX-XgXgXfXxXzXs , ( ) Z.B.C.A.b.f.@.5 ) *.<.t.~ @.< r | e 5.f 9.'.j .X5X5X5X5X4X.X9X9X.X",
".X.X9X9X.X9X9XqX!..X3X3X3X1X] m.-XgXvXvX&X6.T.V 1 R ) z.g.A.sXdXk.t.^ 4 o.l.f.$.Q - 4 I T I W I e | q.XX;X.X.X3X.X.X9X9X",
"9X.X.X.X9X.X.X9X!.3X3X3X3XK.W w.$X&X$Xm.m.aXAXN > 7 ) ;.sXW.cXv.x.f.O., E ..$.' i.| > 4 Y ( Y %.#.o.X.d 8.L.3X3X9X.X.X.X",
"OX.X3X5X5XOX5X X!. X3X3X.X>X] r.$XG.$X-X-XhXCXd + = _ y.dXsXAXk.f.,.R > ~ ' E $.f.i.6 - 5 5 ^ o.$.Y $.' ..r./.3X.X.X3X5X",
"XXXX_._.XXXX X).~.'.'.'.'.XXh | =X-XvXgX*Xu.8.lXx * o...x.2.i.f.>.$.6 > 5 ! ! f.Z.l.:., , , p 7 4 _ $.-.#.E 8 (.XXXX_.'.",
"9X5X3X5X5X5X5XXX~. X6X6X6X6X Xw G.*X-XG.e.u.dXSXH.: Q 1 ' &.:.<.f.-.6 > = 4 $.b.v.k.f.6 h 9 < > 7 5 R Y -.#.! f 5X3X4X5X",
"8X5X8X5X5X8X9XeX(.6X8X0X8XwX/., r e.i.m.G.=X=XE.yXR.9 + 1 5 { <.h.&.W * * E h.b.t.V.l.~ 2X6XQ.]./.g > 4 ` #.' R ;X0.wXwX",
"5X5X5X5X5X5X9XwX).5X5X5X5X5X8.o.& w.G.G.=XG.u.w.E.I.1Xc @ u ,.v.f.,.) X : $.g.h.Z.p.>.R s L.(.4X5X5X).9 R ` #.' 3 +.[.5X",
"5X5X5X5X5X5X5XwX(.4X5X5X5X5Xq.j.Y p ] X.T @.j.j.<.] +. .3 U.y.W.b.>.%.; 1 c.W.cXk.B.%.5 A 0X(.3X5XOX5X].9 ~ $.#.! E C 5X",
"5X5X5X5X5X5X5XwX!.5X4X5X5X5X:Xv.:.E & - } @.;.@.{ [ X.6 W I.g.x.n.$.~ - 4 E.cXdX<.1.` , r I.Q.5X5X5X5X5X].e #.-.` 7 8 6X",
"5X5X5X9X5X5X9XwX!.4X5X5X5X5X6X7.*.Y & ; - X o , 3 3 , 4 5 H.B.h.>.%.E X 1 z.b.s.-.%.R > p r } A .X5X5X5XOX/.X.=.$.4 +.5X",
"5X5X9X.X9X.X9XwX!..X5X5X5X5X5X}.| ! 7 > 0 > ; > * > - + . X E.z.h.( 7 X * ;.l.cX) ` 5 * 7 - q `.3X5X5X5X5XOX| >.$.4 +.5X",
"5X5X5X.X.X9XOXwX!.OX5X.XOX5XoXOXS e 4 * b {.g q X - - * X X 4.dX<.E a A 0 I :.p._ ) 5 * , > 6 3.].5X5X5X5X X5.g.o.& 8 OX",
"5X.X5X9XOX.X9XwX!.OX5X5XXXf | +.d e 1 = : A .X(.O - * * * . 9 k.&.3 ].5X3Xd o.t._ O.R 7 ; 5 ~ s 2X5X5X5X.XL.t.f.( p < 5X",
"5X5X5X5X9X9X.X9X!.4XOXOXB N u 5 V : * o - % ].a + : - * X . y f.o.i 4X5X5X2Xf X.R _ E E * 1 R E e } u h 4...>.#.4 , q 5X",
".X.X.X9X.X9X.X9X~.OX.XXXN N l l P l # @ @   #   O @   O O $ U.,.r.d 3X3X5XOX`.a * > 1 R , ; 1 R ! R E 5 O./ _ ! I , C 6X",
".X9X.X.X9X.X9X9X~.5XOXNXK $ mXmXL MXH 0 @ @ # # k k k @ N 6.W.z.&.f 3X3X,XY.< R E { ] 5 2 X , R ! _ _ E I R 5 4 , 0  X3X",
".X5X.X5X.X.X.X.X~.OX{.H n k n H J L +XL G n K +XJ c Q { t.p.#.&.;.3 (..Xb   o { _ @.o.R 2 o ; = > 1 & 7 p p * * 0 '.5X3X",
"XX.X.XOX.X.X.X{.+XNXL x l mXBXmXn J J G mXMX+X+XJ M P.~ /  .E } ] . # n k $ P $ . V 5 > o $ O + - ; - ; : % 0 C XX.X.X.X",
"_._._.XX2X2X XD D D Z H n H J J H m H MXNXK m m n M N + O R.O P 0 G K nXNXJ l G G N $ l $ x @ # % A A Q.Q.!.(.(._._.(._.",
"qXqXrXrXrXqXqX0X!.).@XJ L l c x L L n M n L MXmX+Xz # n n M k n n nXL mXL G n G H l c x l l x L b 0XrXrXrXqXrXrXqXqXqXrX",
"8X8X8X5X6X2X6XqX).{.D D A C A b b C H m MXMXmXmX+Xm $ J L l l x M +XK H K BXBXL x b b b v b v C A 8X6X8X0X0XqXqXqXqXqXqX",
"6X3X3X3X2X6X3X0X).7X5X5X5X5X5X3X5XOXXX^.{.{.{.{.{.A C C v Z v b C Z C C D D {.{.`.4X5X5X5X7X`.5X5X3X3X3X5X3X5X5X5X8X5X5X"
};
