/* XPM */
static char *d2c996f2953a4a3399ef446744730214a6Wxy41v0KGFTb1u[] = {
/* columns rows colors chars-per-pixel */
"60 60 206 2 ",
"   c None",
".  c #2A142C",
"X  c #3F1227",
"o  c #38142A",
"O  c #2B1833",
"+  c #2B1D34",
"@  c #2B253A",
"#  c #431025",
"$  c #431126",
"%  c #461024",
"&  c #4D1023",
"*  c #541023",
"=  c #511326",
"-  c #561225",
";  c #5B1123",
":  c #571B26",
">  c #611123",
",  c #601224",
"<  c #631224",
"1  c #681122",
"2  c #6B1725",
"3  c #6D1A26",
"4  c #641D29",
"5  c #6A1C28",
"6  c #721422",
"7  c #791221",
"8  c #791423",
"9  c #7D1422",
"0  c #731A26",
"q  c #761825",
"w  c #781B25",
"e  c #5D202D",
"r  c #4A2A37",
"t  c #592531",
"y  c #5A2732",
"u  c #79282C",
"i  c #7C292C",
"p  c #6F3738",
"a  c #713233",
"s  c #7E453F",
"d  c #392D40",
"f  c #343042",
"g  c #3A3243",
"h  c #423645",
"j  c #403C48",
"k  c #46434F",
"l  c #55414A",
"z  c #4B4F57",
"x  c #4A5159",
"c  c #4D525A",
"v  c #4E565C",
"b  c #55565A",
"n  c #634748",
"m  c #64484C",
"M  c #704644",
"N  c #795247",
"B  c #6B5650",
"V  c #485561",
"C  c #545D63",
"Z  c #5B6A6D",
"A  c #5C6F6F",
"S  c #5E7274",
"D  c #5F7579",
"F  c #5E767B",
"G  c #667F7E",
"H  c #821523",
"J  c #8A1722",
"K  c #8F1421",
"L  c #831923",
"P  c #841A24",
"I  c #891A25",
"U  c #891E24",
"Y  c #961D23",
"T  c #9A1A22",
"R  c #991C23",
"E  c #A21C22",
"W  c #A81E23",
"Q  c #B11E22",
"!  c #842325",
"~  c #8F2125",
"^  c #83272A",
"/  c #8F2428",
"(  c #942327",
")  c #982D28",
"_  c #86362E",
"`  c #973A27",
"'  c #9F3F25",
"]  c #9F352F",
"[  c #842930",
"{  c #8F2F30",
"}  c #813936",
"|  c #943A31",
" . c #973D35",
".. c #A22224",
"X. c #A32224",
"o. c #A12424",
"O. c #AF2524",
"+. c #A12926",
"@. c #A42A27",
"#. c #A42E27",
"$. c #A82C27",
"%. c #BA2423",
"&. c #BC2725",
"*. c #BC2B25",
"=. c #A83C2C",
"-. c #B53127",
";. c #B0342A",
":. c #B53A2A",
">. c #C62623",
",. c #C52924",
"<. c #D32D24",
"1. c #C13327",
"2. c #CA3327",
"3. c #CF3627",
"4. c #C33628",
"5. c #C03829",
"6. c #C63E2D",
"7. c #CB3C28",
"8. c #DF3026",
"9. c #DF3927",
"0. c #D63928",
"q. c #D03D2B",
"w. c #DD3E28",
"e. c #BF472C",
"r. c #B6492A",
"t. c #B34130",
"y. c #A4503B",
"u. c #BF583C",
"i. c #B66536",
"p. c #D1432C",
"a. c #D84328",
"s. c #D04D2E",
"d. c #D9492D",
"f. c #DC492D",
"g. c #DE502F",
"h. c #D84E32",
"j. c #CE5331",
"k. c #CD5739",
"l. c #D65432",
"z. c #DB5732",
"x. c #DD5B34",
"c. c #E5432A",
"v. c #E5482B",
"b. c #E74F2E",
"n. c #ED532E",
"m. c #EF582F",
"M. c #E65F34",
"N. c #E65C36",
"B. c #EB5D31",
"V. c #DD6628",
"C. c #C56330",
"Z. c #D3613C",
"A. c #D67D34",
"S. c #EA6838",
"D. c #ED6C38",
"F. c #F06032",
"G. c #F56534",
"H. c #E27C31",
"J. c #F47239",
"K. c #F07A3C",
"L. c #F87B3B",
"P. c #FB7F38",
"I. c #835548",
"U. c #955040",
"Y. c #905C49",
"T. c #B85642",
"R. c #9B6B55",
"E. c #A06851",
"W. c #A26C51",
"Q. c #A77156",
"!. c #B97E57",
"~. c #B87F60",
"^. c #CF6743",
"/. c #D76242",
"(. c #D26E4C",
"). c #C77648",
"_. c #E16F42",
"`. c #EE7B4B",
"'. c #F37E40",
"]. c #E98636",
"[. c #E08C3A",
"{. c #FB8C3D",
"}. c #A98463",
"|. c #B98A65",
" X c #DB9147",
".X c #C3875B",
"XX c #EF8E43",
"oX c #E7844D",
"OX c #EC8748",
"+X c #F19D40",
"@X c #EAA34C",
"#X c #F8A640",
"$X c #FAB149",
"%X c #EEAF5C",
"&X c #CA9666",
"*X c #DC9462",
"=X c #D29D6A",
"-X c #E69F60",
";X c #D3A06F",
":X c #CFA272",
">X c #D5A070",
",X c #DFAD74",
"<X c #FDC154",
"1X c #688689",
"2X c #6D8988",
"3X c #E0BC8D",
/* pixels */
"                                                                                                                        ",
"                                                                                                                        ",
"                                                                                                                        ",
"                                                                                                                        ",
"                                                                                                                        ",
"                                                                                                                        ",
"                                                                                                                        ",
"                                                                                                                        ",
"                                                                                                                        ",
"                                                                                        ~.]                             ",
"                                              ;XR.                                    u _                               ",
"                                    R.        ~.                                   .! O.<.                              ",
"                                  >X        =X                                k.! Y <.8.8.q.                            ",
"                                |.E.      |.!.                              #.9 O.9.8.8.v.N.                            ",
"                                =X      B &XQ.                            6.6 W 8.8.8.m.L.'.                            ",
"                              |.Q.    n I.&XU.5.                        /.6 9 <.9.8.m.{.{.P.z.                          ",
"                              U.Q.^.W.s .XW.y ( ] p.h.              *X'.x.L 9 >.8.v.L.{.P.P.D.                          ",
"                            u.l.g.N.:.} E.Y.3 ,.w.p.5.              OXG.0.2.p.:.-.7.S.P.P.P.OX                          ",
"                          ^.j.x.B.b.2.} Y.y 7 %.w.n.c...s.z.        ;XJ.O.J +.e.j.j.e.e.S.P.{.                          ",
"                          S.B.G.L.l.W ) s p s w E 9.v.,.;.z.          /.L 4 $.L L ) =.=.:.j.].oX                        ",
"                        /.D.F.L.Z.! O.O.p U.s y R >.w.v.5.            k.6 % 0 $.*.>.*.O.o.) ) r.                        ",
"                        j.B.G.x.U.i l.E w i | W.M &.0.0.2.4.^.        k.L ; 7 U :.0.b.m.v.0.O.J i T.                    ",
"                        t.N.S.) Y.e.g.K = w =.).=XT.,.v.d.] q.        (.~ 7 P <.O.:.7.g.L.J.m.a./                       ",
"                  3X    OXS.-.X.7.b.p.H {  ._ A.%XE.&.9.3./           (.! E P *.v.7.-.0.N.'.{.K.                        ",
"                  >X>X(.S.a.d.N.g.n.1.2     #.H.@XQ.X.0.,.X.q.        oX! L W J m.G.B.7.1.p.J.K.                        ",
"                  =.).Z.j.w.B.:.u -.X.      ! C. XQ.@.>.X.            oX) * O.P p.G.G.G.p.O.1.d.                        ",
"                  / g.r.r.v.@.4 w -       0 ' ].@XW.~ 7.R             /.$.$ w O.! n.m.n.v.<.-.+.(                       ",
"                  ^ 1.1.e.| y 5           u r.[.-XI.~ -.P 5.        u.d.~ * > +.E %.9.v.n.n.F.s.U 0                     ",
"                    a p 4 y ,             ' A.@X,Xs O.o.          k.p.! & 6 9 w -.o.n.G.D.                              ",
"                      y i i 0           a C.+X@X&X} >.w ^     (.l.f.w $ ; L Q %.+.+.4.                                  ",
"                      a [ (             i.+X#X%X:X| >.P   ;.e.f.w.+.X & 1 R X.4.>.$.(                                   ",
"                                      ( i.+X@X XW.| <.*.4.w.p.2.*.> $ & ,       q.O.X.                                  ",
"                                      ` [.+X$X$X,X} %.9.v.c.v.v.@.= % & $           P                                   ",
"                                      ' +X<X<X@X).Y.J <.0.w.n.b.J ; ; &               e                                 ",
"                                    ^ ' H.].].XX,X}.9 Q d.n.G.b.) 7 O.$.2                                               ",
"                                     .C.#X$X<X$X:XN 9 E B.F.J.N.a.Y Q 9.q.$.5 u U ( ^                                   ",
"                                    t.r.#X$X@X[..XN 1 T d.G.L.J.b.#.9 4.w.%.i < T W E R #.;.                            ",
"                                    / :.].H.[.{.,XN & K d.XX-XS.c.X.1 E W 2.f.3 1 K W >.%.Q X.t.                        ",
"                                      ` {.$X$XH.i.}.r J -.b.x.v.<.L ; J E b.B.1., ; 1 9 T >.>.E 0                       ",
"                                      : r.H.V.V.].:XY.y > E %.w.9.Y % 1 2.n.B.f.0   e - < 7 Q >.R                       ",
"                                      R ! l.J.P.V.C..XY.r - :.n.c.W X L v.m.N.p.P           8 Q %.I (                   ",
"                                      g.T w ' e.a.a.:.=.i a l.F.c.%.& =.`.`.b.1.<             8 ,.Q H                   ",
"                                      h.>.9 & 3 ! ( ! J H } Z.n.0.T $ :.`.N.<.T ; P             ,.<.9 w                 ",
"                                        #.9 = $ $ & & $ $ $ y.F.2.6 $ ) b.l.Q 7 * * ;           &.<.J /                 ",
"                                          3 =     $ o $ % $ p S.O.-   0 3.p.W P * > 8           6.3.7 ;                 ",
"                                  e u R 5 * & $     o $ & o y d.T       ( *.T K 1 > J q       ;.9.O.> $                 ",
"                                  n l l b g + + . @ + + + + U.f.X.        , 1 6 7 & 1 J J H R W W K ,                   ",
"                                D z k S 2XG z g g k g r y y.x.f.X.    M y I o.Y 7 & - 7 J K J 9 1 ; $                   ",
"                            1XD c k S S b S S S G G C p +.:.o.$.3 O f @ l y u ~ , o o $ & = = $ .                       ",
"                            A D c z Z Z C C G G S S z n X m r m k C F Z k z z r g g g @                                 ",
"                              V v v j j Z c z D 2XG Z g z b g g Z G S D D C k h h h j v                                 ",
"                                            V 1XA A S f x v g g c x x D 1XV                                             ",
"                                                                                                                        ",
"                                                                                                                        ",
"                                                                                                                        ",
"                                                                                                                        ",
"                                                                                                                        ",
"                                                                                                                        ",
"                                                                                                                        ",
"                                                                                                                        "
};
