/* XPM */
static char *e874f0723f224b3aa5bfe44e24c69079pVeeIV4QLMekmxXq[] = {
/* columns rows colors chars-per-pixel */
"60 60 232 2 ",
"   c None",
".  c #19213A",
"X  c #1F213B",
"o  c #1F263E",
"O  c #1B283E",
"+  c #23233C",
"@  c #28273E",
"#  c #232F3F",
"$  c #302A3C",
"%  c #362D3D",
"&  c #2F3B3F",
"*  c #32343F",
"=  c #41333E",
"-  c #454B3F",
";  c #162B42",
":  c #1E2948",
">  c #1F3044",
",  c #183248",
"<  c #1A3E50",
"1  c #232541",
"2  c #202A41",
"3  c #272943",
"4  c #242C44",
"5  c #292F42",
"6  c #2F2C42",
"7  c #292A47",
"8  c #2B2E49",
"9  c #2F2F4A",
"0  c #332D43",
"q  c #362F45",
"w  c #273440",
"e  c #223146",
"r  c #2A3040",
"t  c #2E3343",
"y  c #2A3044",
"u  c #2D3044",
"i  c #2A3840",
"p  c #2D3A47",
"a  c #243348",
"s  c #23334D",
"d  c #2F3348",
"f  c #28374D",
"g  c #223849",
"h  c #243A4E",
"j  c #283948",
"k  c #2A3848",
"l  c #293F4B",
"z  c #313447",
"x  c #353647",
"c  c #3A3145",
"v  c #323941",
"b  c #313E43",
"n  c #353844",
"m  c #3A3D42",
"M  c #3F3C40",
"N  c #3A3D46",
"B  c #32314C",
"V  c #36334D",
"C  c #32354F",
"Z  c #39364B",
"A  c #313A48",
"S  c #35394F",
"D  c #3C3F4A",
"F  c #3F3E4A",
"G  c #3A384F",
"H  c #383E4D",
"J  c #253F51",
"K  c #3D3851",
"L  c #3A3E53",
"P  c #3F3C52",
"I  c #453546",
"U  c #4F3A45",
"Y  c #4E334F",
"T  c #44394C",
"R  c #443E51",
"E  c #443F56",
"W  c #5C3756",
"Q  c #5E3954",
"!  c #533B58",
"~  c #633E43",
"^  c #673A57",
"/  c #364040",
"(  c #394441",
")  c #3D4740",
"_  c #33474B",
"`  c #30434D",
"'  c #3F464F",
"]  c #3D504B",
"[  c #234157",
"{  c #294752",
"}  c #2C4156",
"|  c #284654",
" . c #274957",
".. c #2D4950",
"X. c #27445B",
"o. c #2F4A5E",
"O. c #3C4356",
"+. c #37485B",
"@. c #264D62",
"#. c #2E5064",
"$. c #2D576A",
"%. c #305C6F",
"&. c #2F6575",
"*. c #2E6C7D",
"=. c #386270",
"-. c #386777",
";. c #414446",
":. c #424446",
">. c #4C4441",
",. c #414B42",
"<. c #444B47",
"1. c #4F4D40",
"2. c #45494D",
"3. c #4B4F48",
"4. c #594147",
"5. c #564F4B",
"6. c #475042",
"7. c #4E5541",
"8. c #4F5745",
"9. c #4C5646",
"0. c #535843",
"q. c #565E46",
"w. c #5A5847",
"e. c #585B46",
"r. c #5D5C44",
"t. c #414154",
"y. c #494254",
"u. c #4D4556",
"i. c #474259",
"p. c #404458",
"a. c #4A4558",
"s. c #4B455C",
"d. c #4E485C",
"f. c #554652",
"g. c #5C475F",
"h. c #514859",
"j. c #534B5D",
"k. c #50485F",
"l. c #525058",
"z. c #58515E",
"x. c #614744",
"c. c #754242",
"v. c #7C4643",
"b. c #695645",
"n. c #664C54",
"m. c #715651",
"M. c #7B5454",
"N. c #72545B",
"B. c #566149",
"V. c #576451",
"C. c #646446",
"Z. c #6A6A47",
"A. c #696249",
"S. c #6E6248",
"D. c #74674A",
"F. c #746F4A",
"G. c #776D4D",
"H. c #79754E",
"J. c #7E754C",
"K. c #544C61",
"L. c #585062",
"P. c #5C5362",
"I. c #5E5664",
"U. c #5E5767",
"Y. c #774661",
"T. c #7E4065",
"R. c #625763",
"E. c #675B66",
"W. c #635B68",
"Q. c #695F6A",
"!. c #7A5D60",
"~. c #4A6D7A",
"^. c #5D7A78",
"/. c #6E6068",
"(. c #6F636B",
"). c #74666D",
"_. c #78696F",
"`. c #706671",
"'. c #7D6E72",
"]. c #99463F",
"[. c #8E4841",
"{. c #8A4A48",
"}. c #895A4F",
"|. c #975D4E",
" X c #A25042",
".X c #B65942",
"XX c #806F4B",
"oX c #8A754E",
"OX c #867B4F",
"+X c #8B784F",
"@X c #947E4F",
"#X c #9A7F4F",
"$X c #84625F",
"%X c #B66A4B",
"&X c #824566",
"*X c #994E6E",
"=X c #857273",
"-X c #907A78",
";X c #C86D4A",
":X c #CF6E4A",
">X c #DA7D50",
",X c #E89A5C",
"<X c #F3AF69",
"1X c #327685",
"2X c #3A7180",
"3X c #3C7D8B",
"4X c #557C85",
"5X c #3D8693",
"6X c #40909C",
"7X c #5C9798",
"8X c #4697A3",
"9X c #479EAA",
"0X c #4DA0A9",
"qX c #4BA7B2",
"wX c #52A5B1",
"eX c #52B1BB",
"rX c #52B9C2",
"tX c #64BEC3",
"yX c #74BBC2",
"uX c #56C0C7",
"iX c #59C6CD",
"pX c #62D2D7",
"aX c #7CD1D4",
"sX c #6BDDE1",
"dX c #74E6E8",
"fX c #85C4CA",
"gX c #82EAEB",
"hX c #92E1E4",
"jX c #84F1F2",
"kX c #8FF7F7",
"lX c #99F0F2",
"zX c #A4FCFC",
/* pixels */
"                                                                                                                        ",
"                                                                                                                        ",
"                                                        XXoX+XD.                                                        ",
"                            XXOXA.D.A.w.D.XX  #X#X  w.+X@XoXOXF.+X    +X#XD.G.#XA.A.D.S.H.w.                            ",
"                          +XOX+XJ.F.F.C.b.C.F.F.F.7.F.@XJ.F.r.6.- B.Z.Z.S.S.OXJ.OXJ.Z.C.C.9...                          ",
"                        +XOXZ.Z.0.B.B.6.( 6.B.b.r.Z.C.C.5.5.l.D / ) - - - - 6.0.Z.C.0.,.) ( _ ..                        ",
"                      +XJ.Z.0.,.- 6.- ( & / 6.,.) ) ) 5.l.Q.'.E.l.( & ) - / & ( 0.7.( i & b ` { |                       ",
"                  w.G.F.Z.B.:.( - - & i # & / & & & T )._.-X=X'.E.O.m ,.- 6.( & ( ) ,.b & p l {  .j                     ",
"              G.J.F.Z.Z.0.8.;.i ) b # w & & * c & p P.=X-X-X=X(.).j.R.l.- b.- - w w ( & # k _ l J {  . ...              ",
"              Z.C.C.Z.C.0.<.u.x.:.i # i # * I c t.l.(.=X-X=X_.Q.Q.E._./.3.- - / b # b ;.4.Z H k > h h J  .p             ",
"            w.q.7.7.7.6.- = m.|.4.& w i r 0 0 R z.).'.'.=X)._.E.P.Q.'.(.s.c I * j # b m.|.U P ' > > > g | z             ",
"            D 9.7.) / M - |.%X.X[.~ * # 0 c V j.E._.'.'.(.).(.z.W.'.).P.j.E T c 4 c }.%X.X[.~ h.C > > g g A             ",
"            p ;.) & & = 4.;X,X,X>X[.= r c T E I.W.(.).E.z.W.h.y.U.).W.j.j.j.n.c 4 4.;X,X,X:X Xf.S 4 O > > j             ",
"              v / M I % ~ ;X,X<X>X].= Z u.I u.E.h.h.u.T Z R.h.Z I y.E u.Q.n.4.y.x ~ ;X,X<X>X XU B 4 O 2 4 r             ",
"              v x I = % x..X:X;X X[.= E K q c R T y.R.P.P.W.I.P.R.P.R y.f.I V i.u.x..X:X:X.X[.= 3 1 . 2 a               ",
"              5 ;.x.U % 4. X X{.c.~ T G V K B h.Q.U.Q.I.i.j.d.a.I.W.P.Q.j.Z E R h.n. X X{.v.v.$ o X O s a               ",
"              r r.XXD.= T N.M.n.U T V 9 9 K d.W.W.E d 4 X X X o 5 d E (.(.d.s.K E j.N.M.n.U T + o > g h x               ",
"              z S.D.F.- c R.E.j.K V 9 G V K.Q.P.t . O ; . O o # ) & 2 Z R.W.j.h.P.y.R.Q.I.K G o 4 g g h j               ",
"              <.b.- - - u.'.).P.y.K 9 V E s.s.9 X + + ; ; ; , > v * : 3 Z d.L.R.y.u.'.).R.a.K 3 # # 2 g `               ",
"              w.- - I & ).'.).E.z.d.K 7 G K.V X 3 1 O ; ; , , , , r @ + + R Q.i.R _.'.).E.P.s.V X + o > f               ",
"              Z.r.% = % u.E.).P.i.K 9 8 K k.6 + > ; ; , , < < < < x k , O Z W.K.i.I.E.Q.z.u.K 7 X + X O J `             ",
"              0.- = % $ R /.).Q.s.K 7 B K i.9 @ 5 , , < < @.@.$.@.{ D < ; t.`.I.j.j.Q.'.Q.d.K 1 X X X 4 g               ",
"              n & = $ + 0 j.j.u.K B 3 9 B V 7 O c g < [ %.$.3XfX7X| ;.< , R j.d.a.G P.j.s.G B X . + 3 e j               ",
"                * * = + R ).E.R.P.s.8 7 7 1 X 3 c h [ -.fXyXlXzXhX~.F U p r A L G u._.E.R.h.d.1 . @ 4 a                 ",
"                  m U $ z.).z.j.k.k.V 9 K 9 @ q t < | 4XlXhXlXzXyX%. .l.;./ l./.j.U._.z.j.i.s.9 + 0 f                   ",
"                  n U % T U.E V s.P 7 7 9 8 3 } X.-.~.7XlXlXlXzXyX*.3XfXl.I z.d.E E U.h.9 V G 1 + 6 a                   ",
"                <.;.c $ ' R.z.h.K 9 1 7 7 7 > =.4X4XfXkXkXjXgXzXkXfXhXfXb.,.z.s.E Z R.z.d.Z 9 1 + @ r p                 ",
"                ` N 0 @ D _.'.n.P V 1 B B 4 g { ~.aXgXkXkXgXgXkXkXgXgX=Xb.- z./.K.R ).'.n.G V 1 + @ y                   ",
"                  A m * D (.=Xm.P V 1 7 9 8 g | +.yXdXgXjXdXdXkXjXdXdX7Xb.- l.P.E G Q.'.m.R 9 > 4 2 r                   ",
"                  p 9.,.2._.=XN.E V 1 7 B 8 > 5 T eXdXdXjXdXdXjXsXsXdXuXM.- z.I.y.R (.'.m.R V 3 g | a                   ",
"                  v ,.( ' (.=XM.R V 1 8 C d 6 c ~.tXsXpXdXsXdXdXiXpXpX^.x.= l.Q.d.K Q.`.M.G V : > h e                   ",
"                z - B.,.' (.$X}.U V 1 8 C 8 @ O.tXpXsXiXsXsXpXdXiXpXrXV.>.- h.W.s.R Q.$X}.U V > g J h A                 ",
"                ^ & 9.& H (.|.|.4.V 1 9 C s J J 0XpXpXiXpXiXiXpXrXiX7XV.0.,.l.W.h.R E.|.|.4.B > > h d T.                ",
"                ;.9.,.w S Q.|.v.U B 1 9 C 8 , J 9XiXpXrXiXrXiXiXrXiX7X9.6./ l.W.j.P W.}.v.U 9 X O g l A                 ",
"                3.0.6.& S Q.}.c.I B 1 9 C 8 ; s 6XrXiXrXrXrXrXrXeXeXwX] * * h.W.d.G E.}.c.I 9 > > g J `                 ",
"              e.q.9.( w S W.M.c.I B 1 B C 8 . : 1XqXeXrXrXrXrXrXwX8X9X2XZ * u.Q.K.G U.M.c.I 9 X O g J { |               ",
"            B.6.,.,.& o x W.E.4.K d 1 8 B 7 o s #.8XqXeXeXeXeXeX0X5X8X2XC w u.P.d.K I.E.4.V 9 1 . > g g g |             ",
"          8.q.m & / # + x W.`.h.K V 1 8 C 8 : @.2X8X8XqXqXqXqXqX8X3X5X=._ w d.U.d.Z U.`.h.K B + X O > 2 2 {             ",
"          8.) v * & $ + d W.`.U.E V 1 8 C 7 : @.4X6X5X6X9X9X9X9X5X2X3X#.l w s.U.i.G I.`.U.E B X X o O o O g p           ",
"            ) M = % $ O d W.`.U.E V 1 7 B 7 : X.%.*.-.3X8X8X8X8X2X-.=.%.o.@ a.I.s.V I.`.U.E B o . @ o 1 o e             ",
"          D v = / $ $ # d W.).n.K V 1 7 C 7 : [ X.#.#.-.8X5X8X5X=.o.} $.o.c a.I.i.B R.).n.G V o O @ > > 2 t             ",
"          D W v & r $ # d W.$X[.I V 1 7 8 9 : @.%.%.%.-.5X5X5X5X=.o.} } #.T y.d.P B P.).].I V o O @ 1 > 5 !             ",
"            Q Y d # $ . R '.!.v.R i.3 1 7 3 : X.%.%.$.*.5X5X5X5X=.o.#.#.+.c t.a.G P ).N.v.T R 1 . @ > 3 q x             ",
"            m *X^ 3 % . z._.E.f.K s.9 8 B 4 : X.$.$.@.&.3X5X3X3X%.} { o.+.c y.E.d.z.(.U.f.P s.r . $ X W &X5             ",
"            r ^ ^ q % @ R.(.Q.W.P.K.P t 8 1 : [ @.X.o.&.1X1X1X1X%.} h #.o.q R j.2.P.Q.E.U.L.L.K X @ q W Q c T.          ",
"              q c Y % c (.W.W.W.W.P.t.4 2 4 : [ [ s X.$.1X1X1X1X$.} h #.} c H ;.;.U.Q.U.U.U.L.t.+ + 0 0 3 6 z           ",
"              c % 0 % h.W.K.j.s.E d.a.B O > s s [ [ J o.*.*.*.*.#.} [ @.} _ _ 2.u.z.j.s.i.E P E V + : 3 6 x             ",
"            <.( = % I (.U.L.K.K.d.d.K.E O g O.h s h J #.*.*.*.*.@.} } X.{ ] ] ] W.P.j.k.d.s.i.k.y.@ + $ t               ",
"            3.;.;.>.f.U.L.P.P.L.L.i.d.K ; > &XL [ [ [ @.&.*.*.&.X.h h h ' N.] ] z.j.K.P.K.K.d.s.i.y r d j n             ",
"            t.E K s.h.U.j.d.k.k.k.E d.E 4 2 c y h h h X.%.&.&.%.o.| J g T Y._ _ j.j.s.d.k.d.E i.i.9 8 9 V B             ",
"            p R T K s.R.K.K.K.K.K.s.k.E i w 2 2 y g j O.+.+.+.+.+.} k k w x b & j.K.d.d.s.i.i.d.i.9 7 8 B               ",
"              G B ! Y.L.d.g.g.k.k.i.k.Z O 2 @ o 0 x K O.O.O.O.O.O.L x 5 4 r @ > i.K.i.d.i.i.E s.i.8 3 7 f               ",
"              n K Z W K.s.Y.K.h.d.s.j.G . o @ 3 C L O.O.O.O.O.O.O.O.O.L C Y q o i.d.d.d.s.i.E E P 7 7 9 z               ",
"              t.^ Z Z R E Y.W s.a.2.<.d + @ 6 B S L L O.O.L O.O.O.O.O.L S T q 3 t.a.d.i.i.y.' P K 3 7 K t               ",
"          9.<.;.' Z K T :.:.D 2.;.,.) x c % y B S L L L L L L O.O.H L V S x 0 c T 2.6.2.2.;.( / p 3 3 y m <.            ",
"            A j ` n m m n * ( ( / / b ( ( b ) N H H H S S S S S L L 2._ t.( / ( ( ( / ( ( v v v m r r r n z             ",
"                          p A j t A             ' ` t.t.p.p.p.p.p.t.<.p   D         p p p                               ",
"                                                                                                                        ",
"                                                                                                                        ",
"                                                                                                                        "
};
