/* XPM */
static char *_ccae5a7b0804616bc7ee2283072e5c2aXtU9K1A15rEHYUw[] = {
/* columns rows colors chars-per-pixel */
"60 60 240 2 ",
"   c #1E2335",
".  c #1E263A",
"X  c #1E2A3C",
"o  c #1F2D35",
"O  c #23263A",
"+  c #2A273B",
"@  c #242A3C",
"#  c #2B2A3D",
"$  c #252937",
"%  c #322A3E",
"&  c #3C2C3E",
"*  c #2B343C",
"=  c #27363C",
"-  c #32383D",
";  c #462E3D",
":  c #4D323E",
">  c #5B353C",
",  c #58363E",
"<  c #653A3E",
"1  c #6B3B3C",
"2  c #65363A",
"3  c #733E3D",
"4  c #7A3A32",
"5  c #2A423F",
"6  c #37473D",
"7  c #77433D",
"8  c #6D413D",
"9  c #43583C",
"0  c #1E3245",
"q  c #1E2C42",
"w  c #232D41",
"e  c #2C2D42",
"r  c #332D42",
"t  c #3C2D42",
"y  c #233243",
"u  c #2B3246",
"i  c #243549",
"p  c #2B364B",
"a  c #2B3A4D",
"s  c #273B47",
"d  c #333345",
"f  c #323B4B",
"g  c #383847",
"h  c #263D51",
"j  c #333C51",
"k  c #432E42",
"l  c #443244",
"z  c #4B3343",
"x  c #493B49",
"c  c #543543",
"v  c #5D3A44",
"b  c #573A46",
"n  c #403D50",
"m  c #643C44",
"M  c #6B3D42",
"N  c #623742",
"B  c #743E41",
"V  c #2C4845",
"C  c #334544",
"Z  c #374748",
"A  c #3A5849",
"S  c #2A4656",
"D  c #374854",
"F  c #395659",
"G  c #2C5558",
"H  c #3E6454",
"J  c #386465",
"K  c #284D59",
"L  c #4B434D",
"P  c #464849",
"I  c #58454B",
"U  c #455846",
"Y  c #474953",
"T  c #544B52",
"R  c #564650",
"E  c #495659",
"W  c #535455",
"Q  c #5B5B5B",
"!  c #55585A",
"~  c #51544D",
"^  c #684548",
"/  c #734242",
"(  c #7B4542",
")  c #784B48",
"_  c #684950",
"`  c #695556",
"'  c #7B5252",
"]  c #765856",
"[  c #69534A",
"{  c #4A6547",
"}  c #546B45",
"|  c #55694A",
" . c #5A7646",
".. c #5D7A44",
"X. c #577749",
"o. c #476657",
"O. c #566858",
"+. c #567756",
"@. c #4A7352",
"#. c #637B48",
"$. c #677959",
"%. c #706957",
"&. c #4C6663",
"*. c #566964",
"=. c #5A7767",
"-. c #4D796D",
";. c #667368",
":. c #717166",
">. c #914939",
",. c #A55539",
"<. c #AA4933",
"1. c #CD5E34",
"2. c #C5633B",
"3. c #E4723C",
"4. c #864C44",
"5. c #895247",
"6. c #965848",
"7. c #845D56",
"8. c #925C59",
"9. c #A35C47",
"0. c #B05E45",
"q. c #9D664D",
"w. c #89765B",
"e. c #916A53",
"r. c #A7654C",
"t. c #AA7452",
"y. c #A37659",
"u. c #B17250",
"i. c #8E7365",
"p. c #A87363",
"a. c #D0764B",
"s. c #C97D71",
"d. c #6A8D3E",
"f. c #6B923E",
"g. c #578254",
"h. c #5D834A",
"j. c #6D8D43",
"k. c #6B8C4A",
"l. c #688448",
"z. c #718D49",
"x. c #6E9242",
"c. c #6E924D",
"v. c #719444",
"b. c #749B46",
"n. c #72954B",
"m. c #759C49",
"M. c #7A9E4A",
"N. c #6B8B53",
"B. c #678659",
"V. c #748659",
"C. c #6D9352",
"Z. c #769956",
"A. c #77A149",
"S. c #7CA44D",
"D. c #7DA84D",
"F. c #7CA451",
"G. c #7FA951",
"H. c #7AA45C",
"J. c #578578",
"K. c #598560",
"L. c #688966",
"P. c #748F6F",
"I. c #70A26A",
"U. c #8D8F5D",
"Y. c #AC895C",
"T. c #82AC4F",
"R. c #80A44D",
"E. c #83AD52",
"W. c #89AE54",
"Q. c #83A456",
"!. c #86B054",
"~. c #8CB255",
"^. c #8EB559",
"/. c #91B556",
"(. c #92B659",
"). c #94B95A",
"_. c #98BB5A",
"`. c #92A35D",
"'. c #918C70",
"]. c #AA8665",
"[. c #B78765",
"{. c #B7936B",
"}. c #AE9374",
"|. c #96A967",
" X c #94AD6C",
".X c #A6A768",
"XX c #B8A768",
"oX c #AEAE75",
"OX c #D78C5B",
"+X c #DA965E",
"@X c #EC9252",
"#X c #D99864",
"$X c #CA916F",
"%X c #F99D63",
"&X c #F59B61",
"*X c #E89B67",
"=X c #CDA26B",
"-X c #DAB27C",
";X c #CEA975",
":X c #FAA465",
">X c #FBA966",
",X c #FBA568",
"<X c #FBAC6A",
"1X c #F5A664",
"2X c #FCB36D",
"3X c #FAB86F",
"4X c #FBB572",
"5X c #FCBB74",
"6X c #FCBC79",
"7X c #E7A46D",
"8X c #E2AA5A",
"9X c #B9CB72",
"0X c #FCC37C",
"qX c #F4D47D",
"wX c #639384",
"eX c #A4B88F",
"rX c #DAB783",
"tX c #CBAA85",
"yX c #E5BD83",
"uX c #ECC58C",
"iX c #FDCB84",
"pX c #FAC987",
"aX c #FDD48D",
"sX c #F8D28A",
"dX c #F3CA92",
"fX c #FCD692",
"gX c #FEDA94",
"hX c #FEDD9B",
"jX c #F6D596",
"kX c #E8D099",
"lX c #FEE09E",
"zX c #FEE097",
"xX c #FCDEA5",
"cX c #FEE0A0",
"vX c #FEE4AC",
"bX c #FCE7B9",
"nX c #E7EBB4",
"mX c #D8C693",
"MX c #FCEFD1",
"NX c #FCF8EC",
/* pixels */
"E.E.E.E.E.Q.!.!.x.E.E.E.E.E.!.G.E.E.E.E.E.E.E.E.E.^.m.C.!.G.E.E.E.E.G.E.E.E.E.E.E.E.E.!.W.W.v.E.T.E.E.E.E.E.E.E.E.E.E.!.",
"E.E.E.E.E.E.!.!.x.E.E.E.G.!.E.E.E.!.E.E.E.E.E.C.{ Z.k.I.G.Z.F.G.E.W.F.S.E.E.E.E.E.W.E.E.E.~.x.E.E.T.G.!.E.E.E.E.E.E.E.E.",
"E.E.E.!.E.E.E.!.x.E.G.E.!.!.G.!.E.E.!.G.E.E.Z.V.$. X X XZ.L. X XQ.z.V.Z.Z.W.T.E.!.E.E.!.E./.x.T.T.T.E.G.E.E.T.!.E.E.E.E.",
"E.E.!.E.Q.!.E.E.v.E.E.E.G.!.!.G.E.!.E.E.E.C.@.@.N.`. X XP. XoX.X$.V..X9X XP.Z.T.Q.!.!.E.E.~.v.T.E.T.E.E.T.E.T.T.E.E.E.E.",
"!.E.E.E.!.!.G.!.x.Q.!.E.E.E.E.E.F.Z.Z.Q.C.g.Z.Q.|..X|.oX].].{.XXi.].oX`. XC.+.N.Z.H.I.Z.Z.W.v.T.E.T.E.E.E.E.E.T.E.E.E.E.",
"E.E.E.E.G.G.E.!.x.E.T.T.E.E.E.Z.J J.-.wX{ P. X|.|.V.U.].;X=X-X-X;X{.w.%.B.L.I.;.o.wXJ.J.wX=.v.T.T.E.G.E.E.E.E.E.E.E.E.E.",
"W.E.E.E.S.T.E.E.x.W.T.T.E.E.E.k.F E &.-.+.L.$.+.O.%.%.].;X0XfXuX;X$Xp.i.U.`.$.Y E o.*.E E D z.R.G.E.T.E.E.T.E.E.E.E.E.D.",
"!.E.E.S.S.T.T.M.j.E.T.G.E.E.E.+.Z E -.J.*.U Y P.P.:.eXmXkXkXlXuXyXdX;X8.` eX;.E *.J.=.W Y Y l.S.D.T.E.T.T.!.T.T.E.G.!.A.",
"!.E.A.m.T.T.R.f.j.Q.W.T.E.E.F.Y n E &.-.-.! ;.:.'.` eXtXrXkXjXdXyXyXs.p.8.i.:.;.*.*.! T n Y { S.D.G.D.T.T.T.T.T.T.E.b.D.",
"D.M.x.F.S.R.f.z.d.R.M.M.c.B.o.Y E Y Y Y E ! ! Q :._ i.}.$X7XdX7XyXs.p.8.' :.Q Q ! T E L Y O.Y O.N.b.A.A.M.S.D.D.G.S.n.D.",
"m.v.R.Q.W.W.R.z.z.d.v.R.+.*.! E -.*.E ! ! ;.;.` '._ ] 8.p.s.rX*X$Xp.p.' ] :.Q wX;.Q L n *.*.Y E *.k.S.A.R.R.A.A.A.M.v.n.",
").)._._./././.W.z.R._.Q.E T I W P.Q Y Q ! ! Q Q P._ i.eXtXs.tXtXtXtXp.' ] eXR Q Q *.Y L ! E R R &.O._._._._._._._.).)._.",
"~.~.!.T.T.E.T./.v.W.~.| j 6.[.T ! Y Y Q ! R T R :.` :.i.i.i.}.p.].'.8._ ] :.R n x T Q Y o.W ' $XR &.#.T.T.T.T.T.T.W.!.T.",
"T.T.T.E.E.E.W.~.v.W.T.Z f ) ' T L z L ! R z Q b ` _ m ' ] ' ] ] ' ' _ v _ ] R x l W W c : ~ [ 7.T D A m.T.E.E.E.E.S.G.E.",
"!.!.T.E.E.E.W./.v.W.M.Z p f P W 2 ,./ L L n Q z _ ` _ ` _ _ ] 7._ ' _ b ] _ ` R k L b 9.,.b W g Y D * N.T.E.E.E.T.D.E.T.",
"E.T.T.!.E.W.E./.v.W. .p F F Y 2 1.@X2.b z n R k R m b b m _ m M ^ ^ m z x b R x b x 2 3.a.2.b Y &.-.d +.c.W.E.E.E.E.E.E.",
"E.E.E.E.E.W.~.W.x.c.Z h F J Z <.@XqX3.4 x x k k k z k c N M m m v c c k k k k k b l >.@XdX3.>.Y F H C { h.D.T.G.!.G.G.E.",
"W.E.E.E.E.E.E.T.f.X.s p D D g 1.@X8X3.4 k t t ; c c v B 3 3 3 B / ( M v v c k t k t 0.@X<X3.,.g Y D p H U D.!.!.T.G.!.G.",
"E.E.E.E.E.~.!.W.x.X.y i j D d >.,.,.>.> t & ; z c N B B M B B ( 8 < N N c c ; ; & ; 7 ,.,.>.4 d j j u A } F.!.G.!.G.G.!.",
"E.E.E.E.E.E.!.^.x.H y p K S j j u d % % k ; k , 1 B B >.5.[.a.u.8.4./ 4.B N c ; t ; % g r r j D F S y A N.c.G.G.!.G.G.G.",
"E.E.E.W.E.E.!.~.x.@.= q h h h h u u e % & & m / ) 5.[.-XuXgXgXgXgX-X;Xe.4.( M c ; t r + r u a a j i q Z A k.G.!.G.!.G.G.",
"E.E.E.E.E.E.!.E.x.g.s X h h K 0 u u % % & , / ( p.uXhXgXgXgXgXaXgXgXgXjX;Xq.( / c t t % d d S a i i @ A h.h.G.G.!.G.G.!.",
"E.E.E.W.E.E.!.E.f.X.X 0 0 h 0 h w e r t z M 3 $XhXhXzXgX0X0X5X5X5XiXgXgXhXuX{.7 N ; t # r e S h 0 h 0 A h.x.G.G.!.!.G.!.",
"E.E.E.E.E.E.T.T.x.H X X 0 0 0 q w w r k : N [.hXhXhXgX0X3X2X2X2X<X<X0XfXzXzXgXe.m k k # + w 0 q 0 0 X 5 H A.!.!.D.D.D.T.",
"m.A.A.A.A.f.f.b.d.C @     . q w @ + t z 1 q.[.lXhXiX0X2X<X>X:X,X,X,X,X4XiXgXgXy.6.> l & + O w q X X   5 { n.S.b.f.f.b.A.",
"R.R.T.W.T.W.R.b.f.6   O     . O @ # k c 8 r.[.fX0X4X4X>X:X:X:X:X,X,X,X,X2XpXjXy.r.m : k # + . . . X   { } !.E.D.A.A.A.D.",
")./.)./././././.f.{     @   O @ # % z M >.r.=X0X2X<X2X:X:X:X:X,X,X,X,X,X,X6XgXt.,.4.c z r r #     . . | v.^.!.E.T.T.T.!.",
"T.T.T.E.T.T.W._.v.X.o   @ O @ r t & b / >.Y.dX<X2X2X2X:X:X:X2X2X,X%X,X,X,X<XiX-Xq./ m : t d r @   @ = Z.M.T.T.T.D.!.G.D.",
"E.G.E.E.E.E.!.^.x...V X @ O # d & , 6.>.pXgXpX<X2X2X:X>X0XaXaXiX6X4X<X,X:X<X5XgXgX=X6.< : d r # @ @ C #.F.E.E.E.!.D.!.!.",
"E.E.E.E.E.W.E.!.x.l.V   # O r t & / 4.[.fXhX6X>X2X<X<XfXhXcXhXhXhXhXiX4X:X:X2XiXzXuXq.( , % % # O @ 6 M.E.E.G.E.G.!.D.!.",
"E.E.E.E.E.!.E.!.v.k.A @ # @ % l l : 6.rXfXfX5X<X2X<XfXlXlXlXvXMXbXhXhXpX<X:X2X0XgXgX].5.z l t @ @ O 6 T.G.!.E.E.G.G.!.G.",
"!.E.E.E.!.!.E.~.v.c.X.* e e u z z > q.rXbXhX4X:X:XfXlXlXlXxXxXvXNXMXxXhX4X:X<X5XiXhX].6.b c t # e e } E.E.G.E.E.!.T.G.!.",
"E.!.G.!.!.G.!.!.A.D.D.6 e e f l z M r.-XMXbX4X1X<XhXhXcXlXcXcXcXvXMXMXhXsX:X:X4X0XhX].6.v b d p u @ } T.E.E.G.E.E.G.!.G.",
"E.G.G.!.E.E.!.^.A.D.T.Z u e f Z ; 7 q.rXxXxX<X:X4XxXlXlXlXlXcXcXcXvXNXMXjX<X:X2XiXhX].6.v z j f # # X.T.E.E.!.G.G.E.!.E.",
"!.G.G.!.E.!.!.).b.D.D.9 # e f l : ( q.rXgXfX<X:X<XhXcXcXcXcXcXcXcXcXMXNXaX<X:X2XaXzX].6.^ z t d # + l.G.T.E.E.E.!.G.G.E.",
"G.!.G.!.E.!.!.).b.A.G.h.@ + t c b < 8 rXgXaX4X:X<XhXlXlXcXcXcXcXcXcXcXNXfX:X:X2XaXgX].r.M l l t @ * m.!.E.E.T.E.G.!.G.E.",
"!.G.!.G.!.G.!.!.f.S.R.l.+ % z m I 2 ,.rXgXaX<X%X4XhXcXlXcXcXcXcXcXcXcXbXfX,X:X2XaXhX].r.< v c l # - S.G.E.G.G.!.!.D.!.D.",
"!.!.T.!.!.!.!.~.v.S.T.#.# e z ^ c 8 5.rXgXpX<X:X<XjXcXcXlXcXcXcXcXcXcXlXpX,X:X<XaXhX].6.> v m t r * M.G.G.!.T.E.D.!.T.G.",
"G.!.G.G.G.!.!./.f.R.T.U # e z v c , 7 rXhXpX,X:X2XpXhXhXlXlXlXhXcXcXcXcX5X:X:X5XfXhX].4.v c m g r # x.E.E.G.T.T.!.!.G.!.",
"!.D.T.!.!.G.T.~.f.T.T.U e r z v c > 4.rXgXpX,X:X>XaXhXhXlXhXgXhXcXcXlXlXpX:X:XaXhXhX].6.N z v k e w l.D.E.D.G.T.D.G.T.T.",
"E.G.T.T.G.G.E.D.d.R.R.} # % b m : / r.-XgXfX,X1X>XaXzXaX0X0X0X0XfXhXlXhX6X:X<XgXzXlXp.r./ c v k e # k.E.A.D.G.T.D.D.G.G.",
"A.m.m.b.A.F.M.v.j.m.b.#.+ # c v c ( 9.-XhXhX<X:X:X3X0X3X3X2X2X3X4XiXgXhX4X>X5XgXhXaXt.r.) b b l r * d.d.f.f.f.v.A.A.A.m.",
"~.E.T.E.E.E.T.M.j.M.W.l.+ e z c v ( 9.#XaXzX5X:X>X2X2X2X>X>X>X<X<X4X0XgX6X<X0XzXfX6Xt.9./ z c t + # Z.~.~.~.W.W.E.T.T.T.",
"E.!.W.E.E.~.^.(.v.W.Q.U w e l z c 7 6.#X5XaXiX>X2X<X>X2X2X2X2X2X<X<X<X5X4X4X0X0X4X2Xt.6.M z z d # # { ^.).).).)._._.(.).",
"E.E.E.E.E.E.E.(.v.E.k.w + + t b z M 6.+X2X3X5X2X>X2X2X2X2X2X2X2X2X<X<X<X2X<X2X2X2X2Xp.5.m z z d + # D n.T.T.T.E.E.T.E.E.",
"E.E.E.!.!.E.E.(.v.Q...O @ e t c c v 5.OX<X<X2X2X>X<X<X2X<X:X:X>X:X:X:X:X<X>X2X2X4X2Xt.5.m z l r # @ s X.!.G.!.!.E.!.G.!.",
"E.E.E.E.E.!.E.(.f.E.U q w + r z z m >.OX>X2X2X>X>X%X:X:X:X:X:X:X:X:X:X%X:X>X,X2X2X,Xr.5.m z t r # @ 0 @.T.!.!.G.E.!.E.E.",
"E.E.E.E.E.E.E.(.d.E.f + e + r k l b ( OX:X:X:X:X:X:X:X>X>X:X:X>X>X>X:X%X:X>X:X<X<X<Xt.) c l t e # * @ 6 G.G.E.E.E.G.G.!.",
"E.E.E.E.!.G.!.).d.F.* e u + r t t c / OX&X&X&X&X%X%X:X>X%X%X%X%X%X:X:X%X%X:X:X:X>X>Xt.^ , & t + + r @ C G.E.E.E.G.!.G.!.",
"E.E.E.E.G.!.!.^.k.X.O w u @ + r t k ^ a.&X&X&X&X&X%X:X>X>X2X2X2X>X:X%X%X%X%X:X%X%X8Xt.8 l - % $ e e @ = S.E.E.E.!.G.!.G.",
"E.E.E.!.!.G.G.).x.Z.@ w r + e r % z U.OX8X8X*X1X%X>X2X2X2X2X2X2X2X,X:X:X&X&X%X&X+X;Xw.` l % + $ + e @ C N.A.E.E.E.E.E.E.",
"E.E.E.E.G.G.G.G.h.+.{ C e U $.+ + O..XXX|.XXXX=X1X2X>X>X>X>X:X:X<X2X2X,X1X1X+XXXoX`.N.U.~ + : $.P # O = +.+.Z.E.E.E.E.E.",
"E.E.G.E.G.G.C.@.g.H g.+.A Z +.C U @.+.@.+.$.V.Y.+X@X+X%X&X:X>X:X%X%X>X3X+X8XY.X.+.O.B.U.Z.O.P +.A J -.D @.H @.X.=.=.B.T.",
"D.G.E.!.!.G.k.H g.+.C S G D J.J.o.F Z C Z C 6 [ e.Y.%.Y.1X2X2X>X:X%X*X#XV.~ ` Z Z A +.H.L.=.&.f D J J D +.-.G H D G S S.",
"D.T.E.G.G.G.k.@.H H o.V s p F D F &.x m 7.y.p.$X] [ [ +X>X1X%X:X1X+Xq.[ ^ :.'.` Y P P.nXeX&.D f a a V +.G I.5 L.a s V n.",
"A.D.A.G.D.A.h.H A A +.A @ s J F J F D b ^ ' ' 8.e.6.4.0.0.6.6.a.a.,.6.( [ i.%.Q Q Y ! &.! j p h p p S +.C +.V @.y @ s l.",
"b.f.b.A.R.S.v.{ - Z V V w s G G G F D d x n z v ' 7 8 4.>.2 6.9.9.>.1 2 P W L L n d F f u w J G K G 0 V 6 5 5 5 o = 5 ..",
"_._._._._._./.Z.9 5 6 A 6 = y = u = @ w e Z f g & > < 7 2 2 M 1 > > 2 > ; l r d e @ w # w . i h i i X X $ o o $ * U } M.",
"~.W.W.W.T.R.W.R.#.} } } } C - 6 6 - * * u d u - % 2 1 3 2 : 2 > ; 2 2 , & + + # @   O O @ o . . X X o = $ * $ o Z | #.Q.",
"T.W.T.T.W.T.W./.d.n.c.c.n.x...}  .#.l.n.n.v.m.k.k.l.#.#.z.l.z.#.l.l.z.k.#.#. . . . ...} } } 6 U { } } X.d...} {  .l.n.R."
};
