/* XPM */
static char *ac844ab5363046c89227e2a26629742c9e40fsYwho7l6fwn[] = {
/* columns rows colors chars-per-pixel */
"60 60 15 1 ",
"  c #519B25",
". c #4D9326",
"X c #54A025",
"o c #4F9825",
"O c #559D25",
"+ c #59A526",
"@ c #58A025",
"# c #4F8932",
"$ c #4B8D27",
"% c #529727",
"& c #548D39",
"* c #49832F",
"= c #5DAB25",
"- c #5C9537",
"; c #699B39",
/* pixels */
".  %X.%X%.+ . %.X%. .$ %. .. .$ .%Xo%+..+%%+.%+%% . X. X..X.",
"XOOOO OO X@ @O O XX oOOO@ oX@XOO @@oX@XO@X@OX++++@X++  +X+OO",
"O=%O@ OO.@+%@O%  .++%OOo  $.#.O+OXX.O=O@XO+Xo =X@X+O..@=@=X%",
"$X%.@.$O$.+o.X.. ..+o$O.$X$&&#$+.$Oo.=O%@o. o o%$ .+o. +O +.",
"X@@ O +  X $$.O@ OX@O OX@o &&&O@X@OO+++ O @o ++$**$=XX@==@X@",
" @%@+%OXoX@;;OoO+% +%O+O X$&;-$@O O% @OO+% X.o=$&&# X X++=+O",
"$@.$ .$ ..%--%o$Oo.@..Xo$ .$-#*oo$ .$+ . o$ OX=$#&$ O.%+o++.",
" o+Oo o%OO @#$ o%OXX++Oo O@XoOOoO %@ X+Oo oO+++=+@XX+= +=+ O",
"  .o@.oo% +O.O%o % ++++. X%oO  @.ooo X. @. o  XXX=+XXXXXoX+.",
"$ .$ .. .$X.$o.$ .$Xo.X..Oo.X%. .. ..O.$ ..O..X.oX =+. X..+.",
"   @O @   O @OX@% X@ @@X@OX@@++O O o  o@@O@O.@@X=++++ O@X=OO",
" +o@Xo  . + @X  o.@+%@+O O%@=@@O X+o@+%@X  Xo +%=+ XX.O=%+X%",
".Oo.@o. o$XO.@.$ ..XO.Oo #*#O%#*.%#.%$#$$$X o.+o =o.O$$=@%+.",
" @@O@ @@XX@@OO Xo X@@OO+O####&;;#&&##&&#&#.XOX==X@+$**$@=+OO",
" @%@@%  O @%@@% O% +O++@*&##&&;;&&;---&&&&%=+X=X=@O.;&%+O=X%",
"$@..oo$&-*X.. .$O.$+.. .$*#&#.O%%&-&-&##@XoOX==  X O-&$=o X.",
"oo+O.+$;;&%+Oo oO@ X+Oo $*$O.*oX.*&&#. *$o %#$ =+oO. +O+=+o ",
"o oo@O.;-&.o @ooXO @.o@o$#Oo##.. $&&%%%#%$  #&%X +.oX ++. X.",
"$Oo$Xo%#-&+..X..O..X.$ o&##$OO o%.#&#*oOX  X$#...Xo%Xo.X.$X.",
"OOX+++% %%+O+@X@ oXOo@@+$*#.o. XX%#&##O==+=X$*.++@+OXXXXXO  ",
" +%++%O .O+O@X OX.O+%@X%#%#**#XX .&-&#*#%X o$* X+XXXooX@o=X.",
"$Oo%+.$X..+o.Oo%Xo.X %@%*$###&#. O#-&*##&#. $*  %+..X$. o%+.",
" O@OOOXXOX+@X@X+O X@+OO ***##%.%+$#-&#&#%%=X.*o=X++@ X @+O@X",
" @%@@O X%O=@ @%o$%OX%@@%*#%.**%Xo+#-&&#*#+O+%#=+=+X Xoo+@=+@",
"$@..Xo.+ .@.*##*# oXXX++$.X%##**+.#&&&&&**%+*#%=. .$ ..+o%+ ",
"  +@ XXOOo X#&### **=+   X+%&&#*#*##..#&#*#**#*$.. o%O  +@o+",
"OXOO+.oo.o o*#&&***#.$+O%o%.##&##&&#$$**&#*&%&-#.@. O%O  o@ ",
"%Xo$ ..o.$ $#&#&**##%$%%%$$%$*&&&&-&#***.@%%o##**X..O.$ o. .",
"+O @OO@  OXX&###*$#$o...$$.OO*%=@&&&#.O*.XO$.#% XO O  XOO@OO",
" +%+XO  . #$*&-&$o.$$%.%$$%@@*$XX$&&$.O*%. o%%o+@O  O. @o@O%",
"$+o%@..O$*--&---$ o*$O.$o$ .*&%++%&&#*..o ..$.. .@o.$###*.@.",
"O@@ O X o#-;;-&&$%##%#.O=.$*##%+++#&##@.. X%o%oOXO@+%&;;# OX",
"o@%O@%oX.#&-;-&*#&##&&%X=+*.##X=+%#&&***.X+.o..X@+O+%#&-&%@%",
"$@.$ o$+.*#%---*&;---#o  %*.o%.XX$*#&*&#&#..$. o$ o.$#&&#. .",
"oo+O   O+oX+&#&-&&-&&$oXO+# # #$X.*&#*-&O.XO$$ +o%XOo.%%OXoX",
"o  X+oXX oOo$%%$$$*%*$@o   o#*$$X.*#&&###=o@XXX X+oo   X o@.",
"$ .$ ..X.$ ..X o ..X$$X.++$.#&**X+**&&&##*%X.%$%oXo.X..X.$ .",
"X%X+OX+Oo   OOX@  OOXX@+o#***&#*+$#*&&&&&***#**o+@X@ o O++@X",
"o++=++XX. +o@@OX .O+%@+%###&*##**#&&###&-&*&&#&*oX%Oo.O=+=XO",
" @%.%oX ..Xo.+.. ..X .O..$##&&&&&-&&#*#%#####&&&*X.$ ..++ +.",
"=@%#**=X  ++oOO@o X++OOX.**&&&&---;#.=@O.$.o.$**. OX@X+==OX+",
".=%&&#XX% =@@+OO+o +O+XO*#&&&%#&-;;&O=X@Xo.o$$%. @O +OO=+=+@",
" +*#&OXX%.+..X $X..+..X.##&$$.##-;-&.+o+ X XoX+o. o$ ..=oo o",
"Xo=+@++X@ o@Oo@@OO  @O X#&#***#&&-&&$+@+X o+@ XX . o O X=XoX",
"o X =XXX%O+% +% oooO% +%*##****$%%-#$=+o=+ XX +X @ooooO+O + ",
"$ $$ .%Xo.+o. .. .$ o.X..o..%$$X OX.+=X Xoo.o%%o$ .. ..X.$ .",
" %OOO @   .$$$o@ o   @@ O   % @OXO  .X.$X$#&&###O@X@ oX@O@@X",
" @%@O%O .O%##*o o. +o@X%  . + @ %  ..oo. %-;;;-&.+XO .O=O+X ",
"$O .@.. $.#*&%.$ $$Oo.@o.X.$X .O.$ $X    .--;;&&%+..Xo.+X%@.",
" @+ @OO  O%%%XXX  O@@ @++@X @+ O O  $ .$+*--;;;&O++XO X++OO+",
"o@O+@  X  +@++O X%O=O++OX+%.+@@X  Xo.o %X%--;;;-.=X +o =@++O",
"$@..Xo$X..+ . .$ ..+o.$*$X..+X%X.$+.+X +=O&-----$=o$+o.=O%Xo",
"Oo=+.++O@ o+ .  O@  +O%*.@+o+=+X+ ++.+o%+.&-&&-&O Xo XXX=O.X",
" XXX=X++%  oo@. X% Xoo+%OoOo@X$%O$..$oO.o o%O%O+X@oX+o Xoo@.",
" o$##%++.. .$ .. .$ .$+%  .oX.&-#&-& ++XX XXX XX$O..O.$ .$Xo",
"+O$&&#=XoO  OO O oO  @@ OXo%X$-;;;;&.=o+= ++. X.@@ O  O oOOO",
"o=%&&#OO$ +%@@  o.O+%@X%Xoo =X&-;;-&.=+@X oX.o=X@X%o . +%OOo",
"o %$-%XX..Xo.X.. ..X%.X. X.o+O%+%%@#X+XX+o +o XX.Xo. o.Xo.O.",
"+++X +=X  @@ O Ooo @@OOOOXX%== =XX  %=+O+O@X %=@ O X  O@@  O",
".@X+++XXoo+%@@%oOoo+O@X% +Xo+X++XoXX.+O@+X.X .+O@X%oX%o+%@XO"
};
