/* XPM */
static char *_82417b60104d16330ea6933754a658b__1_1686672332[] = {
/* columns rows colors chars-per-pixel */
"60 60 190 2 ",
"   c #000102",
".  c #000B00",
"X  c #01000A",
"o  c #001000",
"O  c #569527",
"+  c #5C9625",
"@  c #569926",
"#  c #5C9827",
"$  c #55952B",
"%  c #569A2D",
"&  c #5B9C2D",
"*  c #4F8F38",
"=  c #559634",
"-  c #5B9735",
";  c #569B33",
":  c #5B9D34",
">  c #53963A",
",  c #5C963B",
"<  c #569B3A",
"1  c #5B9D3B",
"2  c #619C2E",
"3  c #629C35",
"4  c #619D3B",
"5  c #689F39",
"6  c #5AA026",
"7  c #5DA12E",
"8  c #57A137",
"9  c #5DA234",
"0  c #55A13C",
"q  c #5DA23B",
"w  c #5FAC3C",
"e  c #64A42D",
"r  c #67AC2F",
"t  c #6AAA2F",
"y  c #72AF2D",
"u  c #62A435",
"i  c #69A436",
"p  c #64AA35",
"a  c #6BAB35",
"s  c #62A53C",
"d  c #6AA53D",
"f  c #65AA3C",
"g  c #6AAC3C",
"h  c #71AC36",
"j  c #73AE3B",
"k  c #6CB437",
"l  c #67B13E",
"z  c #6CB23D",
"x  c #6DB93E",
"c  c #73B135",
"v  c #78B533",
"b  c #74B936",
"n  c #7DBB34",
"m  c #73B33D",
"M  c #7BB53D",
"N  c #74BA3D",
"B  c #7ABB3D",
"V  c #7DC23D",
"C  c #579C41",
"Z  c #5B9D42",
"A  c #5B9C49",
"S  c #668E4F",
"D  c #659647",
"F  c #629C43",
"G  c #689D45",
"H  c #63954A",
"J  c #6A944D",
"K  c #669A4D",
"L  c #699D4B",
"P  c #70984F",
"I  c #658F55",
"U  c #679357",
"Y  c #6A9454",
"T  c #679B51",
"R  c #6E9A52",
"E  c #6B965A",
"W  c #6E995D",
"Q  c #719B57",
"!  c #749E5D",
"~  c #5DA343",
"^  c #5FAB42",
"/  c #5FA44A",
"(  c #63A543",
")  c #6AA544",
"_  c #65AB43",
"`  c #6AAD43",
"'  c #62A648",
"]  c #6FA74C",
"[  c #65AB4A",
"{  c #6BAD4A",
"}  c #71AE44",
"|  c #70AC49",
" . c #66B144",
".. c #6CB344",
"X. c #67BB41",
"o. c #6DBA44",
"O. c #6DB34B",
"+. c #6EBA4C",
"@. c #72B544",
"#. c #7BB644",
"$. c #74BA44",
"%. c #7BBC44",
"&. c #73B54B",
"*. c #79B64C",
"=. c #75BA4B",
"-. c #7BBC4B",
";. c #6EA554",
":. c #6BAB51",
">. c #6FAF59",
",. c #77A256",
"<. c #75AB52",
"1. c #7EAF56",
"2. c #75A45C",
"3. c #7BA35F",
"4. c #76AB59",
"5. c #7AAC5D",
"6. c #6EB552",
"7. c #6EBA53",
"8. c #74B552",
"9. c #7CB353",
"0. c #75BB52",
"q. c #7BBC53",
"w. c #74B65B",
"e. c #7CB25B",
"r. c #77BB5A",
"t. c #7BB958",
"y. c #7AA662",
"u. c #7DAB66",
"i. c #7DAC6A",
"p. c #7EB462",
"a. c #6EC040",
"s. c #74C244",
"d. c #7BC244",
"f. c #75C14C",
"g. c #7DC24C",
"h. c #7FC94E",
"j. c #77C054",
"k. c #7EC354",
"l. c #82BD3C",
"z. c #85C334",
"x. c #8EC836",
"c. c #83C33E",
"v. c #8CC63A",
"b. c #86CB3E",
"n. c #8DC93C",
"m. c #91C839",
"M. c #82BD44",
"N. c #82BD4C",
"B. c #82B453",
"V. c #83BE53",
"C. c #82B35B",
"Z. c #81AB64",
"A. c #83AE6A",
"S. c #82B463",
"D. c #88B163",
"F. c #8CBE67",
"G. c #8BB36C",
"H. c #93BE6F",
"J. c #91B671",
"K. c #92BC74",
"L. c #84C343",
"P. c #8AC544",
"I. c #85C946",
"U. c #8CCA44",
"Y. c #83C34C",
"T. c #8BC54B",
"R. c #84CA4C",
"E. c #8BCB4C",
"W. c #91C644",
"Q. c #91CA44",
"!. c #91CC4D",
"~. c #8DD04F",
"^. c #92D04B",
"/. c #83C452",
"(. c #89C752",
"). c #85CA53",
"_. c #8BCC54",
"`. c #86C459",
"'. c #89C45D",
"]. c #86CA58",
"[. c #8BCD5B",
"{. c #91CE52",
"}. c #91CD5A",
"|. c #8BD054",
" X c #8BD15A",
".X c #92D254",
"XX c #90D35C",
"oX c #8DC562",
"OX c #8BCB62",
"+X c #95C464",
/* pixels */
"      X   X X                                                                     X         X X       X               X ",
"            X         .                                           X X           X .           X           X             ",
"                                                                                                                        ",
"    .       .               .           .               .       .           .   .     .   .           . .           .   ",
". . o o o o o . . . . . . . . . o o . . . . . . . . . . . . . . . o . . . . . o . . . . . .   o o . . . . . . . . . . o ",
"E W i.i.A.u.W R E E Y Y ! J.G.P J y.u.2.U U E ! A.3.Y P A.Z.Q J D.K.3.J y.A.y.A.Z.Q E W Y Y Q G.K.Q J ,.A.2.Y Y I W u.A.",
"A A >.w.w.w._ Z , F F , ] +X'.3 u 6.8.' C Z ( ) q.| 4 ( 9.*.G 3 V.'.] , :.e.8.9.<.C D F 4 4 ( q.OXg - { e.] 1 F Z { 8.w.",
"~ < ' q _ O._ f O.+.-.=.m $.-.z ..-.$.l +.0.=.o.u f s { Y.Y.-.Y.f u s q q f _ _ { ( ` O.&.=.m =.$.$.o.&.+.o.o.$.k.@.( q ",
": q 9 : s _ _ ` o.-.=.$.$.$.$.%.=.=.o.$.o.k. X$.@ s ( { _.E.(.E.u & 7 9 : & u g { s ..=.d.#.-.$.m =.-.+.=.o.N d.].g.9 : ",
"-.=.@...*.=._ 9 ..$.$.$.$.m ..f q $.$.$.$.k p g ..&.9.*.a t M.%.m g $.-.o.@.=.&.{ q f #.N $.$...=.s w ..&.$.$.k r k z $.",
"}././.*.q.q.` 9 u =.$.$.=.&.| : 9 o.&.=.q.f ; ` q.9.-.&.+ 2 #.N.%.%./.[.Y.=.-.q.&.4 s %.$.m *.&.*.: : ` &.=.-.{ - u &.-.",
"c k #.#.&.=.` % ../.-.#.&.f ) &.&.@.#...( ( q ` -.=.&.#.j } j d &.%.&.g $.#.&.q.&.- s g.g.#.&.` q &.=.@.=.&.( ( 1 u -.#.",
"& 7 @.-.0.=.g % o.[./.-.&.% u `.].$.=.f = < q ( =.=.m $.N.-.3 : &.0.( ; ` 0.=.-.{ : p /._.d...p @ k.[.-.=._ < < < q =.=.",
"9 8 _  . . ._ q _ t.&.g ..g g -.Y.k a ..&..._ _ ` z $.@.&.=.} g O.[ ~ ~ ' _ ..f f s _ =.$.g f g a %.Y.#.g g O.O.[ _  ._ ",
"~ < C < ; 1 q _ ` { u $ i -.N.%.#.e : -._.g.$...; u -.-.&.&.%.%.q ; C ~ q ; % : u ` ` _ u ; q &.N.#.%.d & @.[.).s...q 0 ",
"/ / [ { _ _ ..*.{ u ) g a %.#.N -.u : =.d.N o.f 9 _ -.$.....N %.f { F < ' +.g p f =.{ ' { ` ( *.%.#.N.h # z Y.$...O.q ~ ",
"/ C /.[.V.%.T.E.#.2 g -.V N $.=.=.u = 6.-.e % 9 f $._.d.9 1 $.#.=.8.' < *.}.d.V L.}.V.: s q.-.#.#.=.$.` : ` $.` = 1 [ { ",
"C 1 -.N.#.#.c.E.#.& ) @.k N =.&.o.` ' { &.z z f ....-.%.p f ..O.-.-.) : &./.B b n I.V.4 4 &.#...+.=.=.f 1 _ @...` { { { ",
"1 q ` d ` d B E.@.= Z 1 q =.=.$.=.+.&.u 9 &./.T.-.} 1 s R.R.f ; L.U.f ; s f  .p M {.V.4 4 4 q X.+.X.a.a.+. .9 p R.I.%.%.",
"~ q f ` ) ` $.)...F / ~ ( ..@.=.s.o.-.s ; &.T.Y.#.*.s ( h.s.q q d.I.g w _ ^  .s g N.B.) ( q 8 O.o.X.a.o.s. .; k R.c.%.#.",
"0.&.=.q.( < q 8 [ 7.7.7.6.q ( k.h.x #.p ; ..-.#.#.} $.@.7 u { O.$.V x x a.+.[ q s : ) 8.&.&.7.w 9 d.).s.@.` % f %.$.@.=.",
"#.o.$.=.( ~ ~ 8 ' j.+.7.6.; 1 k.h.d.$.p 7 ..-.$.*.o.$.z 9 s O.{ @.o.$.$.a.+.[ Z ( 1 ( =.+.=.7.0 ; $.E.d.%.@.9 p g.$.&.+.",
"d.h.$.$.` {  . . ...w w ^ ; ; =.k %.$.$.m d.g.o._ o.` ..&.{ ( ` O.O.=.-.s.g.*.{ ` .._  .X.l ^ Z , ( ..N %.$.$.%.%.$.z g ",
"=.h.N V $.o. .O...X.l w ~ < ; 9 a $.s.g.d.%.=.@.g ` d ` =.o.f f O.O.0.g.s.#.$...z z l  . .f _ < > ( ..$.=.-.g.$.d.N k g ",
" .l d.b.b.I.B @.O.f g ..{ O. .x k s.s.9 : @.V.%.%.@.*.#.d.s. .[ { [ ` a B E.c.L.d.$.6.^ _ O... ._  .o.o.-...> { L.V -.#.",
"( p V b.b.b.c.%.} ( _ O.7.7.O.z k s.=.9 $ d T.L.M.N.N.%.d.d. .O._ f s d M U.I.U.V N +.' [ _ ..+.7. .f o.g._ > Z I.V %.-.",
"o.z L.L.T.U.P.c.N.} { ' / /  .X. .g.Y.@.s N.!.l.i #.@.$.N d.$.x %.B j @.d.L.I.U.b.L.-.&.O.~ ^ _ _ &...-.Y.%.) &.^.L.k j ",
"%.$.%.M.N.T.U.U.N.&.) Z C ~ w o.O.k.Y.m &.`..Xl.e h g j B B $.z c.c.M.%.M.l.P.P.U.U./.&.O.q 0 q s o.&.#.Y.#.@.%..XL.g a ",
"L.c.c.L.N.M.M.M.m s ( {  .O.O.s f /.(.#.@.*.%.l.n B m #.L.l.#...M.P.L.L.v.c.c.l.B M.-.s f _ _ ....g u =.E.B M B M.B L.%.",
"P.Q.Q.n.l.j h M g : s +...-.&.q 9 -.(.Y.-.} j l.Q.c.N %.U.I.&.` T.E.T.U.n.v.l.y y B &.- q ....=.$.p ; &.|.I.%.%.h M T.T.",
"m.m.v.v.M.%.l.L...; ^ O.x s.-.u 9 #.Y.@.h M l.z.L.L.M.#.L.d.g s $.M N.T.U.W.l.l.V d.0.; q o.z $.g.f : ` L.M } } M.l.N.N.",
"m.v.v.U.{._.U.R.+.; f -.g. X`.9 : o.-.e + M !.c.B N.}.Y.%.k & : e h M.T.W.W.U.^.U.R.k.; q -.$.)._.f ; ` -.a : ) .XT.M M.",
"z.n.n $.-.@.L.E.%.9 q ..O.0.8.) ) @.g c c N L.%.$.f.=.-.$.m m h v n l.W.M.l.#.B.M E.%.p s _ &.o.=.f g ` &.} j @.N.Y.#.B ",
"n.P.p : 1 % c E.-.f f q < ; q 9.V.3 # -._.L.$.@.=._ ; q &.V.].E.U.W.W.!.j + 3 $ h _.g.g _ q = q @ &./.s $ @._.Y.#.&.$.$.",
"T.N.i 4 ) d N Y.&._ ' ~ q ~ f =.*.g i #._.B z ..&._ 9 f ..O.-.%.T.T.M.T.#.3 ( i g Y.g.p f ' Z ( 4 j M.m e M E.M.j @.&...",
"N.B.5 3 | -.%.g.{ - _ j.6.q 9 o.#.-.#.(.[.j O u 9 q ..o.~ - 1 9 j M.%.%.) - ` k.%.d.$.9 8 w.w./ 1 | #.%.M L.E.d.& & : : ",
"#.#.h i @.#.$.$.O.< ( 8. .q 9 x N %.#.N./.} : s 9 _ o. .~ q 0 : &.} -.%.g u a $.N $.o.9 9 O.6.~ ~ 8.=.N d.B %.%.e u u s ",
"#.N./.Y.L.B N $.6.:.' 1 _ =.$.x $.%.-.d 2 | /.q.&.-.0.+.7.O.~ q d ; m d.%./.h.x N $.$._ ' _ 8 O.7.0...@.d.a & g -.-.q.-.",
"+.o.Y.E.%.b x +.[ [ { 1 s $.$.$.$.$.#.a : | -.@.j.=.O.O.0.=.q 1 : 9 k N V I.d.$.=.+.&.[ ' 0 ; f.0.+...=.g.g : ( *.-.#.*.",
"q 8 k $.N N f 8 ~ < 4 3 i _.).7 7 $.N u 4 4 3 g -...q ( =.$.; 9 q.].g 6 b V $.$.O.: q q q q q f.h.l 9 g -...< F u d O.*.",
"~ q &.-.=.&.[ C ~ < u 3 i (./.p 9 o.$.p q : & g -.{ - s $.N u 3 q.OX{ % @.-.O.9.{ ( q : 1 ; p g.R.a 7 g #.` u 1 & s &.8.",
"~ < u s s _ [ ' 6.&.&.m #.%.$. .O.O.o.o.&.q./.z u f s ` (.R.#./.` s 1 s 1 u _ { ) ( { *.-.=.@.$.B #.m $.-.@...0.k.=.( ~ ",
"< ; 3 : s { [ [  .j.f.d.$.@.=.=.+.+.+.=.#.k.].&.@ p a ..).R.{.(.i ; 1 1 < : s { [ ( ] 0.%.d.$.$.$.%.@.&.$.$.m g.|.k.: ~ ",
"q.-.@.&.*.=.[ 1 f $.N s.$.o.+.q w +.+.+.=.z f ..&...$.@.i g M.%.} &.#.*.&.&.=.=.| ( ' *.$.N #.N &.s s o.=.$.x k p ..` w.",
"_.(.Y.M $.g.{ ; k N x o.o...O.8 7 l 0.&.=.` % ` k.-.$.$.& 2 %.M.#.N R.|.g.s.%.%.O.q ( 8.$.$.$.{ &.q ;  .o.$.$.o.@ 9 0.q.",
"g j N @.=.-.{ % p I.d.o.$.p f &.@.@.q.f s p - ` &.-.x $.} } d j k $.z k N x N $.&.: q k.k.$.@.g s &.&.+.=.k w p 8 p -.@.",
"; q ..=.=.+.) : c R.R.$.z 9 u `.[.-.#.d ; : 1 g =.$.$.$.V.-.3 : $.t.' = ` -.$.=.g 9 p R.].-.o.u & N._.Y.=._ : % < w =.$.",
"s q _ .._ _ { ( N $.$.f g g } B.Y.g g } &.&.( _ ..f s.N $.#.} ` { ' ( Z _ _ ` .._ 9 p $.$.f ` ` g M Y.$.a ` &...[ [ p l ",
"1 q ; ; ; 1 q { ( g _ % : -.N.$.#.: : -._.g.q.{ ; u @.N N $.q.t.~ C C Z < ; < 1 4 { f g ` ; < *.M.M N.} O m XXY.t.O.w ; ",
"0 1 { O._ ` &.&...3 f ` g $.#.-.-.( : $.h.b g { u g d.N m z =.&.:.[ ~ q _ &.{ s g *.&.u s ) ] &.%.N &.{ : g Y.$.g f ~ _ ",
"1 s t.[./.%.Y.(.-.% _ =.-.-.m N =.q % ..%.u = s s @.|.Y.: ; =.=.=.=.s 7 #.].(.%.N.[.V.& i q.-.%.$.$.=.f % f $.$.: q _ ` ",
"Z ~ 0./.%.c d._.$.% ` &.&.%.M $.&._ s ..o.g _ ` o...-.-.( f o.g o.%.a & @./.%.N %.(.g.u u @.j =.z $.=. .w f ..` f g g } ",
"C ~ _ _ p p $.[.&.: q 1 s *.-.$.@.=.-.s , 8._.d.%.@.< ( ].R.u : g.R.k % 9 g p p @.].k.9 : 9 : =.f.X.x o.=.f 9 _ ].).-.%.",
"/ / _ _ z f o.k.O.q q 8 _ O...$.=.$.=.s = 6._.V %.&.1 ' h.d.9 u h./.z 9 f ..a f o.k.8.( s q q O.+.+.V x s._ ; ..).L.%.B ",
"+.+.&.=.f q 9 u _ +.0.&...9 s k.).$.@.a : &.%.%.v N &.8.: u k $.o.@.$.x $.&._ 9 ; q f +.&.+.+.q 8 $.E.d.$.@.1 ( -.#.v M ",
"8.8.e.p.K H K H ;.p.w.e.5.F G oXoXC.B.L D 2.e.B.1.B.5.5.H R <.<.e.e.e.e.e.e.2.H T H K p.e.4.S.L D C.+XB.1.,.H Q S.C.9.B.",
". . .     .   . . . .   .   .     . . .   . . .   .   .   . .     .   . . .   .   . . . .   .   .   . .   .     . . . . ",
"                                                    X         X             X X X                             X X       ",
"X                 X                                           X   X         X       X                           X       ",
"X X X                 X   X X                               X         X X X                                             "
};
