/* XPM */
static char *af08a39feb35421184873b217709526aNlPuZXmshiUFB9GP[] = {
/* columns rows colors chars-per-pixel */
"60 60 158 2 ",
"   c #6A8F3E",
".  c #6B913E",
"X  c #6D8E43",
"o  c #708E45",
"O  c #6E9242",
"+  c #6E9942",
"@  c #729444",
"#  c #749B46",
"$  c #789D47",
"%  c #759748",
"&  c #769D49",
"*  c #799D4A",
"=  c #76A046",
"-  c #79A347",
";  c #77A149",
":  c #7CA34C",
">  c #7EA94D",
",  c #7FA450",
"<  c #7FAA50",
"1  c #81A54D",
"2  c #82AD4D",
"3  c #82AE4D",
"4  c #81AD4E",
"5  c #82AD4F",
"6  c #83AD4F",
"7  c #81AE4F",
"8  c #82AE4E",
"9  c #83AE4E",
"0  c #83AF4E",
"q  c #82AE4F",
"w  c #83AE4F",
"e  c #82AF4F",
"r  c #84AD4D",
"t  c #84AD4F",
"y  c #84AE4E",
"u  c #84AF4E",
"i  c #85AF4E",
"p  c #84AE4F",
"a  c #85AE4F",
"s  c #82AD4F",
"d  c #84B04D",
"f  c #85B04E",
"g  c #85B04F",
"h  c #86B04E",
"j  c #84B04F",
"k  c #8AB04F",
"l  c #80A650",
"z  c #83A751",
"x  c #85A750",
"c  c #85A750",
"v  c #80A850",
"b  c #83AA50",
"n  c #83AB50",
"m  c #85A850",
"M  c #87AA50",
"N  c #86A852",
"B  c #86A952",
"V  c #84AB52",
"C  c #86AA53",
"Z  c #82AC50",
"A  c #83AC50",
"S  c #82AD50",
"D  c #83AD50",
"F  c #82AC51",
"G  c #83AC51",
"H  c #82AD51",
"J  c #83AD51",
"K  c #82AE50",
"L  c #83AE50",
"P  c #82AF50",
"I  c #83AF50",
"U  c #82AE51",
"Y  c #83AE51",
"T  c #83AF51",
"R  c #83AD53",
"E  c #83AE52",
"W  c #83AF52",
"Q  c #83AE53",
"!  c #84AD50",
"~  c #86AC50",
"^  c #84AE50",
"/  c #85AE50",
"(  c #84AF50",
")  c #84AE51",
"_  c #84AF51",
"`  c #86AF50",
"'  c #87AE51",
"]  c #84AC52",
"[  c #85AC52",
"{  c #84AD52",
"}  c #85AC53",
"|  c #84AD53",
" . c #84AE52",
".. c #85AE52",
"X. c #84AF52",
"o. c #85AF52",
"O. c #84AE53",
"+. c #85AE53",
"@. c #84AF53",
"#. c #85AF53",
"$. c #86AE52",
"%. c #86AF52",
"&. c #87AF53",
"*. c #87AA55",
"=. c #82AD54",
"-. c #84AD54",
";. c #84AE54",
":. c #84AF54",
">. c #85AF54",
",. c #86AF54",
"<. c #87AF54",
"1. c #87AF56",
"2. c #83AE51",
"3. c #88AA52",
"4. c #88AB52",
"5. c #89AC51",
"6. c #88AD52",
"7. c #89AD52",
"8. c #88AC53",
"9. c #89AC53",
"0. c #88AF52",
"q. c #8AAD55",
"w. c #8BAE56",
"e. c #8CAF56",
"r. c #89AE52",
"t. c #88AF58",
"y. c #85B052",
"u. c #85B053",
"i. c #86B053",
"p. c #87B053",
"a. c #85B054",
"s. c #87B054",
"d. c #86B053",
"f. c #88B051",
"g. c #89B052",
"h. c #88B053",
"j. c #8AB153",
"k. c #8CB053",
"l. c #88B054",
"z. c #89B155",
"x. c #8BB155",
"c. c #8AB156",
"v. c #8DB154",
"b. c #8EB154",
"n. c #8EB355",
"m. c #8FB355",
"M. c #8CB057",
"N. c #8DB057",
"B. c #8EB256",
"V. c #8BB254",
"C. c #8EB458",
"Z. c #91B656",
"A. c #94B956",
"S. c #98B957",
"D. c #90B259",
"F. c #92B659",
"G. c #95BA59",
"H. c #99BC5A",
/* pixels */
"E E O.O.O.O.y.O.O O.E E E E y.E O.y.E y.y.E a.;.a.x.* & Q E E E E E E O.O.i O.i E y.O.a.0.V.@ s 0 n E E i i n O.O.i n O.",
"O.O.O.O.O.O.y.f.O E E E E O.E i O.O.y.E E y.E a.a.x.& & O.E 0 E E E E O.O.E O.O.O.O.y.;.O.V.@ s 0 E E 0 O.O.O.O.O.O.O.O.",
"O.O.O.O.;.;.O.f.@ E 0 E E O.g O.E y.E y.y.E y.E y.a.# & 0 E E E 0 E O.O.O.O.O.O.;.y.O.y.O.D.O s E 0 n E O.E O.O.E O.E i ",
"O.O.O.O.;.;.O.f.@ n E E E O.O.O.O.E y.E E y.E y.a.x.# : 0 E 0 E E i O.E O.O.O.O.0.;.y.;.O.m.@ t 0 E E E i i E i i O.O.O.",
"O.O.O.O.;.E O.f.@ C E E 0 O.O.O.i E O.i E O.y.E a.q.& & E E E E 0 E E E O.O.;.Q ;.O.E E E m.@ s 0 E n 0 n i E O.i E E O.",
"O.O.O.O.Q > O.f.@ } 0 E E O.O.E O.O.O.O.O.O.E y.y.;.- : i E E 0 E E E E O.O.O.E O.O.0 > O.f.@ s E 0 E E O.O.E i O.O.E E ",
"O.y.;.;.- n i i O C 0 E E 0 E 0 0 E E E i O.O.O.y.O.: * t E s E n E 0 E i O.E E y.n : 0 g ~ @ s 0 n E E E E O.i E E E 0 ",
"i O.;.: > i i * X n 0 0 E E E E E 0 0 E E 0 i E O.y.> # s s s 0 0 0 E E E i y.a.t.- 0 j g t   1 > 0 s 0 0 0 E n E E Q # ",
"i ;.: & r i > o   3.i t E E E E E E n n 0 s E E y.O.: @ O.i 0 s 0 0 > E E y.< a.- 1 i g t % X 1 : 0 0 0 O.0 0 E 0 E # > ",
"> * O , 1 1   o o 1 - * & # # & & # : : > > s 1 1 > @ o # : > : > # & - : - , ; * > > $ @ o X % @ & & * - 1 > > > : % l ",
"& O l C M 9.N @ o o % * l q.q.m.q.} z l * 1 1 1 - * @ o * t C 3.O.3.C 1 : ; # O * C m.D.b.c @ @ 1 : - : 1 * - - - - % % ",
"G.S.H.S.Z.Z.A.e.o 1 S.H.S.Z.Z.Z.C.S.G.H.H.H.H.H.H.H.1 % S.A.S.S.A.Z.S.S.S.H.H.H.S.S.Z.V.k Z.@ 0.G.H.H.H.H.H.H.H.H.F.H.H.",
"f.C.y.i O.i ~ Z.% D.0.O.E i O.O.a.y.O.y.O.~ g i i O.1 * O.0 O.i i O.i i E i i g E E O.O.0.q.# n t C i O.i i 0 0 O.O.y.y.",
"i E 0 O.C O.O.m.% 3.0 E E O.O.O.Q E O.O.O.i O.O.O.q.: * C i O.O.O.O.O.O.O.i O.O.E E O.O.O.q.@ i s t 0 i i O.g O.i > < E ",
"E y.E O.E O.0.Z.% O.i n n O.O.O.O.O.O.O.O.O.O.O.O.0.* * O.O.i O.O.i O.O.O.i O.i O.O.O.f.;.x.# E t 0 O.E O.O.O.E E > E 0 ",
"y.E i E O.i f.D.. 3.n E E E O.O.O.O.i O.O.i O.O.O.f.# & t E n i O.O.i O.O.E O.i O.O.O.O.a.;.O , n E 0 C i n i E E 0 0 E ",
"O.i O.O.O.O.0.m.X n E E 0 E O.O.O.O.i E O.O.E i O.;.& # Q E E i E E E O.i E O.O.O.E O.O.;.x.O : < y.j j j j d.d.y.y.y.< ",
"O.O.O.i O.O.x.O.. n s n E E O.O.O.O.O.O.i O.O.O.O.O.: O ;.E 0 E E 0 E O.O.O.E i O.i y.O.a.a.O > y.< y.j j d.< < < < y.y.",
"O.i O.O.y.O.f.0.O n s n E E E E O.O.O.O.O.O.O.O.O.O.- O E E E O.E E y.< O.E O.O.O.y.O.y.a.x.O : j < a.< j j d.j y.y.y.< ",
"O.O.y.~ O.y.f.Z.O n 0 E n E E E O.O.E i O.i O.O.y.x.1 @ n 0 0 E y.y.y.y.O.i O.O.O.O.y.O.;.a.@ > j y.j j < j < d.y.< a.< ",
"O.O.O.O.O.O.O.V.@ C 0 n E E E E 0 E E E E E E ;.a.C.* & 0 E 0 E y.y.y.y.E E E E O.O.O.y.E a.# > j < j j d.j < d.y.< y.y.",
"O.i t O.O.O.y.f.O ;.s E E E E n n E E y.E E E E a.x.% : s n s 0 j j < y.E E E E O.i y.E y.a.@ : < j y.< < j d.< < y.a.< ",
"0 E C i O.O.O.O.@ 1 s E E > E E E E 0 < 0 E n E y.y.@ * 0 0 s s j < < y.E E y.y.O.y.E y.y.Q O > j < < j < d.a.< < j < y.",
"E E E E E E 0 C O - > > s > > < > E < E E E Q Q y.< O & s 0 > E < j < > y.> < y.i O.y.E Q & X * < j < < d.< < a.< < < < ",
"# - * - # # @ @ X @   X     + & & = = # ; & - & & # O o : & & # # # + + + + # - - : - # X X X @ - - $ - : > : # O O + ; ",
"1 t i M 0.0.1 # X % 1 1 1 1 1 s s 1 s s n } x x > # o X o & 0.q.e.0.C t s 1 : > 1 1 : * * % X @ > > t O.0.0.C : & & & , ",
"S.Z.S.Z.A.Z.A.A.@ 1 V.Z.S.A.A.S.F.S.S.F.G.D.G.G.F.S.& O $ 0.Z.Z.A.Z.S.D.Z.D.S.S.F.F.m.m.D.f.. M V.Z.V.m.V.C.f.y.< j 0 y.",
"s s 0 E E 0 y.F.@ l i i E i y.O.E E O.i O.O.O.;.O.C.* @ n E 0 E E i 0 s i i E O.C l f.m.i f.# 1 i 0 i 0 0 0 E 0 y.< E y.",
"E E E O.O.O.y.D.@ 1 i O.O.E i O.E i E O.y.O.a.;.;.m., * s n s n n O.i i O.s E 0 O.O.i 0 i 0.@ 1 0 s 0 0 0 0 0 E j y.< < ",
"0 E i O.O.O.y.z.@ 1 i C 0 i O.E O.O.O.O.O.y.;.a.;.N.* * n s 0 E i E 0 O.i i O.O.O.i s s i ~ @ 1 s 0 E n E E E E y.< y.y.",
"E E E O.a.a.a.a.% s s E E 0 O.i i O.i E y.;.a.a.t.N.: @ s s n E E E n i n E n E 0 C t s i t @ - s s E 0 E 0 E 0 y.j < y.",
"E E E y.E a.a.c.# 1 s n E E O.O.E O.E y.O.a.;.a.a.c.# X 1 > > > n 0 E 0 E E E E n s t s t t @ > < n s 0 E E E E < y.y.y.",
"E y.E y.a.a.a.C.= < 0 n E E E E a.y.y.a.y.y.a.a.a.V.> + > - - s 2 0 E 0 a.< j < > < d j > 0 # - y.0 < y.y.j y.> y.< y.y.",
"E E y.E a.a.a.F.# > E n < E E O.< y.y.< y.y.a.a.y.d.O.O > = > 2 0 0 E n j a.a.> = - j d j j $ - > y.y.< y.< y.< < y.y.< ",
"y.y.E y.a.a.a.G.# : E E 0 E E E < a.y.a.< y.a.a.y.j.f.@ = - > < 0 0 0 E j < < = = > > d t i $ - E > < 0 y.y.< y.< y.y.< ",
"< < y.E a.< a.G.+ > s n E E E 0 y.y.y.a.a.y.y.< a.f.k O - < j j E E > E j < < > - < d > i ~ * - y.> y.y.< y.y.j y.< y.a.",
"y.y.y.y.< y.z.V.@ : 0 < E E E E y.< y.j y.y.y.< a.y.0.O > s j < > y.j y.< j < j 0 > s s O.O.# > n < E > y.< y.< y.< y.< ",
"y.< E y.y.a.a.V.O > 0 n E 0 n 0 y.a.y.< < < y.y.y.z.i O > s < j y.< < y.y.y.j j E 0 0 s 0 t $ - 0 E 0 E j j E y.y.y.y.< ",
"y.y.< y.y.y.y.C.O > 0 s E E E n < j j j j y.< y.y.j y.. : E 0 > < j < j < j < j > j E 0 0 i # 1 > j > j < y.> y.< y.j y.",
"< y.j y.< y.y.z.  1 0 0 > > E E y.< y.< j < y.j > y.0 . * n > E < j j < < j j < y.> 0 0 0 k . - j j < j < > y.j y.< < j ",
"y.< 0 E y.< Q 1 X 1 0 0 0 0 < E < E > ; E < > > 0 C $   @ > 0 E < j < y.< < > E < j 0 0 < < O - s s 0 > > : > < < < j < ",
"; & # # ; ; : @ X & & * & ; > ; : * O o * : : - * @ o o O O # # = + # # = & & & ; - : - : # X # - # +   . . . # - = # & ",
"a.O.O.O.O.O.0 - X : 3.0.a.x.C n > @ * s C O.V.m.m.l @ o l q.D.Z.Z.C.C.a.= n i 0.O.~ ~ t 1 $ X - y.x.j.c.V.c.x.f.y.y.E n ",
"f.f.f.y.f.f.C.S.O x.m.C.Z.F.F.F.C.f.A.G.H.G.S.A.A.Z.t % m.D.m.f.j.c.V.V.Z.F.A.c.V.C.C.Z.S.Z.@ 3.Z.Z.G.A.H.A.H.G.F.H.G.G.",
"y.i E O.a.O.y.Z.@ n 0 E E O.g E y.c.n.d.f.y.O.O.O.f.q.* 0 O.i i y.y.y.Z.f.y.j 0 O.O.O.O.y.S.O E j y.< j j < y.y.y.y.j y.",
"E E E y.E a.O.F.O n E C E E E y.E y.j y.y.E O.y.y.O.3.* E C n O.y.y.j j 0 0 E y.y.O.;.y.0.D.O O.y.y.y.y.y.y.y.y.y.y.y.< ",
"E E y.E a.Q a.F.. n E t E E O.O.E y.E 0 O.O.y.d.y.O.3.& O.i O.O.0 y.y.E E E E 0 0 O.a.a.f.D.+ n y.< j y.j y.y.< < y.y.y.",
"E E E y.Q y.x.D.  n 0 E E E E i O.E O.O.O.O.O.y.O.;.x & O.s 0 0 E E E 0 0 E E E E y.y.a.a.D.. O.j y.< y.< y.y.y.a.y.y.< ",
"E E E y.E y.E F.  n E E E E O.O.O.i E O.O.E E O.g y.s % O.E E E 0 E i E E E E 0 E y.E y.y.D.. O.O.i 0 E E O.O.i < a.y.y.",
"E E E y.y.E a.C.  < s n E E O.E O.n O.O.E E E 0 O.g s & O.E O.s E 0 O.O.i E O.n g E y.O.y.C.+ E E E E E E E O.O.y.a.< a.",
"E E E E y.y.y.C.  n E E < E 0 E O.E E E E E E i O.y.O.# i s E 0 0 i E n 0 O.O.i O.y.O.O.y.Z.@ 0 0 E E E E E E E y.< a.< ",
"j E E y.E y.y.C.  n s n E E E E C E E E E E n 0 i g O.& O.0 E E E O.O.i O.O.0 E 0 g O.E y.D.# j 0 E E 0 E n 0 E a.< y.y.",
"< 0 0 E E E y.x.. C 0 < < n n E E E y.y.> > 0 0 y.y.E # n 0 0 E 0 E E E 0 E 0 0 E E i i O.m.# O.y.< y.y.E E 0 E > y.y.y.",
": s E E E y.y.a.  C s 0 E E E n E y.> y.> 0 s s > E s # E E n t E E 0 j n n E n 0 E E E g V.. C j y.> > 0 E E E y.y.< y.",
"0 E E E E E E E   t > E > y.n 0 0 > > > 0 > > 0 < y.> # s 0 i s > y.> j < 0 n < E E 0 E E O.+ - > < y.j 0 E 0 s < j > 0 ",
"* ; - > > > > @   : 0 0 > > > > > > > > - > > > n n O @ 1 - t i > > > : : & - > > > > n > - . - = > > > > > > > > > > > ",
"% @ # - 1 s - % X @ @ % % # # & # & # # # $ * * & % o X @ @ $ . @ # # # # & * & * * $ # # @ X @ # & # # @ # + @ # @ # # ",
"A.H.H.H.S.S.S.G.@ % 9.Z.G.G.S.S.H.H.H.H.H.H.H.H.H.F.x @ 1 Z.S.S.A.H.H.S.H.S.S.H.S.H.H.H.S.D.O 0.H.A.H.H.H.S.H.A.A.H.H.A.",
"k e.x.0.M ~ 0.S.@ x Z.k m.f.0.0.O.g y.y.y.f.x.f.V.V.N % Z.5.k ~ ~ 0.0.0.C i i O.i O.;.0.V.m.@ e.f.k V.V.V.A.S.S.S.S.S.A.",
"i t i O.C t M G.@ C i O.i O.O.O.i E y.y.O.O.O.O.0.0.z % c t r t i C C t s O.O.i O.O.O.0.f.q.@ t i i g g E j j y.y.y.y.y."
};
