/* XPM */
static char *_577676be6d4474de8809eeae9b18f15p75lTPSj3uMRYYY8[] = {
/* columns rows colors chars-per-pixel */
"60 60 194 2 ",
"   c None",
".  c #302336",
"X  c #302537",
"o  c #322538",
"O  c #332538",
"+  c #3D2838",
"@  c #3E293A",
"#  c #472937",
"$  c #4F2D39",
"%  c #502D38",
"&  c #572E38",
"*  c #543139",
"=  c #56303C",
"-  c #5C313B",
";  c #5D353E",
":  c #673137",
">  c #6E3237",
",  c #603038",
"<  c #663139",
"1  c #60373F",
"2  c #6F363A",
"3  c #68373C",
"4  c #7D3334",
"5  c #75383B",
"6  c #753A3A",
"7  c #7D3B3B",
"8  c #7A3A3C",
"9  c #7A3C3D",
"0  c #77413E",
"q  c #233144",
"w  c #253447",
"e  c #2E3A4C",
"r  c #343747",
"t  c #363B4C",
"y  c #2B3F53",
"u  c #493441",
"i  c #5C3741",
"p  c #503D45",
"a  c #6D3D43",
"s  c #324153",
"d  c #3F4955",
"f  c #33495C",
"g  c #354E63",
"h  c #385165",
"j  c #3A5466",
"k  c #3A5568",
"l  c #3A5769",
"z  c #3E5C6D",
"x  c #3F5D6E",
"c  c #5D4F54",
"v  c #525059",
"b  c #68444B",
"n  c #704041",
"m  c #7A4041",
"M  c #734D42",
"N  c #7E4A4A",
"B  c #78524F",
"V  c #63515C",
"C  c #64595E",
"Z  c #6E5A5D",
"A  c #435161",
"S  c #465D6D",
"D  c #566469",
"F  c #5F6C6E",
"G  c #436373",
"H  c #486675",
"J  c #476B7B",
"K  c #496C7A",
"L  c #696063",
"P  c #67777C",
"I  c #8B373B",
"U  c #843F3E",
"Y  c #993536",
"T  c #983A34",
"R  c #A83B36",
"E  c #80403F",
"W  c #84413F",
"Q  c #8B413D",
"!  c #814F3A",
"~  c #A3423A",
"^  c #BC493A",
"/  c #C44638",
"(  c #D44937",
")  c #D04C3B",
"_  c #CE513E",
"`  c #D7543E",
"'  c #D8503B",
"]  c #E54F39",
"[  c #EC563C",
"{  c #834643",
"}  c #864642",
"|  c #8E4540",
" . c #8C4843",
".. c #8C4C47",
"X. c #924640",
"o. c #914A42",
"O. c #904B45",
"+. c #89544E",
"@. c #8C544F",
"#. c #93524A",
"$. c #99534A",
"%. c #A74B42",
"&. c #A84D45",
"*. c #AA4F44",
"=. c #B24D40",
"-. c #A1584C",
";. c #AE5C4B",
":. c #B45C48",
">. c #A45C51",
",. c #80615A",
"<. c #996551",
"1. c #916958",
"2. c #A06545",
"3. c #A3644F",
"4. c #A46F4F",
"5. c #B3654F",
"6. c #AA6958",
"7. c #A86C5D",
"8. c #B76050",
"9. c #BB6852",
"0. c #BF6950",
"q. c #A67152",
"w. c #B67059",
"e. c #BB7B5B",
"r. c #8C756B",
"t. c #8A7B6C",
"y. c #9B7B72",
"u. c #CD6848",
"i. c #D96B49",
"p. c #CB7155",
"a. c #D47152",
"s. c #DB7B55",
"d. c #D47759",
"f. c #E86544",
"g. c #EC7250",
"h. c #BD8148",
"j. c #9D8369",
"k. c #BA9378",
"l. c #F1804E",
"z. c #E5845E",
"x. c #E8855C",
"c. c #E88F5C",
"v. c #D88360",
"b. c #DA8E61",
"n. c #D2876A",
"m. c #C6906D",
"M. c #D89B66",
"N. c #C39276",
"B. c #DF9773",
"V. c #E89168",
"C. c #F69D63",
"Z. c #F49C6A",
"A. c #E49C76",
"S. c #F9A76E",
"D. c #E1A07D",
"F. c #F0A875",
"G. c #F8AB78",
"H. c #4F7480",
"J. c #527985",
"K. c #537B86",
"L. c #507A88",
"P. c #537D88",
"I. c #567E8B",
"U. c #767D80",
"Y. c #55808B",
"T. c #56838C",
"R. c #57828D",
"E. c #59858E",
"W. c #58848F",
"Q. c #72A3AF",
"!. c #74A4AF",
"~. c #7EA9B3",
"^. c #7CADB7",
"/. c #98918F",
"(. c #B19482",
"). c #8C9FA5",
"_. c #82B0B8",
"`. c #84B4BC",
"'. c #FEB083",
"]. c #8ABCC3",
"[. c #98BBC0",
"{. c #97C4CA",
"}. c #99C7CC",
"|. c #A3D0D5",
" X c #ABD6DA",
".X c #B3DBDF",
"XX c #C3E7E8",
"oX c #CAEAEB",
"OX c #CFEEED",
"+X c #CFEFEF",
"@X c #D1EEED",
"#X c #D3EEEC",
"$X c #D3F1EF",
"%X c #D3F2F0",
/* pixels */
"                                                                                                                        ",
"                                                                                                                        ",
"                                                                                                                        ",
"                                                                                                                        ",
"                                                                                                                        ",
"                                                                                                                        ",
"                                                                                                                        ",
"                                                                                                                        ",
"                                                                                                                        ",
"                                                                                                                        ",
"                                                        E W  .%.7.                                                      ",
"                                                    #. .$.-.-.>.>.#.                                                    ",
"                                                     .$.>.-.| Q Q X.                                                    ",
"                                                  } { w...U Q U Q | O.                                                  ",
"                                                    <.'.B.{ 2 > 7 X.X.o.                                                ",
"                                                    4.m.B.,.+.3.$.7 X.X.o.E 9 {                                         ",
"                                                    7.k.F.(.D.V.6.< 6 Q X.Q 7 2 2 8 O.                                  ",
"                                                      D.'.'.G.n.  - < 6 U Q Q Q 7 3 3 8                                 ",
"                                                    8.*.V.F.v.9.s.O.# , 2 5 5 5 U | U 3 -                               ",
"                                                  a.z.=.~ p.d.v.z.i.~ > # % % % $ 3 U { i                               ",
"                                                ` [ g.d.=.p.v.z.f.[ [ _ % . . X   @ $ 5                                 ",
"                                                ^ ^ i.Z.V.z.Z.x.*./ ( / > . O @     O #                                 ",
"                                                < p 1.S.G.S.S.v.v u , $ @ X           @                                 ",
"                                                k f d q.Z.C.e.Z f w s k                                                 ",
"                                                I.z s d 3.3.A f e q z P.                                                ",
"                                                W.K y w r 5 r w q   z R.J.                                              ",
"                  +X                            R.J.  y f c N e t     P.J.                                              ",
"                  {.XX+X$X                    t.z     s g g c N t     z S j.                                            ",
"                    `.}..XXX%X              a.m.L     s g g g c O.    v r.b.                                            ",
"                      Q._.{. XXXoX#X        #.p.8.  R ; d c d s U     -.p.:.                                            ",
"                            ^.].|.XX+X#X    /.+.6   , 6 <.F.q.4 4 &   0 ..;.                                            ",
"                                ~.].|..X#X`.y. .; = $ X M M.8.T # $     | 0.                                            ",
"                                    !.`.}.).3 a b Q ..p r p % T > a V i Q p.                                            ",
"                                        _.(.<.C S A H G g f s X., u C B U Q }                                           ",
"                                        ~.n.A.L S H.W.K j z j $.M r M ! : 9                                             ",
"                                                I.E.E.K j z g +.5.H.D c +...0                                           ",
"                                              T.W.W.W.S l l k Z _ U.W.P N.N.2.M @                                       ",
"                                              W.E.E.Y.k       V ' 5.W.W.        @ * 4.                                  ",
"                                              I.E.Y.K           ' ] r.W.            h.                                  ",
"                                              G T.H h           ) ] >.I.                                                ",
"                                              j H J               *.P L.                                                ",
"                                            t.H G z                 K F                                                 ",
"                                            V.m.,.@.              B r.M.c.                                              ",
"                                          s.l.l.f.%.              =.f.l.l.                                              ",
"                                            i.f./ Y               T ' f.u.                                              ",
"                                            2 I 6                 i 8 T <                                               ",
"                                            , ,                     - , <                                               ",
"                                            > <                       < 2                                               ",
"                                          n { 1                       3 }                                               ",
"                                          - 3 *                       , 3                                               ",
"                                          9 7 <                       2 7 0                                             ",
"                                        O.U a =                       ; 8 U o.                                          ",
"                                        } m                               m }                                           ",
"                                                                                                                        ",
"                                                                                                                        ",
"                                                                                                                        ",
"                                                                                                                        ",
"                                                                                                                        ",
"                                                                                                                        ",
"                                                                                                                        "
};
