/* XPM */
static char *f0b03042c39a4ce2e95aa7ace46009f5i66HtDsbOqcWztIm[] = {
/* columns rows colors chars-per-pixel */
"60 60 234 2 ",
"   c #1E110E",
".  c #1C1918",
"X  c #25140E",
"o  c #28150F",
"O  c #2C1B13",
"+  c #231E1C",
"@  c #261916",
"#  c #321D14",
"$  c #3B160E",
"%  c #2C221A",
"&  c #342217",
"*  c #34231A",
"=  c #3B251B",
"-  c #382718",
";  c #1E1E22",
":  c #1F2023",
">  c #262423",
",  c #312D2C",
"<  c #382824",
"1  c #36392A",
"2  c #383635",
"3  c #2D3329",
"4  c #201F21",
"5  c #471711",
"6  c #751914",
"7  c #41291F",
"8  c #472A1C",
"9  c #4E311A",
"0  c #6E3217",
"q  c #452C21",
"w  c #492E23",
"e  c #442728",
"r  c #4C3126",
"t  c #4E3429",
"y  c #483927",
"u  c #513529",
"i  c #56392A",
"p  c #413D3B",
"a  c #5F2625",
"s  c #6D3422",
"d  c #39422E",
"f  c #3B4630",
"g  c #3D4A31",
"h  c #71421A",
"j  c #56452B",
"k  c #574935",
"l  c #495837",
"z  c #5A5837",
"x  c #4A4F29",
"c  c #79562A",
"v  c #684B37",
"b  c #695837",
"n  c #785639",
"m  c #6D4A2E",
"M  c #4E6238",
"N  c #576539",
"B  c #5D753E",
"V  c #62693A",
"C  c #65773C",
"Z  c #796B3A",
"A  c #3E6C6C",
"S  c #474442",
"D  c #56534E",
"F  c #7A5642",
"G  c #685C54",
"H  c #516456",
"J  c #756E46",
"K  c #697A44",
"L  c #777943",
"P  c #726B58",
"I  c #79716B",
"U  c #4B7D78",
"Y  c #911918",
"T  c #AC1E1E",
"R  c #8B2319",
"E  c #B2271B",
"W  c #981E21",
"Q  c #982D22",
"!  c #B02723",
"~  c #D92926",
"^  c #C62F26",
"/  c #E83C27",
"(  c #C52A1D",
")  c #944916",
"_  c #A54812",
"`  c #A5541C",
"'  c #B55D15",
"]  c #BE6217",
"[  c #8D562C",
"{  c #B3482B",
"}  c #896833",
"|  c #95753B",
" . c #956835",
".. c #AD672C",
"X. c #A67D39",
"o. c #B67C35",
"O. c #B26A2D",
"+. c #CD6D19",
"@. c #C46719",
"#. c #CE711F",
"$. c #D24834",
"%. c #EA4728",
"&. c #F34A2A",
"*. c #C9782A",
"=. c #CA722A",
"-. c #9A6845",
";. c #896A55",
":. c #8D714E",
">. c #B87647",
",. c #AD7650",
"<. c #837D79",
"1. c #D64A43",
"2. c #6B8E3E",
"3. c #6B933E",
"4. c #7B813D",
"5. c #6D8D42",
"6. c #6B8544",
"7. c #768A46",
"8. c #6E9342",
"9. c #729444",
"0. c #749B46",
"q. c #749449",
"w. c #759D49",
"e. c #7B9D4B",
"r. c #7F954C",
"t. c #7C9A57",
"y. c #77A149",
"u. c #7CA34C",
"i. c #7EA94E",
"p. c #77A147",
"a. c #7FA552",
"s. c #7FA952",
"d. c #7F8775",
"f. c #93883F",
"g. c #BC863B",
"h. c #A5853F",
"j. c #C8873A",
"k. c #85994A",
"l. c #849C55",
"z. c #968C4F",
"x. c #AC8B4F",
"c. c #81A54E",
"v. c #82AC4F",
"b. c #88A44F",
"n. c #83A651",
"m. c #83AD51",
"M. c #8AAD53",
"N. c #8AA858",
"B. c #95AD56",
"V. c #86B052",
"C. c #8BB254",
"Z. c #8EB459",
"A. c #92B656",
"S. c #94B957",
"D. c #93B659",
"F. c #95B959",
"G. c #99BB5A",
"H. c #9DB15C",
"J. c #ABA957",
"K. c #B5AF59",
"L. c #83996B",
"P. c #869675",
"I. c #968B72",
"U. c #B88966",
"Y. c #B09072",
"T. c #89A26A",
"R. c #9BA56A",
"E. c #B6B663",
"W. c #A9AF6B",
"Q. c #C58B46",
"!. c #C8964A",
"~. c #CC9753",
"^. c #CE8957",
"/. c #CDA455",
"(. c #D1A454",
"). c #D7AB57",
"_. c #DBB25D",
"`. c #D0A24E",
"'. c #D28C62",
"]. c #D89A68",
"[. c #DB9E74",
"{. c #C9956B",
"}. c #DCB362",
"|. c #D8A477",
" X c #CFAF6C",
".X c #E3BD64",
"XX c #E4B466",
"oX c #E2A97B",
"OX c #E7B472",
"+X c #E9C56C",
"@X c #ECC872",
"#X c #F1CE73",
"$X c #F6CD7B",
"%X c #F2D274",
"&X c #F5D67B",
"*X c #F9DC7D",
"=X c #F6D979",
"-X c #FCE17F",
";X c #D9C16E",
":X c #477D83",
">X c #3B969A",
",X c #60A0A3",
"<X c #49D4D8",
"1X c #999A94",
"2X c #908E87",
"3X c #A8988C",
"4X c #9AA68D",
"5X c #A5A39A",
"6X c #ACADAC",
"7X c #A7A6A3",
"8X c #B8B9B8",
"9X c #B3B1AD",
"0X c #9FA0A1",
"qX c #D3B08D",
"wX c #E3AF87",
"eX c #EAB78A",
"rX c #E7BB95",
"tX c #C09881",
"yX c #CEC49B",
"uX c #EAC49A",
"iX c #F3C797",
"pX c #F0CE87",
"aX c #FFE381",
"sX c #EBCCAA",
"dX c #F4CCA4",
"fX c #F3CEAA",
"gX c #F7D1AA",
"hX c #F9DAB5",
"jX c #F9DAB7",
"kX c #EAD3AC",
"lX c #91D7D5",
"zX c #BFC1C0",
"xX c #C2C3C2",
"cX c #F4E0C8",
/* pixels */
"m.m.m.m.V.m.s.V.8.m.m.m.m.m.m.m.m.m.m.m.V.V.V.V.V.V.y.w.s.N.s.m.K.E.E.E.J.J.J.J.V.V.V.V.V.C.8.m.m.m.s.V.i.V.s.V.m.V.m.v.",
"m.m.V.m.m.N.V.V.8.m.m.m.m.m.m.m.m.m.s.N.s.V.s.V.s.V.w.y.s.V.;XpX&X*XaX=X+X}.).+X XF.V.s.M.C.9.n.i.m.V.i.V.V.V.V.m.V.m.V.",
"m.m.m.V.V.s.m.V.8.m.m.m.s.m.m.m.V.s.s.V.s.V.V.V.V.V.y.y.n./.}.&X&X=X-X-X=X=X%X.X.X@XM.V.m.C.8.m.m.v.m.V.s.V.i.V.m.m.V.m.",
"V.m.V.V.V.N.m.V.9.m.i.m.m.m.m.m.V.V.s.V.V.V.s.V.V.V.y.y.K.).+X=X*X-XaXaX-XaXaX=X_.*XW.m.V.V.9.v.v.m.m.s.V.V.i.V.V.m.m.V.",
"m.V.m.V.s.s.V.V.8.m.m.m.V.s.V.V.s.V.V.V.s.V.V.s.V.m.0.p.x.).#X=XaX*XaX-X-X-X*X#X).=X&XE.m.V.9.n.i.V.i.m.m.m.m.m.V.m.m.m.",
"m.m.m.V.V.s.V.V.8.m.m.m.i.V.s.s.V.s.s.V.V.s.V.s.m.C.p.f.j.).#X%X#X*XaXaX*X%X#X).(.&X=XE.m.V.9.c.V.i.V.m.v.V.m.m.m.m.m.m.",
"m.V.m.M.y.m.V.m.8.V.i.V.V.s.s.V.s.s.V.s.s.V.V.V.m.m.p.X.o.).+X.X%XaX-X*X$XOXpX|.Q.+X=X&XA.m.8.i.i.i.i.V.m.m.m.V.m.m.m.i.",
"m.V.m.u.i.m.m.y.8.s.V.i.V.s.V.s.V.s.s.V.V.s.i.V.m.V.f...o./._.+XaXaX*X$XiXhXjXhX].).&X*XB.n.2.c.i.V.v.v.v.m.v.m.m.m.m.p.",
"m.V.y.e.v.v.c.9.2.c.v.v.n.s.V.s.V.i.m.n.v.v.v.v.m.b.X.Q.g.j.).%X*XaX$XiXhXhXjXjXwXQ..X*XN.w.5.u.i.m.i.v.v.v.v.v.v.V.p.i.",
"s.e.8.a.i.u.2.5.7.c.y.e.w.0.w.w.w.0.u.u.i.i.v.c.c.h.Q.OXpXx.`.#X*X$XiXhXhXhXhXhXwXo./.%Xk.7.5.q.8.p.p.p.u.v.i.v.v.p.9.c.",
"w.9.a.m.M.M.M.7.7.8.9.c.n.M.V.Z.m.m.n.u.u.e.c.c.k.~.).!.iXuX`.#X@XOXgXhXhXhXhXU.y [ (.=XB.n.5.q.e.u.i.p.c.p.p.u.y.y.0.q.",
"S.F.G.F.A.A.C.M.5.k.S.G.D.D.Z.Z.D.F.S.G.G.G.G.S.!.+X+X~.oXeX~.+Xx.i n Y.hXhXU.D :. .(.pXB.V.9.m.F.G.G.G.G.G.G.G.G.G.G.G.",
"C.C.V.v.V.v.v.A.q.Z.V.m.V.v.m.m.m.m.m.m.V.v.v.h..X&X#X!.~.].~.+X XU A 3XsXsX,X0XeX../.pXB.M.q.n.v.v.V.v.V.V.v.v.V.v.V.V.",
"v.m.V.m.v.m.M.C.q.m.i.V.m.m.m.m.m.m.m.m.v.v.z.).%X*X#Xj.Q.'.^.@XoXlXlXcXjXkXlXlXwX{ (.*XN.V.0.m.v.m.v.v.v.v.V.m.v.v.m.m.",
"V.V.v.m.M.m.M.A.q.m.m.s.s.V.m.m.m.m.m.m.V.b.x.@X*X-X_.g.' O.Q.@XXXrXjXjXjXdXhXfX^.` (.%XN.V.q.s.v.M.c.m.v.V.V.V.v.i.m.m.",
"V.m.V.m.V.V.V.C.8.n.m.n.V.s.m.m.m.m.V.m.V.h.`.#X=X%X`.O._ Q j.@XOXiXjXjXfXwXfXfX>.` !. XV.V.8.s.m.v.m.m.v.V.v.m.V.m.m.m.",
"m.m.m.m.m.V.M.C.3.V.i.V.s.V.V.V.m.N.s.m.c.X._.#X&X.Xj.' ' _ o.}.>.].fXjXeXwXdX>.{ ` !.J.V.V.q.a.m.v.m.v.v.V.m.m.V.i.V.s.",
"m.V.m.V.M.m.V.m.3.V.s.s.s.s.s.s.m.m.m.m.k.o._.#X%X`.=.+.' _ ] ].[ -.'.dXdXrX;.s ` ` z.n.V.V.8.y.m.m.v.m.v.V.m.m.V.V.V.V.",
"m.V.m.M.V.V.m.M.8.s.V.i.V.s.s.V.m.m.m.m.k.o._.%X%Xj.+.+.+.] *.~.v ;.,.[.wXwX,.v :.yXV.V.V.V.8.y.m.m.m.v.v.m.v.m.i.V.s.s.",
"m.m.m.m.V.m.V.Z.8.m.i.V.s.V.V.V.N.m.m.m.k.o._.+X%X*.+.+.=.].|.U.s 3X3X3X<.Y.<.2XG I.9XN.s.V.9.s.m.i.v.v.v.V.m.m.i.V.s.s.",
"m.V.m.M.M.V.V.C.8.n.m.m.i.V.s.s.s.s.V.V.s.h.`._.#X*.+.+.#.rXhX:.i <.<.0X5X3X9X2XI 2XyXL.M.M.9.s.i.m.m.i.v.m.m.v.V.s.V.V.",
"m.m.m.m.m.m.m.V.8.m.i.m.V.s.s.V.s.V.s.V.m.q.g.`._.*.+.+.] ].gX:.e S <.3X8X9X7X7X5X5XrXsXV.n.8.a.v.m.m.m.m.v.v.v.V.V.V.i.",
"m.m.m.m.m.m.m.m.9.c.v.m.V.i.s.s.s.V.s.s.m.v.| !.(.*.+.+.Q.'.'.n 4 p G 2X3X1X1X2X2XI.qXqXl.s.q.a.v.v.i.m.m.m.m.m.m.m.m.m.",
"V.m.m.m.m.m.m.m.5.y.i.i.i.i.s.i.s.s.s.s.m.s.c.O.j.*.+.` -.rXsXF . , S D D D S S G K i ;.|.R.6.w.i.i.m.i.m.m.m.m.m.i.i.m.",
"y.y.p.p.p.0.3.0.5.9.5.5.2.2.0.w.0.p.0.p.0.e.3.O.o.#.+.[ i ;.3X[   + 3 , 2 , 2 f 0.w.L U.sXjXR.7.p.y.w.y.y.u.u.0.3.8.0.y.",
"c.v.v.M.M.M.c.9.8.9.e.c.c.c.c.c.c.i.i.a.v.v.b.' #.#.=.|.wX^.o.@.8 % 3 2 S S p l u.i.u.U.fXjXjXz.f 6.c.M.M.M.m.i.p.p.y.i.",
"S.S.S.S.S.S.A.S.8.c.C.A.S.S.S.S.S.F.S.S.S.S.B.' ] ` O.{.sXeX#.@.0 % 3 1 2 p b z D.A.C.b.{.oX|.v 1 y c.A.C.C.C.V.i.V.V.V.",
"v.v.v.M.v.m.m.A.9.c.v.m.m.m.v.m.m.m.m.m.c.M.v.' ) & - q F -.+.@.h O - 1 2 Z  XJ.e.k.V.C.Z i i u y y w.v.m.m.v.v.V.V.i.V.",
"V.m.m.V.m.m.m.D.9.c.v.m.m.m.m.m.m.m.m.m.m.V.c.] 9 X o & < w ) = . + y } } c b b c | 4.i.9.& - = w i q.i.v.v.V.m.i.V.s.s.",
"m.m.m.m.m.V.m.Z.9.n.v.m.n.m.m.m.m.m.m.m.m.m.c.] 0 # = 7 # # & . ; > y | c x >XH c :.4.m.c.B & # q r V i.m.m.m.v.V.V.V.V.",
"m.V.m.m.m.m.m.V.9.c.i.m.m.m.m.m.m.m.m.m.m.V.u.) # # 7 8 8 0 X . : % 9 } :.U <X,XI.| 5.v.v.M.C = < i u b p.m.V.m.V.i.V.s.",
"V.s.m.V.m.m.m.Z.0.i.V.s.V.s.m.m.m.m.m.m.v.m.c.0 O 8 7 7 - 5 $ X   + 9 c z.D >XH z.} 4.v.v.v.0.V n {.;.9 N m.V.v.V.i.V.V.",
"V.s.V.V.V.V.V.Z.y.s.s.V.s.s.V.s.V.s.V.s.V.s.n.,.U.,.t r ) 6 $ 5 + > 9 s | :.A K | j s l.n.v.0.r.x.[.3Xw 6.m.m.m.V.s.V.s.",
"s.V.V.s.V.s.V.Z.0.s.s.s.V.V.s.V.V.s.s.V.V.V.n.[.iXrXq 9 _ Y 6 5 < , 6 0 c x.z.,.c 0 W -.n.n.0.r.,.'.wXk.n.M.s.V.i.V.s.V.",
"s.V.s.V.V.V.V.F.0.s.s.s.i.V.V.m.s.V.s.V.V.r.:.{.rXrXr s R Y T W , , W E h } x.} ) Q R ~ k.v.p.p.z.,.B.i.m.V.s.V.s.V.V.V.",
"V.s.V.V.V.V.V.F.8.y.s.s.m.V.i.m.s.V.V.V.s.L } c ^.|.r i 6 6 Y a 2 3 T %.T 0 c ` %.{ s ! -.v.0.u.m.n.s.s.s.V.V.i.V.i.V.s.",
"s.V.V.V.V.s.V.V.3.i.v.i.i.m.m.m.V.m.m.s.m.P G m m x.9 u -.oXrXG 2 , T %.%.( ( &.&.$.$.wXyXv.3.v.V.i.i.V.i.V.V.s.V.i.i.V.",
"s.V.V.V.V.V.V.V.0.i.i.m.m.m.i.m.s.s.t.d.1X2XI D n | j y ;.dXjXG 2 e ! / &.&.&.&.&./ 1.jXyXM.3.c.i.V.V.i.V.i.V.V.i.V.V.i.",
"V.s.V.s.V.s.V.F.3.i.v.m.i.m.m.i.s.T.0X6X6X1Xd.K Z n b j n eXgXI , < E / &.&.&.&./ ~ 1.jXkXB.p.c.i.i.V.i.i.s.V.i.V.s.V.V.",
"s.V.V.V.V.V.V.V.3.i.i.m.m.m.i.V.T.6XxXzX7X1Xa.v.9.6.u.4.>.wXeX'.Z z T ( / / / ~ ! ^ ^.eX[.B.3.u.V.i.i.i.i.V.i.V.i.V.i.V.",
"i.i.m.m.V.s.s.i.3.s.i.s.i.s.s.T.6XzXxX8X1Xt.m.i.c.M.0.C >.'.[.l.s.i.e. .! ~ ^ Z j ,.'.rX{.n.9.y.i.i.i.i.i.i.i.i.i.i.i.i.",
"y.p.p.0.y.y.y.9.2.0.w.t.y.y.d.8XzXxX8X2Xt.y.y.u.u.9.5.z.[.eXiXR.p.9.q.0.p.:.q.8.y ,.wXgXyXq.5.0.p.p.0.3.3.3.3.p.i.p.p.p.",
"C.V.V.V.V.V.i.i.2.a.m.V.V.T.9XzXzX6XP.a.a.m.V.V.V.N 1 b [.eXqX:.m.Z.Z.V.p.c.u.V - -.wXeXqX0.9.e.V.C.V.V.V.C.C.V.V.V.V.V.",
"V.V.V.V.V.V.C.F.8.s.Z.Z.4X9XzXzX6XP.Z.F.F.F.S.S.e.& q a v -.F r C C.C.C.A.G.8.% q i n F v j C M.V.F.F.S.S.S.F.F.F.F.F.F.",
"V.i.V.V.V.s.V.Z.q.V.s.4X8XxX8X4XT.V.Z.V.V.V.m.V.w.O q w u u r w V m.V.Z.C.V.8.- 7 r t r r q V v.m.m.m.m.i.V.V.i.V.V.V.i.",
"V.V.s.V.V.V.V.F.8.t.7X8XxXzX4XT.s.V.s.V.V.s.m.m.m.x o # = - # - 6.m.V.V.i.V.i.x o O & = 7 z 8.v.m.m.m.m.V.V.V.V.i.V.s.V.",
"s.V.V.V.s.V.s.F.d.6XzX8X6X0Xs.s.V.s.V.s.m.m.V.V.V.l X = t t - y i.m.m.v.m.i.V.x o o * q t l.8.v.i.V.i.V.V.V.V.V.V.s.V.V.",
"V.s.V.s.V.V.V.4X6XzXzX6X4Xs.V.s.s.V.s.m.m.m.m.m.m.u.& * r w q C v.m.m.m.m.m.m.c.x - q q j C.3.m.V.i.V.V.i.V.V.s.V.V.V.s.",
"V.s.V.s.V.V.T.8XzX8X7XP.a.s.s.V.V.s.s.V.s.V.s.V.V.i.- - r r y y.m.v.m.m.m.v.m.m.x & i i z D.3.m.V.v.m.s.V.V.V.s.s.V.s.V.",
"s.V.V.V.V.s.4X8X8X0XL.s.s.V.V.s.s.V.V.s.V.s.s.s.V.c.% & i u z v.v.m.m.m.m.m.m.m.2.& w w k Z.9.m.m.m.m.v.s.V.V.V.V.V.V.s.",
"V.V.s.s.V.V.4X6XP.a.s.m.s.i.V.V.V.V.s.V.V.i.V.V.m.i.- 8 i r K m.v.m.m.c.m.m.m.m.e.X 7 r t M.0.m.v.m.m.m.V.i.s.V.V.s.i.V.",
"i.V.V.V.V.s.T.s.3.m.i.n.m.m.s.V.s.m.V.s.s.V.s.i.m.9.% r t q w.m.m.m.m.m.m.m.v.v.e.X 7 u q K 3.m.v.m.m.s.s.V.V.i.s.V.V.i.",
"V.i.s.V.s.V.V.Z.3.n.v.m.m.s.s.m.s.V.s.V.i.i.V.i.6.% q y q * 1 f f f f f f f f f <   o = < r j q.i.s.s.i.s.i.V.i.V.V.i.V.",
"i.V.i.V.V.s.V.s.2.m.v.i.i.m.m.m.s.V.i.i.i.i.i.8.- w t t r < > 4 ; ; : : : : ; :   o & & w u i j B i.s.i.V.V.V.V.V.v.V.V.",
"i.i.V.i.s.s.s.s.2.c.i.m.i.V.n.v.V.i.i.y.M d 3 % q r u u u < ; ; ; ; ; ; : ; : ;     O # # q t u y j 6.p.i.i.i.V.v.v.v.V.",
"i.i.i.i.i.i.s.y.2.i.v.i.i.i.i.u.i.i.2.d ; 4 . X = r r r q > ; ; ; ; ; ; ; : ; ; ; . X @ O # = q r = > M i.i.i.i.i.i.u.u.",
"0.0.p.p.c.c.c.3.2.3.9.9.9.0.0.w.0.0.g : : : ; X O < r q > 4 4 ; ; ; ; ; ; ; ; ; ; ; ; ; ; . . % % > : 1 3.0.3.0.0.3.0.0.",
"S.F.G.G.G.G.A.A.9.r.M.S.S.S.F.F.G.G.M.l 3 > : 4 @ * < % ; 4 4 ; ; ; ; ; ; ; ; ; ; ; ; ; ; ; 4 ; . > 2 6.S.S.G.G.G.G.G.G.",
"C.C.C.V.M.v.M.S.9.c.A.M.C.C.M.v.m.m.V.V.m.q.N 1 3 3 ; ; 4 ; ; ; ; ; ; ; ; ; ; ; ; : ; . . ; 3 1 l 9.V.C.C.A.S.S.G.G.G.S.",
"v.M.v.v.v.v.M.S.9.m.M.v.v.V.V.M.m.V.m.V.s.V.V.m.m.i.N l l M M M M l l l l M M M M M M M H 6.8.s.i.v.m.m.V.V.V.m.V.v.M.v."
};
