/* XPM */
static char *eea392e51e4b49669d9b3db3b34ba83cmSntG1Y88mD9zeVx[] = {
/* columns rows colors chars-per-pixel */
"60 60 204 2 ",
"   c None",
".  c #1E100C",
"X  c #1E1310",
"o  c #1F1A1A",
"O  c #2D160F",
"+  c #261610",
"@  c #271611",
"#  c #261712",
"$  c #211816",
"%  c #2A1811",
"&  c #2F1B13",
"*  c #2E1D15",
"=  c #231F1E",
"-  c #321D16",
";  c #28211E",
":  c #2D211C",
">  c #35221B",
",  c #392219",
"<  c #39251C",
"1  c #3F271D",
"2  c #1D1D20",
"3  c #1D1D21",
"4  c #1D1E21",
"5  c #1F1E20",
"6  c #1E1E21",
"7  c #1E1E22",
"8  c #1F1F22",
"9  c #1F1F23",
"0  c #1F2023",
"q  c #2F2D2C",
"w  c #3F2E27",
"e  c #372E28",
"r  c #3F2B28",
"t  c #4C140F",
"y  c #562E13",
"u  c #51231E",
"i  c #722C15",
"p  c #61341B",
"a  c #432B21",
"s  c #442B22",
"d  c #422C23",
"f  c #472E24",
"g  c #462E25",
"h  c #4B2F26",
"j  c #4A3127",
"k  c #503529",
"l  c #53372C",
"z  c #593A2B",
"x  c #5C3F2B",
"c  c #403C3B",
"v  c #6A3924",
"b  c #6B442F",
"n  c #674A2D",
"m  c #654C34",
"M  c #6F5032",
"N  c #765D33",
"B  c #7D5B3C",
"V  c #79653B",
"C  c #464240",
"Z  c #4C4541",
"A  c #524E4B",
"S  c #605440",
"D  c #695745",
"F  c #6A5E4D",
"G  c #775642",
"H  c #7E5D47",
"J  c #727158",
"K  c #4C786D",
"L  c #7E736C",
"P  c #7C746D",
"I  c #707672",
"U  c #8E1F19",
"Y  c #AB351B",
"T  c #933427",
"R  c #96382A",
"E  c #B12223",
"W  c #BF2A23",
"Q  c #BB2129",
"!  c #C23121",
"~  c #CD3023",
"^  c #DA3A23",
"/  c #DB3428",
"(  c #E23525",
")  c #E23727",
"_  c #995218",
"`  c #A54C11",
"'  c #B65B17",
"]  c #B05D17",
"[  c #824822",
"{  c #A75322",
"}  c #B9453E",
"|  c #836237",
" . c #8D6C3D",
".. c #936339",
"X. c #B06F2C",
"o. c #B27B35",
"O. c #CA6C1A",
"+. c #CA482A",
"@. c #EF4428",
"#. c #F14A29",
"$. c #CF7120",
"%. c #C4772C",
"&. c #917846",
"*. c #9E7944",
"=. c #A16641",
"-. c #A76F4B",
";. c #A9774D",
":. c #B97344",
">. c #AF7653",
",. c #A67858",
"<. c #8E7667",
"1. c #857C74",
"2. c #A37D61",
"3. c #D65447",
"4. c #B2833E",
"5. c #C18439",
"6. c #B58944",
"7. c #B98457",
"8. c #A88467",
"9. c #B28565",
"0. c #BD8D6A",
"q. c #AC8A72",
"w. c #B7957C",
"e. c #CF8244",
"r. c #C38B43",
"t. c #C19044",
"y. c #C39147",
"u. c #CA964A",
"i. c #C5994D",
"p. c #C8994C",
"a. c #CF895B",
"s. c #CB9C57",
"d. c #D8995C",
"f. c #D1A14F",
"g. c #D6A45C",
"h. c #DBAF5B",
"j. c #C78E69",
"k. c #C19162",
"l. c #C19167",
"z. c #C89668",
"x. c #D49D61",
"c. c #D49E68",
"v. c #C39572",
"b. c #CF9B74",
"n. c #DAAD6C",
"m. c #D5B363",
"M. c #DBBC6E",
"N. c #D9A37B",
"B. c #E1B963",
"V. c #E1A478",
"C. c #E3AC7E",
"Z. c #E7BE78",
"A. c #E7C268",
"S. c #EAC66E",
"D. c #EECB6F",
"F. c #E4C670",
"G. c #EEC777",
"H. c #E6CB77",
"J. c #EFD27A",
"K. c #F3D375",
"L. c #F0D279",
"P. c #F7D67B",
"I. c #F9DA7D",
"U. c #FADE7D",
"Y. c #478B8D",
"T. c #55938D",
"R. c #918982",
"E. c #97918D",
"W. c #909090",
"Q. c #9F9A96",
"!. c #BCA68A",
"~. c #9D9FA0",
"^. c #A2A4A4",
"/. c #A5A6A7",
"(. c #A6A7A7",
"). c #A8A5A2",
"_. c #A9ABAC",
"`. c #ABACAC",
"'. c #AEB0AF",
"]. c #AEB0B0",
"[. c #B6B7B6",
"{. c #B8B9B8",
"}. c #BBBCBC",
"|. c #C7A386",
" X c #C5A98F",
".X c #D1A480",
"XX c #E0B68D",
"oX c #E5BB9B",
"OX c #D1BBA5",
"+X c #94C2BA",
"@X c #B8CABD",
"#X c #E4C29D",
"$X c #EDC59C",
"%X c #F5CE93",
"&X c #FEE280",
"*X c #C4CCB8",
"=X c #E1C3A1",
"-X c #F0CAA1",
";X c #F5CAA4",
":X c #F1CCA7",
">X c #F1CFAE",
",X c #F8D6B1",
"<X c #FBDCB9",
"1X c #C0C2C1",
/* pixels */
"                                                                                                                        ",
"                                                                                                                        ",
"                                                                                                                        ",
"                                                                                                                        ",
"                                                                                                                        ",
"                                                                                                                        ",
"                                                                                                                        ",
"                                                                                                                        ",
"                                                                                                                        ",
"                                                                                                                        ",
"                                                      m.L.P.I.S.B.B.M.                                                  ",
"                                                    m.A.P.U.&X&XU.D.A.H.                                                ",
"                                                    f.D.I.&X&X&XU.D.A.L.                                                ",
"                                                  o.p.S.D.&X&XP.G.g.h.P.H.                                              ",
"                                                  X.u.B.K.&XP.%X,X:Xg.D.J.                                              ",
"                                                o.s.p.h.P.I.%X<X<X<Xc.g.J.                                              ",
"                                              6.f.n.XXh.S.n.-X<X,Xw.| p.J.                                              ",
"                                              h.S.d.V.g.n.S J $X!.I ,.u.J.                                              ",
"                                            i.K.K.r.a.g.Z.+X@X,X*X+Xa.u.J.                                              ",
"                                          6.B.U.B.X.{ u.Z.$X<X,X:X>X:.r.F.                                              ",
"                                          i.D.K.f.' ` 5.x.N.,X-X$Xb.{ r.                                                ",
"                                          y.D.A.%.O.' %.*.=.N.XXv.M =.                                                  ",
"                                          y.D.B.O.O.e.x. .<.w.w.q.L 1.OX                                                ",
"                                          4.h.h.$.O.d.#XM F E.).).Q.R.oX                                                ",
"                                            y.u.$.$.a.b.k c 1.Q.Q.E.R.|. X                                              ",
"                                            o.5.O._ q.|.e q Z A Z C D m 8.=X                                            ",
"                                            ] %.$.7.9.:.p = q c c w     .X,X=X                                          ",
"                                            ] _ [ 8.N.$._ : e c F V       l.,.k w                                       ",
"                                            ] y @ 1 x _ y : x M  .&.V     < 1 h g                                       ",
"                                            ] y > 1 1 - o ; M | K K | ..    * 1 j                                       ",
"                                            v , 1 a u O o ; n &.Y.T.&.D       z H z                                     ",
"                                            ;.9.n p i t - : p  .J J | v       -.N.G                                     ",
"                                            z.$XH i U U u r U [ *.*.[ U Q     >.j.                                      ",
"                                          B | k.H p T T h r ! Y [ { +.T }                                               ",
"                                          P S | M x b.XXc h ~ @.^ #.#.3.oX                                              ",
"                                      (.).W.D N m v b.#XZ u ~ @.#.@.( 3.:X                                              ",
"                                    [.1X(.        ..a.N.    E / ) W R a.C.                                              ",
"                                  [.1X`.          >.V.oX            b V.;X                                              ",
"                                [.}._.          * G 0.2.          @ z ,.9.D                                             ",
"                            /.{.}.^.            , k k h g         * a k k s                                             ",
"                          _.}.{.~.              @ , a > d         $ + - a w                                             ",
"                        `.}.].                  % 1 h s             & 1 g                                               ",
"                      '.}.`.                    @ 1 k w             O h j                                               ",
"                      `./.                      + d k               o 1 h                                               ",
"                                                * h f               . - h g                                             ",
"                                              < a k 1 9 9 9 9 9 9 9 . O , h l d                                         ",
"                                        0 9 @ d k j r 9 4 9 9 4 3 3 X # - 1 h k <                                       ",
"                                      9 9 o O , j a ; 9 3 9 4 4 3 o 9 = o o : > : 9                                     ",
"                                        0 9 9 ; : ; 9 9 o 3 9 o 3 3 o 3 3 3 9 3 9                                       ",
"                                                $ 9 9 9 3 3 9 9 9 3 9 9 9 0                                             ",
"                                                                                                                        ",
"                                                                                                                        ",
"                                                                                                                        ",
"                                                                                                                        ",
"                                                                                                                        ",
"                                                                                                                        ",
"                                                                                                                        ",
"                                                                                                                        ",
"                                                                                                                        ",
"                                                                                                                        "
};
