/* XPM */
static char *_4e0ec7a548243cf99f5278745a55c631umg9mRZrcD3UGaT[] = {
/* columns rows colors chars-per-pixel */
"60 60 228 2 ",
"   c #2E1E1C",
".  c #321E1D",
"X  c #2A231E",
"o  c #25261F",
"O  c #35211E",
"+  c #3A221F",
"@  c #1E2E23",
"#  c #1F3024",
"$  c #252720",
"%  c #2C2520",
"&  c #232B22",
"*  c #292C23",
"=  c #3C2421",
"-  c #342822",
";  c #362521",
":  c #233326",
">  c #243728",
",  c #253B29",
"<  c #2A3E2B",
"1  c #2A3426",
"2  c #373727",
"3  c #422622",
"4  c #452A24",
"5  c #4A2B24",
"6  c #522E26",
"7  c #413226",
"8  c #4C332A",
"9  c #4C3B2C",
"0  c #543229",
"q  c #5C3429",
"w  c #543A2E",
"e  c #5D382B",
"r  c #5A3D31",
"t  c #64392C",
"y  c #6C3D2F",
"u  c #63362B",
"i  c #653E31",
"p  c #703F31",
"a  c #26412B",
"s  c #2A432D",
"d  c #2C492F",
"f  c #31442E",
"g  c #37462E",
"h  c #2D4B31",
"j  c #2C4630",
"k  c #324D32",
"l  c #3D4D32",
"z  c #2F5034",
"x  c #325435",
"c  c #335937",
"v  c #355B39",
"b  c #395E3B",
"n  c #385536",
"m  c #37623B",
"M  c #3A643D",
"N  c #3B683F",
"B  c #47462C",
"V  c #464B32",
"C  c #564934",
"Z  c #445F39",
"A  c #485733",
"S  c #545836",
"D  c #47582E",
"F  c #634536",
"G  c #6D4233",
"H  c #684939",
"J  c #734534",
"K  c #774A38",
"L  c #74513F",
"P  c #6F412F",
"I  c #48673C",
"U  c #57693A",
"Y  c #537C3B",
"T  c #5B7C3D",
"R  c #577538",
"E  c #4A6A36",
"W  c #647239",
"Q  c #3C6540",
"!  c #3E6C41",
"~  c #3F7143",
"^  c #765442",
"/  c #7B5944",
"(  c #6D5541",
")  c #426C41",
"_  c #496943",
"`  c #437344",
"'  c #4B7345",
"]  c #467A46",
"[  c #4A7C45",
"{  c #467A49",
"}  c #497C49",
"|  c #4E764A",
" . c #537441",
".. c #547B45",
"X. c #5C7E41",
"o. c #567846",
"O. c #7D6348",
"+. c #657B41",
"@. c #646E4B",
"#. c #85533C",
"$. c #824B38",
"%. c #865C46",
"&. c #955E43",
"*. c #88634C",
"=. c #936E57",
"-. c #91674E",
";. c #9B7D66",
":. c #5B843C",
">. c #59853B",
",. c #6A8F3E",
"<. c #618C3F",
"1. c #6B923E",
"2. c #699C3E",
"3. c #63923D",
"4. c #6AA03E",
"5. c #4B834C",
"6. c #4D854C",
"7. c #5D8344",
"8. c #53864C",
"9. c #528A4F",
"0. c #5A8B48",
"q. c #5C934A",
"w. c #538D52",
"e. c #558650",
"r. c #569354",
"t. c #5B9555",
"y. c #5A9A56",
"u. c #5C9D5A",
"i. c #579857",
"p. c #4E8E51",
"a. c #638444",
"s. c #648A43",
"d. c #6C8D44",
"f. c #6A8A48",
"g. c #659442",
"h. c #6E9342",
"j. c #6A9C42",
"k. c #6E934A",
"l. c #62964A",
"z. c #729445",
"x. c #739B45",
"c. c #739549",
"v. c #759C4A",
"b. c #799D4C",
"n. c #789C46",
"m. c #7C8358",
"M. c #659A56",
"N. c #729E52",
"B. c #7A9856",
"V. c #698E4B",
"C. c #5EA25B",
"Z. c #5EA057",
"A. c #6CA343",
"S. c #6BA54A",
"D. c #76A14B",
"F. c #7BA34C",
"G. c #7EA94D",
"H. c #73A846",
"J. c #7AB947",
"K. c #7DBD49",
"L. c #78B446",
"P. c #62A45C",
"I. c #64A95E",
"U. c #6AA75B",
"Y. c #7CA552",
"T. c #7EA951",
"R. c #78A858",
"E. c #66AD61",
"W. c #6AAE63",
"Q. c #66A661",
"!. c #6BB365",
"~. c #6EBA69",
"^. c #6DB667",
"/. c #72BD6B",
"(. c #77B668",
"). c #78B66D",
"_. c #7DC04A",
"`. c #74C36D",
"'. c #7AC96E",
"]. c #76C571",
"[. c #7AC572",
"{. c #7CCC74",
"}. c #7FD178",
"|. c #81A54E",
" X c #82AD4F",
".X c #83A453",
"XX c #84AE51",
"oX c #89AD53",
"OX c #8BAA5A",
"+X c #86B052",
"@X c #8CB254",
"#X c #82B15B",
"$X c #8DB459",
"%X c #91B656",
"&X c #95B957",
"*X c #92B659",
"=X c #95BA59",
"-X c #99BB5A",
";X c #8E9C61",
":X c #AE9473",
">X c #83BA66",
",X c #9BA36A",
"<X c #A09A6C",
"1X c #85C659",
"2X c #82CC76",
"3X c #84CC7A",
"4X c #87C977",
"5X c #85D47B",
"6X c #89DB7E",
"7X c #87D67C",
"8X c #91D56D",
"9X c #8DDD82",
"0X c #8CD682",
"qX c #91DD85",
"wX c #92DC88",
"eX c #8EE183",
"rX c #91E385",
"tX c #94E689",
"yX c #96E98A",
"uX c #9AEB8C",
"iX c #98E78E",
"pX c #9CEE91",
"aX c #9CE793",
"sX c #9EF192",
"dX c #9CF08E",
"fX c #A2F495",
"gX c #A4F699",
"hX c #A4F898",
/* pixels */
"XXXXXXOXXX#XXX+Xh.XXXXXXXXXXXXXXXXXXXX+XXXXXXX+X+X>X>X>XoXXX#XXX+X>XR.XXXXXXXX+X+XoX X+X+X@Xz.XX XXXXXXXXX+XXXXXXXXXXXXX",
"XXXXXXXXXXXXXX+Xh.XXXXXX X#X+XXXXX#X+XXXXX XXX#XoX4XpXpX>XR.aXqXuXyXtX4X#XXXXXXXXX#XoX#XoX$Xh. X XXXXXXXXX XXXXXXXXXXXXX",
"XXXX#XXXXXXX#XoXz.XXT.XXXXXX+XXXXXXXXX+XoX XXXqXtXdXuXfX4XrXfXgXhX6XeXrX6X).#X+X+XXX X+X+X@Xh. XXX XXXXXXXXXXXXXXXXXXXXX",
"XXXXXXXXXXXX X@Xz.XX XXXXX+XXXXXXXXX+XXXoX4X(.0XiXdXuXgXrX6X3XiXeX6X{.{.6XrX3XM.Y.+XXX+XXX@Xx. X XXX XXXXXXXXXXXXXXXXXXX",
"XXXXXX+XOXXXXX+Xz.oXXXXXXXXXXXXXXXXX+X+XT.3X!.5X6XeXdXrX{.9X/.2X!.^.E.9.P.5XqXu.M.(..X+X+X+Xz..X XXX XXXXX X XXXXXXX+X+X",
"XXXXXXXX+XG.+X+Xh.oX XXXXXXXXXXXXXXXXXT.u.C.r.[.6X6X5X/.C.P.rXrX`.!.I 6.'.sXwX^.!.W.' b.+X+Xz.|.+X XXX+XoX+XXXXX XXXT.+X",
"XX#X+X+XF. X XoXh.XX XXXXXXXXXXXXXXXXXY.u.E.C.w.I.5X6X/.[ P.6XrX5XP.) } 5XfXiX3X/.] c _ k.N.z.G. X X X XXX+XXX+X+X+X+XG.",
" XXXoXF.F. X XF.d.XX XXXXXXXXXXXXXXXXXY.u.!.E.{.~.E.!.I.I.2XyXuX[.P.Q.e.` /.{.5.} M Q Q w.y.M.N. X X+X X X X X X+XT.XXD.",
"+XXXD.n.|. X|.1.d.oX|.oXXXXXXX|.XX#XT.G.l.U.W.7XrX2XP.'.6X2X5X[./.W.7XqXM.` ` c Q v x { r.E.E.{ 7. X X X X X X+X X+XD.G.",
"|.F.h..X|.|.1.z.1..XF.n.b.c.>X(.l.0X0XR.|.F.U.eXfXhXyXhXfXtXw.0XfXfX6X{.u.! x ` ~ h > m p.C.6.M x ..x.F.n.n.|.|. XD.z.|.",
"n.z.Y.oXoXoX.Xz.d.z.z.|..X7XwXfXtXsX^.P.2XR.2X9XyXhXdXuXhXuX2XdXfXtX/.I.~ x x w.i.w.m > ! 5.! m ! b z.F.|.|.|.|.F.n.x.n.",
"&X&X-X&X%X%X&X@Xz.|.&X-X*X3X{.9XsXsXr.6./.i.3X}.5XdXeXsX6X6XdXfX5Xu.i.} z s b C.C.w.{ x Q 5.5.5.v j b.-X-X-X-X1X-X=X&X-X",
"+X$X+X X XoXXX%Xz.OX#X Xl.M./.[.0X].} N ` ~ r.C.Z.u.E.uXfXeXtXeXI.y.5.c c m v i.i.! { c M ! Q x s  . X+X X+X+X X XoX+X+X",
"XX X+XXX XXXoX@Xn.oXv.X.p.].!.E.r.] ` ! v h M ] M x M P.uX9XE.6.p.r.c d z c z Q m c h z z h j s X.oX+X X X X X+X XG.G.+X",
"+X X+XXXXXXXoX%Xz..XI M { } Q.i.p.r.6.c z c k ` m , a ' /.I.m ] 5.c j x x v h Q Q x > > < < < _ .X XXXXXoX+X+X+X XG.+X X",
"XX+XXXXXoX+X+X%X1..X_ 5.~ b 5.{ 6.5.{ M c c d a : : > h } N m ` m N v z x Q ~ Q ! a , > : : : Z  XXXXXXX+X X X X+X XG.+X",
"XXXXoXXX+XoX+XoX1..XN.5.m m x h m x ~ ~ k d d > # o 1 s ` i.M } } Q j < c c Q c x > > > : & : v | w.Y.XXXX+X+X X+XT.G.XX",
"XXXX+XXXXX+X+XoX1.oXY.h , v M } ] ] v s n a > # @ # X - f M s v k 1 & & s < a s , > # : & > j { } i...k.G. X+XT. X+X+XXX",
"XXXXXXXX+XoX+X@Xh..Xb.# : a v ^.[.u.9.x : & & : @ @ + 5 X : & 1 1     $ > # & * @ & : & : c c ] ] ! Q Q ) G.+X+X+XT.XXXX",
"XXXXXXXXXX+X+X$Xh. XT.)...} 0XfXuXuX9XU.x * & & o @ + 5 = & @ X O %   @ # @ & - % @ & : : x ` m j h Q ! c I G.XX+X+XXXXX",
"XXXXXXoXXXXX#X@Xz. X.XrXdXsXfXfXfXfXrX'.!.' 1 X O = = = 4 + &   O 3 3 $ @ @ & ; ; $ & & > c ` m s x M M d k G.XXT.+X+XT.",
"XXXXXXXXXXXX+X+Xc.M.2XrXrXuXqXsXpXrX6X{.!.~.!.t.' O . + 4 4 3 4 3 5 + ; % - % ; X & o > s k v x h v c a < k .XXX+XT.T.+X",
"XXXXXXXX+XXX+X>X).8.rXsX9XtXZ.9X2X`.{.!.(.].].`.u.: * . + 3 4 5 5 3 = 3 3 3 ; O & @ : h c x c x x x , > > 7.+XT.+XXX+XJ.",
"XXXXXXXX+X#X#X>X5XZ.t.'.9X9XyXeX^.P.5XI.t.!.I.C.' , : X . . . 3 6 5 . ; . . ; $ & x ] t.u.{ ) /.M ] x , , D.T.+XT.T.T.XX",
"b.D.n.F.D.R.qX7X{.{.{.5.r.Z.`.C.t./.sX6Xr.} ~ ! x > : - 4 3 = 4 6 6 + . & & > x x { !.~.~.y.P.yX[.P.^.W.n v.Y.x.k.h.k.D.",
"|. X XoXN.U.`.2X6X{.].Z.{.9.I u.5X5XuX6X!.6.c h s h ' g 3 6 6 y J 6 = . & < v ~ ) p.~.~.E.y.~.fX0X'.].W.~ B.oXG.b.b.x.G.",
"&X&X&X%Xt./.'.E.E.`.`.`.eX`.r.` ] u.`.`.!.w.x d d v (.U.2 3 q &.&.u 5 ; & h ! 5.Q { !.`.r.) y.[.{./.E.p.v k.+XXX XJ. X+X",
" X X X|.r.^.!.P.!.6X5X6X5X'.E.I.I ] P.W.[.!.M x x v ^.uXM.A q &.&.p 6 . & s Q ~ h ! E.!.} w.E.w.t.P.` c k b D. X XG.+X+X",
"+XXX.XY.Q w././.!.E.!.~.P.C.I.~.~.t.E.^.p.i.! s < c ^.pXfX3XU J &.J u O @ > a j s ! C.u.w.!.~.!.w.5.{ j x x _ N.+XT. XT.",
"XXXXXX..n ` u.E.].p.w.5.N ! i.].~.^.].E.` m h , c M M.uXsX9X5.l q 0 q O $ > > > * k Q w././.].].].W.r.5.v c c _ +XG.+X+X",
"XXG.XXQ Q b M { ] [ ] ] d v i.!.r.{ i.u.b a a h b ` w.7X9X[.v x l 5 3 O $ @ @ & % : > Q !.{.]./././.6.! m v j x  X+X+XG.",
"+X+XXXv c h ! h C.~.i.i.} [ m ] M b p.{ h > : , m Q M ) ] ` ` v k 3 = 3 ; % & : % $ & b P.~.~.C.Q.i.Q ! v c a g +XT.+X+X",
"T.T.+X0.f < h Q p.{ i.i.p.c # , s j M j : & @ % < h , 1 , c b < 1 = 0 y 3 = $ $ ; = * j ~ 5.` M x a , h s > # j XXXXXXT.",
"+X+XXX+XY.s s b Q c ! m x j x j : : , & X & & X - & o X ; 2 f 2 = 5 t $.0 5 3 5 5 = % : h h a > , R < : : @ U f.XX+X+X+X",
"T.+X+XXXXXX.: j h a j a , h d h v.Z l & X . * ; 4 = $ . . 3 . 5 3 q p J y ; + + ;   @ # > > # # I G.k.f.k < V.XX+XT.T.+X",
"+XXXXX+X#XT.f # # # > # # # I Y.XX X#XA ; 3 3 3 ; = + O . 5 4 5 y t K u 4 O . X * & @ @ # @ d v.D.XXG.XXD.b.XXXX+X+XT.+X",
"T.+X+X+X+XT.K.o.s a.s > # , v.XXXXXXXXD.a.& $ $ $ . . ; = 6 5 + J &.4 = . . X : # # @ g n U :.F.XX XXX XXX+XT.XXT.+XT.+X",
"T.+X X+X+X+X+X@Xz.G.k.s...I F.XXXXXXXXXXXXf @ , f - . + 3 3 5 5 6 q .   ; B X.n n :.R  X+X Xn.F.XXXX XXXG. X+XXXT.+X+XG.",
"+XG.+X+X+X+X+X$Xd.|. X X XT.XXXXXX XXXXXXXv.I h.XXB + + 3 0 4 5 3 . . B f.|.XX|.G. X X X XoXx.F.XX|. XT.+XG.G.+X X+XT.+X",
" X+X+XT.T.+X+X@X1.|. X X X+X.XXXXXXXT.XXXXXX X XG.2 + + = 0 5 5 . . U  X X XXX X X X X X XoX2.F.XXJ. X+XG. XXX X+XG. X+X",
" XG. X X XXXXX|.,.|. X|. X X XG.XXXXY.b.XXG. X Xk.= 3 . 3 u 6 3 + = h.+XG.+XT.XX XG. X XG. X1.F. X X X XG.F.|.+XG. X XXX",
"H.D.D.x.D.D.F.z.d.v.F.n.D.D.D.F.D.n.z.z.D.D.F.F.C + = 3 6 u p + + 3 R x.D.D.x.x.D.D.F.F.F.x.h.x.n.x.h.1.1.2.1.x.F.D.x.n.",
"oXXX+X XXXXX XF.d.F.oXoX@X+X+XXX|.z.b.|.oXoXoX@X+.= 6 5 y p $.3 = 3 S +Xx.|. XoXoXoXoX X|.n.d.|.oX@X@X+X@X@X@XoX+X XoX|.",
"+XoXoXoXoX+X$X=Xz.@X@X%X%X*X=X=X%X@X&X1X-X=X&X&Xd.3 u u 6 u J q = = U $X%X=X&X$X@X@X@X%X&X%X1.oX$X&X*X&X&X&X=X=X=X=X-X1X",
"+XXXXXXXXXXX#X%Xz.XXXXXXXXXXXXXX+X$X@X@X+X+XoXoX9 = t J y q u y 3 + U %X@X+XJ.XX+X+X+X+XoX*Xz.|.XX+X+XXX X X X X+X X+X+X",
"XXXX+X+X+XXXXX*X1.XX.XXXXXXXXX+X+X+XT.+X+X+X.Xn.7 i t K p $.t 6 5 3 S oX XG.XX+XT.+X#X#X+X&Xh.XXXXK.XX+X+X+X+X+X+XXX+XXX",
"XXXXXX+XXX+X+X*X1.oXXXXXXXXXXXXXXX,XXXXXXXXX#XU 5 G q K q %.0 6 5 3 3 +.+X+XXXXX+X.X:X#X+X*Xh.+X X+X X+X+X+XT.+XT.+XXX+X",
"XXXX+XXX+X+X+X*X1..XXXXXXXXXXXXXR.m..XXXXXXXn.9 0 e 3 %.q %.5 5 3 3 5 S T.XXXX+X+XM.+.:XOX*X1. X+XT.+X+X XT.+X+X+X+X+XT.",
"T.+X+X+X+X+X+X*X,..X XXXXXXX.XOX:X' ;..XXX+.w 0 G 3 8 *.0 %.i F 3 3 4 8 z.XXXXoX<Xe.| ;.;X$X1.XXXXXXXX+XXXXXXXXX+X+XT.+X",
"T.+XT.+X+XT.+X*X3. X+X XXXXXY.B.;.Q _ Y.f./ 0 ^ i 8 r %.8 -.w 6 3 5 3 5 B +.f.;X;.Q Q o..X@Xz.XX+XXXXXXXXXXXXXXXT.+X+XT.",
"+X+X+X+X+XT.+X$X1..XXXXXXX+X+Xq.Q ) 9.f.F ( 4 ^ 8 ^ F / 5 ^ ^ ^ K + q 4 = 4 8 ' _ Q b ..Y.OXx. X XXXXX XXXXXXXXXT.+X+X+X",
"+XT.T.+X+X+X+X$X1.|.Y.N.T.T.R.' 6.Z ( ( H 8 8 r H r F ^ 4 r %.C =.r 5 y 5 V U U { { Q ..' Y.x. X XXXXXXX+XXXXXXX+XT.+XT.",
"T.+X+XT.T.+XT.@X1.N.M.l.R.U.t.u.[ C *.w 5 8 ^ =./ C *.( 7 C L C H w 4 C H V _ e.9.) n ) Q V.x.XX+XG. XT.T.+XT. X+X+X+X+X",
"G. XG.+X+X+X+X@Xj.V.9.q.L.S.q.8. .r B E V =.^ 8 9 =.*.8 A 8.( %.7 = C 8.o.C H C ) ] Y Y Y g.7.b. X+X X+X X+X+X+X X XT.+X",
"G. XXX X+X+XT.T.L.J.y.q.L.1Xs.Y T R 2.W / F 9 A S O.C 2 E 5.8.O.*.B B [ 8.I C w D Y 4.L.j.3.3.j.S.Y.XX XJ.+XG. X X X X X",
"F.F.F.G.G.G.G.j.:.L.J.J.J.K.J.1X1X_.A.D D E >.g.g.q.0.Y >.6.[ S <XO.Y >.Y Y 2.4.L.j.2.2.1.3.:.j.' v.G.XXT.G.G.G.G.G.G.G.",
"x.x.x.F.|.|.|.1.,.<.<.D.H.s.s.A._._.1X4.H.L.K.K.S.q.q.A.4.H.3.>.U <.T :.<.<.T T T T T T R X.+.T d.x.n.x.2.1.n.1.n.1.n.x.",
"&X&X-X-X-X&X&X&Xz.n.c. .f.oXoX7.4. X_.4.R s.g.g.g.A.4.8X8X8X1XK.4.2.c.@X-X-XoX.XoX=X-X-X=X%Xh.oX&X-X-X-X-X&X-X-X-X-X-X&X",
"@X@XoXoXoX XoX&Xz.oX.XoX+X@XoXv.h.:.3.F.oXXXXXoXXXb.3.T.H.J.L.j.<.z.oXoX XXXXXXXXXoXXXoX+X*Xc.@X+X@X@X@X&X&X&X&X&X&X&X&X",
" XoX X XoX|.oX&Xz..XXXXXXXXXXXXXXX+X+X+XXXXXXXXX+X+Xb.a.a.7.X.f.c.oX X XoXXXXXXXXXXXXXXXoXoXz.XX X X+X+X X X+X+XoX+XoXoX"
};
