/* XPM */
static char *b5957793d7bb45a499ff322bac1671cbCvtvtIzTW91ZuEqc[] = {
/* columns rows colors chars-per-pixel */
"60 60 207 2 ",
"   c None",
".  c #2E1E1C",
"X  c #2E231F",
"o  c #29241F",
"O  c #2A241F",
"+  c #36211E",
"@  c #36211F",
"#  c #38231F",
"$  c #1E2D22",
"%  c #232720",
"&  c #222B22",
"*  c #272820",
"=  c #282D23",
"-  c #2D2C24",
";  c #322420",
":  c #3A2320",
">  c #3B2722",
",  c #3C2420",
"<  c #302922",
"1  c #213124",
"2  c #203025",
"3  c #213126",
"4  c #213326",
"5  c #223327",
"6  c #223427",
"7  c #233627",
"8  c #243428",
"9  c #243628",
"0  c #243A28",
"q  c #263D2A",
"w  c #343527",
"e  c #3F3426",
"r  c #402622",
"t  c #412622",
"y  c #432722",
"u  c #472923",
"i  c #482B25",
"p  c #4B2B24",
"a  c #4F2D25",
"s  c #4E342A",
"d  c #453D2A",
"f  c #543027",
"g  c #51362C",
"h  c #593228",
"j  c #5B382D",
"k  c #5A3E31",
"l  c #63382B",
"z  c #6C3E2F",
"x  c #28402C",
"c  c #28412D",
"v  c #2A422F",
"b  c #2A442D",
"n  c #2B482F",
"m  c #39462D",
"M  c #2D4C31",
"N  c #2E4E32",
"B  c #2E4D34",
"V  c #334F33",
"C  c #304F35",
"Z  c #2F5134",
"A  c #315136",
"S  c #325435",
"D  c #335837",
"F  c #33513B",
"G  c #345B38",
"H  c #35583A",
"J  c #35593A",
"K  c #365E3A",
"L  c #36583D",
"P  c #395F3E",
"I  c #37613B",
"U  c #39633D",
"Y  c #3A663E",
"T  c #3C693F",
"R  c #4E422E",
"E  c #584834",
"W  c #5E4538",
"Q  c #4C5935",
"!  c #565133",
"~  c #614133",
"^  c #654636",
"/  c #6A4838",
"(  c #6E4C3B",
")  c #724534",
"_  c #774735",
"`  c #65533D",
"'  c #41643E",
"]  c #516137",
"[  c #50693F",
"{  c #4F7B3E",
"}  c #557637",
"|  c #567B3C",
" . c #577D3C",
".. c #60643D",
"X. c #617D3E",
"o. c #3F6840",
"O. c #3E6D41",
"+. c #715141",
"@. c #785744",
"#. c #436742",
"$. c #406B43",
"%. c #416E43",
"&. c #4A6F40",
"*. c #4A6C43",
"=. c #417143",
"-. c #447247",
";. c #427444",
":. c #457746",
">. c #4D7147",
",. c #477B48",
"<. c #497E4A",
"1. c #557746",
"2. c #72765B",
"3. c #814F39",
"4. c #965E42",
"5. c #83634C",
"6. c #867558",
"7. c #997962",
"8. c #5B863C",
"9. c #5C883C",
"0. c #628E3C",
"q. c #618F3E",
"w. c #62903F",
"e. c #4C834C",
"r. c #4E874D",
"t. c #508044",
"y. c #5C8840",
"u. c #5C8C43",
"i. c #52854D",
"p. c #52864F",
"a. c #518B50",
"s. c #538A53",
"d. c #538E52",
"f. c #569555",
"g. c #589051",
"h. c #5A9A57",
"j. c #5B975A",
"k. c #5F9A58",
"l. c #5F9F5B",
"z. c #61874D",
"x. c #629440",
"c. c #669A41",
"v. c #649842",
"b. c #679D41",
"n. c #60994E",
"m. c #5EA059",
"M. c #6DA142",
"N. c #6CA343",
"B. c #6FA945",
"V. c #67A24B",
"C. c #71A34E",
"Z. c #74AD4A",
"A. c #74B045",
"S. c #78B447",
"D. c #79B84B",
"F. c #63A15F",
"G. c #62A45D",
"H. c #66A55E",
"J. c #65A95F",
"K. c #74B25A",
"L. c #768763",
"P. c #69AF61",
"I. c #68AD62",
"U. c #6CAC67",
"Y. c #69B262",
"T. c #6AB265",
"R. c #6DB567",
"E. c #6DB667",
"W. c #6FBA69",
"Q. c #74B56C",
"!. c #71BE6B",
"~. c #72B86D",
"^. c #75BD6D",
"/. c #7EC049",
"(. c #74C16C",
"). c #77C16E",
"_. c #76C46F",
"`. c #7DC672",
"'. c #7DC276",
"]. c #7AC872",
"[. c #7DCC74",
"{. c #91866C",
"}. c #AA8175",
"|. c #81C450",
" X c #88CA59",
".X c #90D269",
"XX c #81CE77",
"oX c #81D177",
"OX c #85D47A",
"+X c #86D47D",
"@X c #89D87E",
"#X c #89D280",
"$X c #8CD683",
"%X c #8CDD81",
"&X c #8ED985",
"*X c #8FDF84",
"=X c #8EDC86",
"-X c #90DC86",
";X c #95DD8E",
":X c #90E185",
">X c #91E486",
",X c #9BE78F",
"<X c #97E98B",
"1X c #9BEC8E",
"2X c #9BED8F",
"3X c #9EF091",
"4X c #A2F595",
/* pixels */
"                                                                                                                        ",
"                                                                                                                        ",
"                                                                                                                        ",
"                                                                                                                        ",
"                                                                                                                        ",
"                                                    &X3X,X  ;X,X1X:X-X                                                  ",
"                                                #X<X<X3X<X+X<X4X4X:X%X%X@X                                              ",
"                                              '.+X<X2X4X2X@X[.@XoXoX(.(.@X%Xn.                                          ",
"                                            H.Y.].@X%X%X].(.`.OXW.Y.i.r.[.:XI.I.K.                                      ",
"                                          j.G.h.k._.%XOXm.a.OX>X[.m.o.I.2X2X[.W.r.G                                     ",
"                                          l.J.Y.I.J.W.(.h.T.%X>XoXm.i.:.Q.%XI.a.o.K o.s.j.                              ",
"                                            F.I.XX:X^.J.XXoXOXXX^.E.@XQ.<.i.K K D K e.F.I.a.                            ",
"                                    U.-X#X    m.OX4X3X<X4X2XI.`.4X<XoX^.<.D O.%.C b =.h.d.O.G                           ",
"                              $X%X2X<X<XG.R.~.'.%X<X4X2X3X2XOX<X3XOXR.d.D S r.h.r.S N e.:.T T H                         ",
"                              ~.`.@X2X%X<.f.h.R.].[.OX:X2X%X<X2X[.f.r.K n S h.m.<.=.S <.,.-.S x                         ",
"                            *.F.R.W.W.h.O.T K ;.d.e.,.J.<X<XOX^.m.f.T N I D <.<.Y U D U G B n                           ",
"                          L o.h.T.G.r.r.;.G Z S =.K b G E.[.d.O.a.O.N Z S N D K S x x b x 7                             ",
"                          $.;.T <.r.a.r.;.D D N N x 2 q <.r.T O.Y K Z S K Y Y Y b 0 7 0 0 3                             ",
"                          -.;.I G G Y U O.I Z n 0 & & 0 S e.O.=.:.Y b n S T K Z 0 7 7 1 3 A -.                          ",
"                            x N I :.:.=.S n n 0 1 $ & + w D Z D V 0 O 7 n x x q 7 1 & 7 b T <.a.L                       ",
"                            q 0 o.^.`.I.g.x $ 1 1 $ & y > 1 $ = = . O 1 7 = = & 1 1 1 b K %.%.T Y P L                   ",
"                            Q.F.@X4X3X2X@Xg.m o & O O y u X $ O # @ O $ $ 1 X X & & 1 n T Y b N T Y C                   ",
"                          #X<X3X4X3X4X<X@X(.J.*.m e # # y u + @ y u # $ & & X # o & 2 n T Y b D I N x                   ",
"                      U.H.>X>X>X`.%X:XoXoXR.!._.(.i.* X : y u u u y # # y # # o $ = b N S N S D x q 8                   ",
"                    $X).k._.:X>X@X@X!.Y.(.k.^.W.I.;.4 $ X # # u u u @ # # + O 1 M T e.e.' a.T D x 7 -                   ",
"                  =X+X[.(.I.f.J.(.Y.l.XX<XT.e.<.=.S 0 4 # # # y a a + O o = n G <.T.E.I.g.OXQ.F.G.:.                    ",
"                j._.XX+X].Y.I.F.:.g.(.@X<X_.h.K N x S [ e y a z ) a # O 0 Z T O.f.!.W.m.I.<X%X]._.f.-.                  ",
"              h.I.(.I.E.].].OXOXl.<.:.G.(.R.I.I N N %.`.1.i f 4.4.h > O q Y e.T <.!.P.;.g.W.(.W.m.%.F                   ",
"              -.h.!.I.E.].oX[._.Y.H.i.e.J.I.R.;.N N $.@X@Xk.R _ 3._ a O 9 Z K Z :.T.h.i.Y.m.i.i.U N A L                 ",
"              L O.I.W.W.m.G.h.r.h.!.W.F.W.f.e.T x n ' oX3X<Xh.! 3.z f + 3 q q x U d.h.I.!.!.I.f.<.G D Z L               ",
"              L U :.f.f.<.:.I S d.(.G.m.E.d.Z b n I O.(.1X:Xr.S d a u X $ 1 & * q N h.(._._._.T.a.T K A B               ",
"              K D I I f.m.g.,.O.;.r.;.T a.O.q 7 x I ' <.k.g.=.G A u # @ O $ 3 * & 9 e.W.(.T.I.h.O.T K b 7               ",
"              x x Z I f.f.f.f.;.b b b K Y q 1 $ = b M b 0 A Y N w # h a # O = # + 1 I r.r.;.U n b N x 0 7               ",
"                8 x G U K o.D Z N x 3 7 7 * o $ o < & & X w m w > p z ) p u u u # o x Z b 0 0 - 8 0 1 -                 ",
"                  3 q n q x q x n 8     8 O @ @ # u @ X + # , u u l z _ u # # @ O $ 0 7 3 7         8                   ",
"                    3 3 7 7 2 7 8         < # > # @ # @ + y u y ) _ l f @ X o & 2 $ 2 2 3                               ",
"                          3 7 3             8 & = & . # # y u y z _ > + + X 3 3 3 7                                     ",
"                                              8 -   + + # u u p a # . <                                                 ",
"                                                    @ # # a p y # ;                                                     ",
"                                                    : > # a h y + +                                                     ",
"                                                  > # # p l z y # y                                                     ",
"                                                    y f f z _ a , >                                                     ",
"                                                  - y z l h z l y :                                                     ",
"                                                  # a z ) ) l l y :                                                     ",
"                                                  i j l ) _ l f i y >                                                   ",
"                                      {.        < f j j ) / j a u y y           L.{.                                    ",
"                                    {.>.}.    > g ~ u ~ ( ^ ^ W y y u -         s.2.}.                                  ",
"                                  L.6.' *.  W k ^ k g ( / ^ ( g > u u i -     7.' o.                                    ",
"                                  -.' %.#.^ ( s ~ g ^ ( ~ j @.( +.p h u y R [ &.Y P                                     ",
"                                  >.<.] @./ s s +.+.k @.k g @.( 5.g a l d [ 1.<.=.P >.#.                                ",
"                        i.d.u.H.m.h.*./ W d W 5.@.k +.5.g Q ` ( g s R [ E ! [ e.%.' ' >.                                ",
"                      K.V.g.N.D.x.{ } Q } ] @.^ d E 6.~ m 1.1.5.^ i Q r.[ E k Q { c.c.x.8.u.                            ",
"                      M.S.B.A.|.A.Z.S.A.0.! ! ] 8.X.z.] *.t.r...7...} t.1.} } w.x.B.N.x.0.c.y.                          ",
"                        9.M.A.M.x.Z.|./.S.N.N.A.D.B.d.c.b.c.x.} ..X.8.y. .9.0.w. . . .|   *.                            ",
"                          -.|     y.M.S.Z.w.9.c.c.n.b.D..X X XS.A.y.                                                    ",
"                                      |               9.C.A.B.b.y.                                                      ",
"                                                          |                                                             ",
"                                                                                                                        ",
"                                                                                                                        ",
"                                                                                                                        "
};
